<svg xmlns="http://www.w3.org/2000/svg" xmlns:xlink="http://www.w3.org/1999/xlink" width="1080" zoomAndPan="magnify" viewBox="0 0 810 809.999993" height="1080" preserveAspectRatio="xMidYMid meet" version="1.0"><defs><filter x="0%" y="0%" width="100%" height="100%" id="391077d782"><feColorMatrix values="0 0 0 0 1 0 0 0 0 1 0 0 0 0 1 0 0 0 1 0" color-interpolation-filters="sRGB"/></filter><clipPath id="8017ff5eaf"><path d="M 405 0 C 181.324219 0 0 181.324219 0 405 C 0 628.675781 181.324219 810 405 810 C 628.675781 810 810 628.675781 810 405 C 810 181.324219 628.675781 0 405 0 Z M 405 0 " clip-rule="nonzero"/></clipPath><clipPath id="e42ee22916"><path d="M 98.601562 290 L 691.964844 290 L 691.964844 689.90625 L 98.601562 689.90625 Z M 98.601562 290 " clip-rule="nonzero"/></clipPath><mask id="46fae57dd8"><g filter="url(#391077d782)"><rect x="-81" width="972" fill="#000000" y="-80.999999" height="971.999992" fill-opacity="0.19"/></g></mask><clipPath id="ee52c64e47"><path d="M 1.953125 209 L 662.023438 209 L 662.023438 653.769531 L 1.953125 653.769531 Z M 1.953125 209 " clip-rule="nonzero"/></clipPath><clipPath id="05c6511739"><rect x="0" width="663" y="0" height="655"/></clipPath></defs><g clip-path="url(#8017ff5eaf)"><rect x="-81" width="972" fill="#ffffff" y="-80.999999" height="971.999992" fill-opacity="1"/></g><path fill="#004aad" d="M 650.308594 292.324219 C 642.382812 280.582031 636.488281 267.699219 632.289062 254.144531 C 622.929688 223.972656 621.226562 195.285156 601.976562 168.988281 C 585.261719 146.148438 561.882812 128.484375 535.984375 117.820312 C 505.804688 105.398438 473.890625 102.410156 439.976562 104.417969 C 344.484375 110.066406 294.179688 164.765625 277.769531 192.1875 C 277.769531 192.1875 310.664062 143.492188 395.296875 132.640625 C 500.855469 119.109375 596.824219 195.570312 581.683594 297.878906 C 576.851562 330.515625 560.808594 357.058594 533.515625 374.980469 C 501.722656 395.855469 464.734375 405.726562 434.726562 429.949219 C 414.472656 446.300781 397.484375 467.460938 388.761719 492.214844 C 385.117188 502.5625 382.933594 513.671875 384.335938 524.585938 C 385.839844 536.292969 391.496094 547.300781 399.582031 555.796875 C 415.84375 572.886719 442.234375 579.125 464.179688 571.066406 C 474.941406 567.117188 485.207031 558.992188 487.460938 547.597656 C 489.136719 539.132812 486.15625 530.472656 485.902344 521.835938 C 485.542969 509.644531 490.773438 497.734375 498.65625 488.558594 C 506.542969 479.382812 516.921875 472.726562 527.808594 467.601562 C 548.855469 457.707031 572.339844 453.183594 595.527344 454.566406 C 611.351562 455.507812 631.738281 459.660156 643.871094 446.335938 C 653.925781 435.292969 646.984375 423.988281 645.753906 412.59375 C 644.941406 405.050781 647.203125 397.867188 656.089844 394.246094 C 658.09375 393.429688 659.289062 393.054688 659.6875 390.167969 C 660.015625 387.792969 658.132812 384.3125 656.007812 383.003906 C 658.882812 380.917969 661.53125 381.902344 664.011719 379.414062 C 665.289062 378.136719 665.566406 376.207031 664.761719 374.628906 C 663.375 371.917969 661.636719 369.183594 659.785156 366.460938 C 657.339844 362.867188 659.21875 357.96875 663.535156 356.742188 C 676.203125 353.148438 682.464844 348.386719 681.667969 340.925781 C 680.75 332.367188 659.355469 305.734375 650.308594 292.324219 " fill-opacity="1" fill-rule="nonzero"/><path fill="#004aad" d="M 363.515625 354.535156 C 366.589844 360.808594 363.996094 368.386719 357.726562 371.460938 C 351.453125 374.535156 343.875 371.941406 340.800781 365.667969 C 337.726562 359.398438 340.320312 351.816406 346.59375 348.746094 C 352.863281 345.671875 360.441406 348.261719 363.515625 354.535156 " fill-opacity="1" fill-rule="nonzero"/><path fill="#004aad" d="M 471.867188 230.335938 C 469.132812 224.761719 471.4375 218.023438 477.015625 215.289062 C 482.59375 212.558594 489.328125 214.863281 492.0625 220.4375 C 494.796875 226.015625 492.492188 232.753906 486.914062 235.488281 C 481.335938 238.222656 474.597656 235.917969 471.867188 230.335938 " fill-opacity="1" fill-rule="nonzero"/><path fill="#004aad" d="M 388.984375 213.476562 C 383.410156 216.210938 376.671875 213.90625 373.9375 208.328125 C 371.207031 202.753906 373.511719 196.015625 379.089844 193.28125 C 384.664062 190.550781 391.398438 192.855469 394.132812 198.433594 C 396.867188 204.007812 394.558594 210.746094 388.984375 213.476562 " fill-opacity="1" fill-rule="nonzero"/><path fill="#004aad" d="M 437.8125 247.023438 C 430.847656 250.441406 422.429688 247.558594 419.015625 240.59375 C 415.601562 233.625 418.480469 225.207031 425.445312 221.796875 C 432.414062 218.378906 440.832031 221.257812 444.246094 228.226562 C 447.660156 235.191406 444.78125 243.609375 437.8125 247.023438 " fill-opacity="1" fill-rule="nonzero"/><path fill="#004aad" d="M 318.285156 396.230469 C 327.238281 391.84375 338.007812 395.382812 342.660156 404.113281 L 411.625 372.253906 C 409.613281 367.148438 410.046875 361.605469 412.453125 357.019531 L 322.769531 303.09375 C 321.375 305.085938 319.46875 306.765625 317.128906 307.910156 C 309.738281 311.535156 300.804688 308.476562 297.179688 301.085938 C 293.558594 293.691406 296.617188 284.761719 304.007812 281.140625 C 311.402344 277.515625 320.332031 280.570312 323.957031 287.964844 C 326.097656 292.339844 325.902344 297.25 323.855469 301.285156 L 413.539062 355.210938 C 415.011719 353.042969 416.96875 351.175781 419.339844 349.773438 L 386.789062 286.746094 C 378.96875 290.164062 369.773438 286.847656 365.980469 279.105469 C 362.085938 271.152344 365.371094 261.542969 373.324219 257.644531 C 381.28125 253.746094 390.890625 257.035156 394.785156 264.992188 C 398.476562 272.523438 395.722656 281.539062 388.664062 285.78125 L 421.214844 348.804688 C 424.875 347.171875 428.804688 346.839844 432.46875 347.617188 L 447.46875 292.683594 C 442.21875 290.964844 437.644531 287.21875 435.027344 281.871094 C 432.367188 276.449219 432.242188 270.449219 434.179688 265.195312 L 326.585938 219.230469 C 324.902344 222.609375 322.136719 225.488281 318.480469 227.28125 C 309.636719 231.613281 298.953125 227.957031 294.617188 219.113281 C 290.28125 210.269531 293.9375 199.585938 302.785156 195.246094 C 311.628906 190.914062 322.3125 194.570312 326.648438 203.414062 C 328.859375 207.925781 328.988281 212.90625 327.414062 217.289062 L 435.007812 263.257812 C 437.003906 259.160156 440.324219 255.667969 444.730469 253.507812 C 448.078125 251.871094 451.648438 251.195312 455.121094 251.375 L 460.984375 192.796875 C 454.246094 191.777344 448.101562 187.585938 444.875 181 C 439.648438 170.34375 444.058594 157.464844 454.714844 152.246094 C 465.375 147.019531 478.25 151.429688 483.472656 162.085938 C 488.699219 172.746094 484.289062 185.617188 473.632812 190.84375 C 470.234375 192.507812 466.613281 193.191406 463.085938 193.007812 L 457.21875 251.585938 C 463.859375 252.59375 469.914062 256.726562 473.09375 263.214844 C 473.972656 265.011719 474.570312 266.871094 474.914062 268.742188 L 522.109375 262.539062 C 521.414062 253.992188 525.902344 245.496094 534.066406 241.496094 C 544.722656 236.273438 557.59375 240.679688 562.816406 251.335938 C 568.039062 261.992188 563.632812 274.859375 552.980469 280.082031 C 542.324219 285.300781 529.449219 280.898438 524.230469 270.242188 C 523.335938 268.417969 522.730469 266.535156 522.386719 264.628906 L 475.1875 270.828125 C 475.871094 279.257812 471.441406 287.632812 463.386719 291.578125 C 458.902344 293.773438 454.023438 294.238281 449.503906 293.242188 L 434.503906 348.171875 C 438.980469 349.675781 442.878906 352.898438 445.121094 357.476562 C 449.574219 366.5625 445.816406 377.539062 436.730469 381.988281 C 429.902344 385.339844 422.007812 384.046875 416.609375 379.34375 L 393.429688 402.984375 C 394.011719 403.671875 394.523438 404.445312 394.9375 405.292969 C 397.667969 410.871094 395.363281 417.609375 389.785156 420.339844 C 384.207031 423.074219 377.472656 420.769531 374.742188 415.191406 C 372.007812 409.613281 374.3125 402.878906 379.886719 400.144531 C 383.949219 398.15625 388.625 398.835938 391.921875 401.507812 L 415.109375 377.859375 C 414.113281 376.765625 413.238281 375.527344 412.511719 374.164062 L 343.546875 406.027344 C 347.046875 414.878906 343.207031 425.078125 334.511719 429.339844 C 325.367188 433.820312 314.324219 430.039062 309.84375 420.902344 C 305.363281 411.753906 309.144531 400.710938 318.285156 396.230469 " fill-opacity="1" fill-rule="nonzero"/><path fill="#004aad" d="M 383.316406 308.042969 C 385.542969 312.585938 383.667969 318.070312 379.125 320.296875 C 374.578125 322.523438 369.089844 320.644531 366.863281 316.101562 C 364.636719 311.558594 366.515625 306.070312 371.058594 303.84375 C 375.601562 301.617188 381.089844 303.496094 383.316406 308.042969 " fill-opacity="1" fill-rule="nonzero"/><path fill="#004aad" d="M 479.164062 316.878906 C 480.085938 323.023438 475.851562 328.75 469.710938 329.671875 C 463.566406 330.59375 457.839844 326.363281 456.917969 320.21875 C 455.996094 314.074219 460.226562 308.34375 466.371094 307.421875 C 472.515625 306.503906 478.246094 310.734375 479.164062 316.878906 " fill-opacity="1" fill-rule="nonzero"/><path fill="#004aad" d="M 533.226562 327.78125 C 534.679688 337.476562 527.996094 346.511719 518.300781 347.96875 C 508.609375 349.421875 499.574219 342.742188 498.117188 333.046875 C 496.664062 323.351562 503.339844 314.316406 513.035156 312.859375 C 522.730469 311.40625 531.769531 318.085938 533.226562 327.78125 " fill-opacity="1" fill-rule="nonzero"/><g clip-path="url(#e42ee22916)"><path fill="#004aad" d="M 648.867188 489.011719 C 676.839844 530.972656 686.023438 572.082031 670.332031 604.523438 C 634.933594 677.675781 486.398438 678.988281 338.574219 607.457031 C 190.742188 535.925781 99.601562 418.636719 135 345.484375 C 150.695312 313.046875 188.636719 294.734375 238.898438 290.636719 C 174.8125 291.457031 125.773438 311.507812 106.820312 350.671875 C 68.671875 429.511719 166.898438 555.914062 326.214844 633 C 485.523438 710.09375 645.597656 708.675781 683.746094 629.835938 C 702.699219 590.675781 687.992188 539.777344 648.867188 489.011719 " fill-opacity="1" fill-rule="nonzero"/></g><g mask="url(#46fae57dd8)"><g transform="matrix(1, 0, 0, 1, 73, 78)"><g clip-path="url(#05c6511739)"><path fill="#004aad" d="M 615.683594 211.492188 C 606.867188 198.429688 600.3125 184.097656 595.636719 169.023438 C 585.230469 135.457031 583.332031 103.542969 561.917969 74.289062 C 543.324219 48.882812 517.320312 29.230469 488.507812 17.371094 C 454.933594 3.550781 419.433594 0.226562 381.707031 2.460938 C 275.480469 8.746094 219.523438 69.59375 201.265625 100.097656 C 201.265625 100.097656 237.859375 45.929688 332.003906 33.859375 C 449.429688 18.804688 556.1875 103.863281 539.34375 217.667969 C 533.972656 253.976562 516.125 283.5 485.761719 303.4375 C 450.398438 326.660156 409.246094 337.644531 375.867188 364.589844 C 353.335938 382.777344 334.4375 406.316406 324.734375 433.855469 C 320.679688 445.367188 318.25 457.722656 319.808594 469.863281 C 321.484375 482.886719 327.777344 495.132812 336.773438 504.585938 C 354.859375 523.59375 384.21875 530.535156 408.632812 521.570312 C 420.601562 517.175781 432.019531 508.136719 434.53125 495.464844 C 436.394531 486.046875 433.078125 476.410156 432.796875 466.804688 C 432.398438 453.242188 438.214844 439.992188 446.984375 429.789062 C 455.757812 419.578125 467.304688 412.171875 479.414062 406.472656 C 502.824219 395.46875 528.953125 390.433594 554.742188 391.96875 C 572.347656 393.019531 595.027344 397.640625 608.523438 382.816406 C 619.710938 370.535156 611.984375 357.957031 610.617188 345.28125 C 609.714844 336.890625 612.230469 328.898438 622.117188 324.871094 C 624.34375 323.964844 625.675781 323.542969 626.121094 320.335938 C 626.484375 317.691406 624.386719 313.820312 622.023438 312.367188 C 625.222656 310.042969 628.167969 311.140625 630.929688 308.375 C 632.351562 306.953125 632.65625 304.804688 631.761719 303.046875 C 630.21875 300.03125 628.289062 296.988281 626.226562 293.964844 C 623.503906 289.964844 625.59375 284.515625 630.398438 283.152344 C 644.492188 279.152344 651.457031 273.855469 650.566406 265.554688 C 649.550781 256.035156 625.746094 226.40625 615.683594 211.492188 " fill-opacity="1" fill-rule="nonzero"/><path fill="#004aad" d="M 296.652344 280.695312 C 300.070312 287.671875 297.1875 296.105469 290.210938 299.523438 C 283.234375 302.945312 274.800781 300.058594 271.382812 293.082031 C 267.964844 286.105469 270.847656 277.671875 277.824219 274.253906 C 284.800781 270.835938 293.234375 273.71875 296.652344 280.695312 " fill-opacity="1" fill-rule="nonzero"/><path fill="#004aad" d="M 417.183594 142.535156 C 414.140625 136.332031 416.707031 128.839844 422.910156 125.796875 C 429.113281 122.757812 436.609375 125.324219 439.652344 131.523438 C 442.6875 137.726562 440.125 145.226562 433.921875 148.265625 C 427.714844 151.304688 420.222656 148.742188 417.183594 142.535156 " fill-opacity="1" fill-rule="nonzero"/><path fill="#004aad" d="M 324.984375 123.78125 C 318.78125 126.824219 311.285156 124.257812 308.246094 118.054688 C 305.207031 111.851562 307.769531 104.355469 313.972656 101.3125 C 320.179688 98.277344 327.667969 100.839844 330.710938 107.042969 C 333.753906 113.25 331.183594 120.742188 324.984375 123.78125 " fill-opacity="1" fill-rule="nonzero"/><path fill="#004aad" d="M 379.300781 161.101562 C 371.550781 164.898438 362.1875 161.695312 358.390625 153.945312 C 354.59375 146.195312 357.792969 136.832031 365.542969 133.035156 C 373.292969 129.234375 382.65625 132.4375 386.457031 140.1875 C 390.257812 147.9375 387.050781 157.300781 379.300781 161.101562 " fill-opacity="1" fill-rule="nonzero"/><path fill="#004aad" d="M 246.335938 327.078125 C 256.292969 322.199219 268.273438 326.136719 273.449219 335.847656 L 350.167969 300.40625 C 347.929688 294.730469 348.410156 288.558594 351.089844 283.457031 L 251.324219 223.46875 C 249.769531 225.6875 247.652344 227.558594 245.050781 228.832031 C 236.824219 232.863281 226.890625 229.460938 222.859375 221.234375 C 218.832031 213.011719 222.230469 203.078125 230.453125 199.050781 C 238.679688 195.015625 248.613281 198.414062 252.644531 206.640625 C 255.027344 211.507812 254.808594 216.96875 252.53125 221.457031 L 352.296875 281.445312 C 353.9375 279.039062 356.109375 276.957031 358.75 275.398438 L 322.539062 205.289062 C 313.84375 209.085938 303.613281 205.398438 299.394531 196.789062 C 295.058594 187.9375 298.714844 177.25 307.5625 172.914062 C 316.414062 168.574219 327.101562 172.234375 331.4375 181.085938 C 335.542969 189.464844 332.480469 199.492188 324.628906 204.210938 L 360.835938 274.320312 C 364.90625 272.507812 369.277344 272.132812 373.355469 273 L 390.042969 211.894531 C 384.203125 209.980469 379.113281 205.8125 376.199219 199.863281 C 373.246094 193.832031 373.105469 187.15625 375.261719 181.3125 L 255.570312 130.179688 C 253.699219 133.941406 250.621094 137.140625 246.554688 139.132812 C 236.714844 143.957031 224.828125 139.886719 220.007812 130.050781 C 215.183594 120.210938 219.25 108.328125 229.089844 103.5 C 238.933594 98.679688 250.816406 102.746094 255.636719 112.589844 C 258.097656 117.605469 258.238281 123.148438 256.492188 128.019531 L 376.179688 179.15625 C 378.398438 174.601562 382.09375 170.714844 386.996094 168.3125 C 390.71875 166.488281 394.6875 165.738281 398.554688 165.9375 L 405.078125 100.773438 C 397.578125 99.644531 390.746094 94.976562 387.15625 87.652344 C 381.34375 75.796875 386.246094 61.472656 398.105469 55.664062 C 409.960938 49.851562 424.28125 54.757812 430.09375 66.613281 C 435.90625 78.46875 431.003906 92.789062 419.144531 98.601562 C 415.367188 100.457031 411.335938 101.210938 407.414062 101.011719 L 400.886719 166.175781 C 408.273438 167.292969 415.011719 171.894531 418.546875 179.109375 C 419.527344 181.109375 420.191406 183.175781 420.570312 185.257812 L 473.074219 178.359375 C 472.300781 168.851562 477.292969 159.398438 486.375 154.949219 C 498.230469 149.136719 512.546875 154.042969 518.355469 165.894531 C 524.164062 177.746094 519.265625 192.0625 507.414062 197.871094 C 495.558594 203.679688 481.238281 198.78125 475.429688 186.929688 C 474.4375 184.898438 473.765625 182.800781 473.378906 180.683594 L 420.878906 187.582031 C 421.636719 196.953125 416.710938 206.269531 407.75 210.660156 C 402.761719 213.105469 397.335938 213.621094 392.304688 212.511719 L 375.617188 273.617188 C 380.597656 275.292969 384.933594 278.875 387.433594 283.96875 C 392.386719 294.078125 388.207031 306.285156 378.097656 311.238281 C 370.5 314.960938 361.71875 313.523438 355.714844 308.292969 L 329.925781 334.59375 C 330.574219 335.359375 331.140625 336.21875 331.605469 337.160156 C 334.644531 343.367188 332.078125 350.859375 325.875 353.898438 C 319.671875 356.941406 312.175781 354.375 309.136719 348.171875 C 306.097656 341.964844 308.660156 334.472656 314.863281 331.429688 C 319.382812 329.21875 324.585938 329.976562 328.25 332.949219 L 354.042969 306.644531 C 352.9375 305.425781 351.960938 304.050781 351.152344 302.53125 L 274.4375 337.976562 C 278.328125 347.824219 274.058594 359.167969 264.386719 363.910156 C 254.214844 368.894531 241.929688 364.691406 236.945312 354.523438 C 231.960938 344.347656 236.164062 332.0625 246.335938 327.078125 " fill-opacity="1" fill-rule="nonzero"/><path fill="#004aad" d="M 318.679688 228.976562 C 321.152344 234.03125 319.066406 240.132812 314.011719 242.609375 C 308.957031 245.085938 302.851562 242.996094 300.378906 237.941406 C 297.898438 232.886719 299.988281 226.785156 305.042969 224.304688 C 310.097656 221.832031 316.199219 223.921875 318.679688 228.976562 " fill-opacity="1" fill-rule="nonzero"/><path fill="#004aad" d="M 425.300781 238.808594 C 426.324219 245.640625 421.617188 252.011719 414.78125 253.039062 C 407.949219 254.066406 401.578125 249.355469 400.550781 242.523438 C 399.527344 235.683594 404.234375 229.3125 411.070312 228.289062 C 417.90625 227.265625 424.277344 231.96875 425.300781 238.808594 " fill-opacity="1" fill-rule="nonzero"/><path fill="#004aad" d="M 485.4375 250.933594 C 487.054688 261.71875 479.625 271.773438 468.839844 273.390625 C 458.058594 275.007812 448.003906 267.578125 446.382812 256.792969 C 444.765625 246.007812 452.195312 235.957031 462.980469 234.335938 C 473.765625 232.71875 483.820312 240.148438 485.4375 250.933594 " fill-opacity="1" fill-rule="nonzero"/><g clip-path="url(#ee52c64e47)"><path fill="#004aad" d="M 614.078125 430.292969 C 645.199219 476.96875 655.417969 522.703125 637.957031 558.789062 C 598.582031 640.164062 433.347656 641.625 268.90625 562.050781 C 104.457031 482.480469 3.070312 352.003906 42.449219 270.625 C 59.90625 234.542969 102.113281 214.171875 158.023438 209.617188 C 86.734375 210.523438 32.183594 232.832031 11.097656 276.398438 C -31.335938 364.101562 77.929688 504.714844 255.15625 590.46875 C 432.375 676.226562 610.441406 674.648438 652.882812 586.949219 C 673.964844 543.386719 657.601562 486.761719 614.078125 430.292969 " fill-opacity="1" fill-rule="nonzero"/></g></g></g></g></svg>