<svg xmlns="http://www.w3.org/2000/svg" xmlns:xlink="http://www.w3.org/1999/xlink" width="1080" zoomAndPan="magnify" viewBox="0 0 810 809.999993" height="1080" preserveAspectRatio="xMidYMid meet" version="1.0"><defs><g/><clipPath id="933a80806f"><path d="M 0 126.730469 L 810 126.730469 L 810 683.269531 L 0 683.269531 Z M 0 126.730469 " clip-rule="nonzero"/></clipPath><clipPath id="7fcdce92f0"><path d="M 405 126.730469 C 181.324219 126.730469 0 251.316406 0 405 C 0 558.683594 181.324219 683.269531 405 683.269531 C 628.675781 683.269531 810 558.683594 810 405 C 810 251.316406 628.675781 126.730469 405 126.730469 Z M 405 126.730469 " clip-rule="nonzero"/></clipPath><clipPath id="6b4cc34de7"><path d="M 271.0625 248.933594 L 538.792969 248.933594 L 538.792969 560.933594 L 271.0625 560.933594 Z M 271.0625 248.933594 " clip-rule="nonzero"/></clipPath><clipPath id="29801a0e87"><path d="M 86 401 L 137 401 L 137 452 L 86 452 Z M 86 401 " clip-rule="nonzero"/></clipPath><clipPath id="421b83e10e"><path d="M 85.878906 411.28125 L 131.320312 398.335938 L 144.265625 443.777344 L 98.824219 456.722656 Z M 85.878906 411.28125 " clip-rule="nonzero"/></clipPath><clipPath id="2dfdad53d4"><path d="M 85.878906 411.28125 L 131.320312 398.335938 L 144.265625 443.777344 L 98.824219 456.722656 Z M 85.878906 411.28125 " clip-rule="nonzero"/></clipPath><clipPath id="93be6d55dc"><path d="M 682 384 L 734 384 L 734 437 L 682 437 Z M 682 384 " clip-rule="nonzero"/></clipPath><clipPath id="f903be5c64"><path d="M 681.8125 394.828125 L 728.757812 381.691406 L 741.894531 428.636719 L 694.949219 441.773438 Z M 681.8125 394.828125 " clip-rule="nonzero"/></clipPath><clipPath id="038ad6d538"><path d="M 681.8125 394.828125 L 728.757812 381.691406 L 741.894531 428.636719 L 694.949219 441.773438 Z M 681.8125 394.828125 " clip-rule="nonzero"/></clipPath><clipPath id="258f59ea2c"><path d="M 138.84375 226.675781 L 671.34375 226.675781 L 671.34375 583.675781 L 138.84375 583.675781 Z M 138.84375 226.675781 " clip-rule="nonzero"/></clipPath></defs><g clip-path="url(#933a80806f)"><g clip-path="url(#7fcdce92f0)"><path fill="#0866ff" d="M 0 126.730469 L 810.898438 126.730469 L 810.898438 683.269531 L 0 683.269531 Z M 0 126.730469 " fill-opacity="1" fill-rule="nonzero"/></g></g><g clip-path="url(#6b4cc34de7)"><path fill="#ffffff" d="M 518.097656 373.917969 C 512.839844 366.128906 508.929688 357.585938 506.144531 348.597656 C 499.941406 328.589844 498.8125 309.566406 486.050781 292.128906 C 474.964844 276.984375 459.460938 265.269531 442.285156 258.199219 C 422.273438 249.960938 401.113281 247.980469 378.625 249.3125 C 315.300781 253.058594 281.945312 289.328125 271.0625 307.511719 C 271.0625 307.511719 292.875 275.222656 348.996094 268.027344 C 418.992188 259.054688 482.632812 309.757812 472.589844 377.597656 C 469.386719 399.238281 458.746094 416.839844 440.648438 428.722656 C 419.570312 442.566406 395.039062 449.113281 375.140625 465.175781 C 361.710938 476.019531 350.445312 490.050781 344.664062 506.464844 C 342.246094 513.328125 340.796875 520.695312 341.726562 527.929688 C 342.726562 535.691406 346.476562 542.992188 351.835938 548.628906 C 362.617188 559.957031 380.121094 564.09375 394.671875 558.75 C 401.808594 556.132812 408.613281 550.746094 410.109375 543.1875 C 411.222656 537.578125 409.246094 531.832031 409.078125 526.105469 C 408.839844 518.019531 412.304688 510.125 417.535156 504.039062 C 422.765625 497.957031 429.648438 493.539062 436.867188 490.144531 C 450.820312 483.582031 466.394531 480.582031 481.769531 481.496094 C 492.261719 482.121094 505.785156 484.875 513.828125 476.039062 C 520.496094 468.71875 515.890625 461.222656 515.078125 453.667969 C 514.539062 448.664062 516.039062 443.902344 521.929688 441.5 C 523.257812 440.960938 524.050781 440.710938 524.316406 438.796875 C 524.535156 437.222656 523.285156 434.910156 521.875 434.046875 C 523.78125 432.660156 525.539062 433.3125 527.183594 431.667969 C 528.03125 430.816406 528.214844 429.539062 527.679688 428.488281 C 526.761719 426.695312 525.609375 424.878906 524.382812 423.078125 C 522.757812 420.691406 524.007812 417.441406 526.867188 416.632812 C 535.269531 414.246094 539.421875 411.089844 538.890625 406.144531 C 538.285156 400.46875 524.09375 382.804688 518.097656 373.917969 " fill-opacity="1" fill-rule="nonzero"/></g><path fill="#ffffff" d="M 327.921875 415.167969 C 329.960938 419.328125 328.242188 424.351562 324.082031 426.390625 C 319.921875 428.429688 314.898438 426.710938 312.859375 422.550781 C 310.820312 418.390625 312.539062 413.363281 316.699219 411.328125 C 320.859375 409.289062 325.882812 411.007812 327.921875 415.167969 " fill-opacity="1" fill-rule="nonzero"/><path fill="#ffffff" d="M 399.769531 332.808594 C 397.957031 329.113281 399.488281 324.644531 403.183594 322.832031 C 406.882812 321.019531 411.351562 322.550781 413.160156 326.246094 C 414.972656 329.945312 413.445312 334.414062 409.75 336.226562 C 406.050781 338.039062 401.582031 336.507812 399.769531 332.808594 " fill-opacity="1" fill-rule="nonzero"/><path fill="#ffffff" d="M 344.8125 321.632812 C 341.113281 323.445312 336.644531 321.914062 334.832031 318.214844 C 333.019531 314.519531 334.550781 310.050781 338.246094 308.238281 C 341.945312 306.425781 346.414062 307.957031 348.226562 311.652344 C 350.039062 315.351562 348.507812 319.820312 344.8125 321.632812 " fill-opacity="1" fill-rule="nonzero"/><path fill="#ffffff" d="M 377.1875 343.875 C 372.570312 346.140625 366.988281 344.230469 364.722656 339.609375 C 362.460938 334.992188 364.371094 329.410156 368.988281 327.144531 C 373.609375 324.882812 379.191406 326.792969 381.453125 331.410156 C 383.71875 336.03125 381.808594 341.613281 377.1875 343.875 " fill-opacity="1" fill-rule="nonzero"/><path fill="#ffffff" d="M 297.929688 442.816406 C 303.867188 439.90625 311.007812 442.253906 314.09375 448.042969 L 359.824219 426.914062 C 358.488281 423.53125 358.773438 419.855469 360.371094 416.8125 L 300.902344 381.054688 C 299.976562 382.375 298.714844 383.492188 297.164062 384.25 C 292.261719 386.652344 286.339844 384.625 283.933594 379.722656 C 281.53125 374.820312 283.558594 368.898438 288.460938 366.496094 C 293.363281 364.09375 299.285156 366.121094 301.6875 371.023438 C 303.113281 373.925781 302.980469 377.179688 301.621094 379.855469 L 361.089844 415.613281 C 362.070312 414.179688 363.363281 412.9375 364.9375 412.007812 L 343.355469 370.21875 C 338.167969 372.480469 332.070312 370.28125 329.554688 365.148438 C 326.972656 359.875 329.152344 353.503906 334.425781 350.917969 C 339.699219 348.332031 346.074219 350.515625 348.660156 355.789062 C 351.105469 360.785156 349.277344 366.761719 344.597656 369.578125 L 366.183594 411.367188 C 368.609375 410.285156 371.214844 410.0625 373.644531 410.582031 L 383.59375 374.152344 C 380.113281 373.015625 377.078125 370.53125 375.339844 366.984375 C 373.578125 363.386719 373.496094 359.410156 374.78125 355.925781 L 303.433594 325.445312 C 302.316406 327.6875 300.484375 329.59375 298.058594 330.78125 C 292.195312 333.65625 285.109375 331.234375 282.234375 325.367188 C 279.359375 319.503906 281.785156 312.417969 287.648438 309.542969 C 293.515625 306.667969 300.597656 309.09375 303.472656 314.957031 C 304.941406 317.949219 305.023438 321.253906 303.984375 324.15625 L 375.328125 354.640625 C 376.652344 351.921875 378.851562 349.609375 381.777344 348.175781 C 383.996094 347.089844 386.363281 346.640625 388.664062 346.757812 L 392.554688 307.917969 C 388.085938 307.242188 384.011719 304.460938 381.871094 300.09375 C 378.40625 293.027344 381.328125 284.492188 388.398438 281.027344 C 395.464844 277.5625 404.003906 280.484375 407.464844 287.554688 C 410.929688 294.621094 408.007812 303.15625 400.941406 306.621094 C 398.6875 307.726562 396.285156 308.179688 393.945312 308.058594 L 390.054688 346.898438 C 394.460938 347.566406 398.476562 350.308594 400.585938 354.613281 C 401.167969 355.800781 401.5625 357.035156 401.789062 358.273438 L 433.085938 354.164062 C 432.625 348.496094 435.601562 342.863281 441.015625 340.210938 C 448.082031 336.746094 456.617188 339.667969 460.078125 346.734375 C 463.539062 353.800781 460.621094 362.332031 453.554688 365.796875 C 446.488281 369.257812 437.957031 366.339844 434.492188 359.273438 C 433.902344 358.066406 433.496094 356.8125 433.269531 355.550781 L 401.972656 359.660156 C 402.425781 365.25 399.488281 370.804688 394.148438 373.421875 C 391.175781 374.878906 387.941406 375.183594 384.941406 374.523438 L 374.996094 410.945312 C 377.964844 411.945312 380.546875 414.082031 382.035156 417.117188 C 384.988281 423.140625 382.496094 430.421875 376.472656 433.375 C 371.941406 435.59375 366.707031 434.734375 363.132812 431.613281 L 347.757812 447.292969 C 348.144531 447.753906 348.480469 448.261719 348.757812 448.824219 C 350.570312 452.523438 349.039062 456.992188 345.34375 458.804688 C 341.644531 460.617188 337.175781 459.085938 335.363281 455.386719 C 333.550781 451.691406 335.082031 447.222656 338.777344 445.410156 C 341.472656 444.089844 344.574219 444.546875 346.757812 446.316406 L 362.132812 430.632812 C 361.472656 429.90625 360.890625 429.089844 360.410156 428.183594 L 314.679688 449.3125 C 317 455.183594 314.457031 461.945312 308.6875 464.773438 C 302.628906 467.742188 295.304688 465.238281 292.332031 459.171875 C 289.363281 453.113281 291.867188 445.789062 297.929688 442.816406 " fill-opacity="1" fill-rule="nonzero"/><path fill="#ffffff" d="M 341.050781 384.335938 C 342.527344 387.347656 341.285156 390.988281 338.269531 392.464844 C 335.257812 393.941406 331.617188 392.695312 330.140625 389.683594 C 328.667969 386.671875 329.910156 383.03125 332.925781 381.554688 C 335.9375 380.078125 339.578125 381.324219 341.050781 384.335938 " fill-opacity="1" fill-rule="nonzero"/><path fill="#ffffff" d="M 404.609375 390.199219 C 405.21875 394.269531 402.414062 398.070312 398.339844 398.679688 C 394.265625 399.292969 390.46875 396.484375 389.855469 392.410156 C 389.246094 388.335938 392.054688 384.539062 396.128906 383.929688 C 400.199219 383.316406 404 386.125 404.609375 390.199219 " fill-opacity="1" fill-rule="nonzero"/><path fill="#ffffff" d="M 440.457031 397.425781 C 441.421875 403.855469 436.992188 409.847656 430.5625 410.8125 C 424.136719 411.777344 418.140625 407.347656 417.175781 400.917969 C 416.210938 394.488281 420.640625 388.496094 427.070312 387.53125 C 433.5 386.570312 439.492188 391 440.457031 397.425781 " fill-opacity="1" fill-rule="nonzero"/><g clip-path="url(#29801a0e87)"><g clip-path="url(#421b83e10e)"><g clip-path="url(#2dfdad53d4)"><path fill="#ffffff" d="M 129.097656 411.625 C 127.878906 411.929688 126.839844 412.566406 126.050781 413.414062 C 125.597656 413.902344 124.789062 413.714844 124.609375 413.074219 L 121.496094 402.078125 C 121.367188 401.628906 120.898438 401.367188 120.449219 401.496094 L 86.75 411.039062 C 86.296875 411.164062 86.035156 411.632812 86.164062 412.082031 L 95.703125 445.773438 C 95.832031 446.222656 96.300781 446.484375 96.75 446.359375 L 107.679688 443.261719 C 108.300781 443.089844 108.890625 443.640625 108.738281 444.269531 C 108.492188 445.273438 108.496094 446.355469 108.796875 447.421875 C 109.730469 450.722656 113.164062 452.636719 116.464844 451.703125 C 119.765625 450.769531 121.683594 447.335938 120.75 444.039062 C 120.445312 442.972656 119.882812 442.046875 119.148438 441.320312 C 118.691406 440.867188 118.902344 440.085938 119.519531 439.910156 L 130.449219 436.816406 C 130.902344 436.6875 131.164062 436.21875 131.035156 435.769531 L 127.902344 424.703125 C 127.722656 424.070312 128.304688 423.480469 128.9375 423.65625 C 130 423.949219 131.15625 423.964844 132.292969 423.640625 C 135.644531 422.6875 137.566406 419.15625 136.523438 415.808594 C 135.550781 412.6875 132.273438 410.839844 129.097656 411.625 " fill-opacity="1" fill-rule="nonzero"/></g></g></g><g clip-path="url(#93be6d55dc)"><g clip-path="url(#f903be5c64)"><g clip-path="url(#038ad6d538)"><path fill="#ffffff" d="M 689.921875 405.542969 C 688.664062 405.894531 687.597656 406.605469 686.808594 407.53125 C 686.355469 408.054688 685.5 407.863281 685.3125 407.199219 L 682.082031 395.714844 C 681.949219 395.253906 682.21875 394.773438 682.683594 394.644531 L 717.277344 384.902344 C 717.742188 384.773438 718.222656 385.039062 718.351562 385.503906 L 721.503906 396.707031 C 721.683594 397.34375 722.480469 397.550781 722.953125 397.085938 C 723.765625 396.289062 724.800781 395.699219 726 395.421875 C 729.242188 394.675781 732.550781 396.589844 733.523438 399.769531 C 734.570312 403.207031 732.582031 406.8125 729.140625 407.773438 C 728.066406 408.074219 726.984375 408.082031 725.972656 407.84375 C 725.332031 407.695312 724.769531 408.296875 724.945312 408.929688 L 728.082031 420.058594 C 728.210938 420.523438 727.941406 421 727.480469 421.132812 L 716.257812 424.289062 C 715.621094 424.46875 715.40625 425.269531 715.875 425.734375 C 716.628906 426.484375 717.203125 427.429688 717.511719 428.523438 C 718.464844 431.910156 716.492188 435.425781 713.101562 436.378906 C 709.714844 437.332031 706.195312 435.363281 705.242188 431.976562 C 704.933594 430.882812 704.933594 429.777344 705.183594 428.746094 C 705.34375 428.105469 704.738281 427.535156 704.101562 427.714844 L 692.882812 430.871094 C 692.421875 431.003906 691.941406 430.734375 691.808594 430.273438 L 688.578125 418.789062 C 688.390625 418.121094 689.019531 417.511719 689.679688 417.726562 C 690.835938 418.101562 692.113281 418.152344 693.371094 417.796875 C 696.761719 416.84375 698.734375 413.328125 697.78125 409.941406 C 696.828125 406.558594 693.308594 404.585938 689.921875 405.542969 " fill-opacity="1" fill-rule="nonzero"/></g></g></g><path stroke-linecap="butt" transform="matrix(0.75, 0, 0, 0.75, -166.784842, 305.688403)" fill="none" stroke-linejoin="miter" d="M -0.000419388 146.295678 L 236.317301 146.295678 C 265.036052 146.295678 288.317303 123.014427 288.317303 94.295676 L 288.317303 18.681089 C 288.317303 14.920672 289.806887 11.311297 292.468345 8.655046 C 295.129804 5.993588 298.733971 4.498796 302.494387 4.498796 C 306.254804 4.498796 309.86418 5.993588 312.52043 8.655046 C 315.181888 11.311297 316.671472 14.920672 316.671472 18.681089 L 316.671472 65.660258 C 316.671472 69.498799 318.197513 73.175883 320.911055 75.889425 C 323.624597 78.597758 327.30168 80.1238 331.135014 80.1238 C 334.973556 80.1238 338.650639 81.649842 341.364181 84.358175 C 344.077723 87.071717 345.598556 90.748801 345.598556 94.587342 L 345.598556 146.295678 " stroke="#ffffff" stroke-width="9" stroke-opacity="1" stroke-miterlimit="4"/><path stroke-linecap="butt" transform="matrix(0.75, 0, 0, 0.75, 690.632897, 342.361263)" fill="none" stroke-linejoin="miter" d="M 28.130097 58.789153 L 28.130097 16.315192 C 28.130097 13.179775 26.885306 10.174567 24.671764 7.961025 C 22.453014 5.747483 19.447805 4.497483 16.317597 4.497483 L 13.171763 4.497483 C 8.385305 4.497483 4.499888 8.3829 4.499888 13.174567 C 4.499888 17.966234 8.385305 21.846442 13.171763 21.846442 L 75.963433 21.846442 C 94.234267 21.846442 109.051976 36.658943 109.051976 54.934986 C 109.051976 73.20582 123.864477 88.018321 142.135311 88.018321 L 373.734281 88.018321 " stroke="#ffffff" stroke-width="9" stroke-opacity="1" stroke-miterlimit="4"/><g clip-path="url(#258f59ea2c)"><path fill="#ffffff" d="M 405 577.511719 C 261.527344 577.511719 144.808594 500.128906 144.808594 405.023438 C 144.808594 309.917969 261.527344 232.539062 405 232.539062 C 548.46875 232.539062 665.1875 309.917969 665.1875 405.023438 C 665.1875 500.128906 548.46875 577.511719 405 577.511719 Z M 405 226.691406 C 258.308594 226.691406 138.960938 306.691406 138.960938 405.023438 C 138.960938 503.363281 258.308594 583.359375 405 583.359375 C 551.691406 583.359375 671.035156 503.363281 671.035156 405.023438 C 671.035156 306.691406 551.691406 226.691406 405 226.691406 " fill-opacity="1" fill-rule="nonzero"/></g><g fill="#ffffff" fill-opacity="1"><g transform="translate(79.135526, 505.629551)"><g/></g></g><g fill="#ffffff" fill-opacity="1"><g transform="translate(85.038112, 512.245535)"><g><path d="M 24.703125 -13.953125 L 5.234375 5.296875 L 1.484375 1.5 L 28.359375 -25.078125 L 33.59375 -19.78125 L 21.78125 0.46875 L 37.875 -15.4375 L 41.609375 -11.671875 L 14.734375 14.90625 L 10.4375 10.5625 Z M 24.703125 -13.953125 "/></g></g></g><g fill="#ffffff" fill-opacity="1"><g transform="translate(101.761723, 529.080765)"><g><path d="M 20.734375 -10.671875 L 26.765625 -5.171875 L 23.109375 -1.1875 L 17.078125 -6.6875 L 9.609375 1.484375 L 17.1875 8.40625 L 13.546875 12.390625 L 1.59375 1.453125 L 27.09375 -26.4375 L 39.046875 -15.5 L 35.421875 -11.53125 L 27.84375 -18.453125 Z M 20.734375 -10.671875 "/></g></g></g><g fill="#ffffff" fill-opacity="1"><g transform="translate(116.903151, 542.931586)"><g><path d="M 30.15625 -24.09375 L 11.546875 -1.65625 C 10.671875 -0.601562 10.273438 0.304688 10.359375 1.078125 C 10.441406 1.847656 10.84375 2.53125 11.5625 3.125 C 12.289062 3.726562 13.039062 4 13.8125 3.9375 C 14.582031 3.875 15.40625 3.316406 16.28125 2.265625 L 34.890625 -20.171875 L 39.21875 -16.578125 L 20.84375 5.578125 C 18.894531 7.929688 16.820312 9.257812 14.625 9.5625 C 12.425781 9.875 10.207031 9.097656 7.96875 7.234375 C 5.71875 5.367188 4.539062 3.328125 4.4375 1.109375 C 4.332031 -1.097656 5.253906 -3.378906 7.203125 -5.734375 L 25.578125 -27.890625 Z M 30.15625 -24.09375 "/></g></g></g><g fill="#ffffff" fill-opacity="1"><g transform="translate(133.981154, 557.065921)"><g><path d="M 11.6875 8.71875 C 11.769531 8.476562 11.847656 8.25 11.921875 8.03125 C 11.992188 7.8125 12.109375 7.554688 12.265625 7.265625 C 12.421875 6.972656 12.640625 6.617188 12.921875 6.203125 C 13.210938 5.796875 13.582031 5.289062 14.03125 4.6875 L 17.578125 -0.0625 C 18.640625 -1.488281 19.140625 -2.671875 19.078125 -3.609375 C 19.015625 -4.554688 18.4375 -5.4375 17.34375 -6.25 L 15.6875 -7.484375 L 6.484375 4.84375 L 1.734375 1.296875 L 24.34375 -28.984375 L 31.53125 -23.625 C 34 -21.769531 35.359375 -19.851562 35.609375 -17.875 C 35.867188 -15.894531 35.128906 -13.738281 33.390625 -11.40625 L 31.609375 -9.03125 C 29.273438 -5.90625 26.703125 -4.628906 23.890625 -5.203125 C 24.742188 -3.804688 24.976562 -2.382812 24.59375 -0.9375 C 24.21875 0.5 23.4375 2.015625 22.25 3.609375 L 18.765625 8.265625 C 18.203125 9.023438 17.738281 9.707031 17.375 10.3125 C 17.007812 10.925781 16.726562 11.601562 16.53125 12.34375 Z M 25.875 -21.125 L 18.921875 -11.8125 L 20.78125 -10.421875 C 21.675781 -9.753906 22.546875 -9.460938 23.390625 -9.546875 C 24.242188 -9.640625 25.125 -10.289062 26.03125 -11.5 L 28.265625 -14.484375 C 29.078125 -15.578125 29.472656 -16.515625 29.453125 -17.296875 C 29.441406 -18.078125 29.015625 -18.78125 28.171875 -19.40625 Z M 25.875 -21.125 "/></g></g></g><g fill="#ffffff" fill-opacity="1"><g transform="translate(151.928498, 570.442049)"><g><path d="M 11.15625 -2.984375 C 10.394531 -1.847656 10.085938 -0.890625 10.234375 -0.109375 C 10.390625 0.660156 10.859375 1.304688 11.640625 1.828125 C 12.421875 2.347656 13.195312 2.53125 13.96875 2.375 C 14.75 2.226562 15.519531 1.585938 16.28125 0.453125 L 27.65625 -16.5 C 28.414062 -17.632812 28.71875 -18.585938 28.5625 -19.359375 C 28.40625 -20.140625 27.9375 -20.789062 27.15625 -21.3125 C 26.375 -21.832031 25.597656 -22.015625 24.828125 -21.859375 C 24.054688 -21.710938 23.289062 -21.070312 22.53125 -19.9375 Z M 17.390625 -22.921875 C 19.097656 -25.460938 21.050781 -26.984375 23.25 -27.484375 C 25.445312 -27.984375 27.753906 -27.421875 30.171875 -25.796875 C 32.597656 -24.171875 33.992188 -22.25 34.359375 -20.03125 C 34.734375 -17.8125 34.066406 -15.429688 32.359375 -12.890625 L 21.421875 3.421875 C 19.710938 5.972656 17.757812 7.5 15.5625 8 C 13.363281 8.5 11.050781 7.9375 8.625 6.3125 C 6.207031 4.6875 4.8125 2.765625 4.4375 0.546875 C 4.070312 -1.671875 4.742188 -4.054688 6.453125 -6.609375 Z M 17.390625 -22.921875 "/></g></g></g><g fill="#ffffff" fill-opacity="1"><g transform="translate(170.246454, 582.694657)"><g><path d="M 28.828125 -26.765625 C 31.390625 -25.222656 32.890625 -23.394531 33.328125 -21.28125 C 33.765625 -19.175781 33.191406 -16.8125 31.609375 -14.1875 L 29.078125 -9.984375 C 27.492188 -7.359375 25.671875 -5.742188 23.609375 -5.140625 C 21.546875 -4.535156 19.234375 -5.003906 16.671875 -6.546875 L 14.265625 -8 L 6.9375 4.171875 L 1.84375 1.109375 L 21.328125 -31.28125 Z M 23.640625 -23.59375 L 17.046875 -12.625 L 19.453125 -11.171875 C 20.253906 -10.691406 21 -10.535156 21.6875 -10.703125 C 22.382812 -10.878906 23.085938 -11.554688 23.796875 -12.734375 L 26.71875 -17.59375 C 27.414062 -18.757812 27.675781 -19.6875 27.5 -20.375 C 27.332031 -21.070312 26.847656 -21.660156 26.046875 -22.140625 Z M 23.640625 -23.59375 "/></g></g></g><g fill="#ffffff" fill-opacity="1"><g transform="translate(188.242868, 593.502473)"><g><path d="M 14.859375 -24.625 C 16.304688 -27.3125 18.0625 -29.03125 20.125 -29.78125 C 22.195312 -30.539062 24.515625 -30.226562 27.078125 -28.84375 C 29.648438 -27.457031 31.1875 -25.695312 31.6875 -23.5625 C 32.1875 -21.425781 31.710938 -19.015625 30.265625 -16.328125 L 29.578125 -15.03125 L 24.625 -17.703125 L 25.5 -19.328125 C 26.144531 -20.523438 26.367188 -21.492188 26.171875 -22.234375 C 25.972656 -22.972656 25.460938 -23.566406 24.640625 -24.015625 C 23.816406 -24.460938 23.046875 -24.5625 22.328125 -24.3125 C 21.609375 -24.0625 20.925781 -23.335938 20.28125 -22.140625 C 19.65625 -20.992188 19.359375 -19.847656 19.390625 -18.703125 C 19.429688 -17.554688 19.625 -16.390625 19.96875 -15.203125 C 20.3125 -14.023438 20.710938 -12.8125 21.171875 -11.5625 C 21.628906 -10.320312 21.988281 -9.035156 22.25 -7.703125 C 22.507812 -6.367188 22.578125 -4.976562 22.453125 -3.53125 C 22.328125 -2.09375 21.84375 -0.582031 21 1 C 19.539062 3.6875 17.765625 5.398438 15.671875 6.140625 C 13.578125 6.878906 11.25 6.554688 8.6875 5.171875 C 6.113281 3.796875 4.554688 2.03125 4.015625 -0.125 C 3.484375 -2.289062 3.945312 -4.71875 5.40625 -7.40625 L 6.625 -9.6875 L 11.5625 -7.015625 L 10.15625 -4.390625 C 9.507812 -3.191406 9.300781 -2.222656 9.53125 -1.484375 C 9.769531 -0.742188 10.300781 -0.148438 11.125 0.296875 C 11.945312 0.734375 12.734375 0.847656 13.484375 0.640625 C 14.234375 0.429688 14.929688 -0.269531 15.578125 -1.46875 C 16.191406 -2.625 16.476562 -3.773438 16.4375 -4.921875 C 16.40625 -6.066406 16.210938 -7.226562 15.859375 -8.40625 C 15.515625 -9.59375 15.117188 -10.804688 14.671875 -12.046875 C 14.222656 -13.296875 13.863281 -14.582031 13.59375 -15.90625 C 13.332031 -17.238281 13.265625 -18.628906 13.390625 -20.078125 C 13.515625 -21.523438 14.003906 -23.039062 14.859375 -24.625 Z M 14.859375 -24.625 "/></g></g></g><g fill="#ffffff" fill-opacity="1"><g transform="translate(206.59738, 603.389624)"><g><path d="M 12.359375 -7.984375 L 16.484375 -34.015625 L 22.078125 -31.34375 L 18.765625 -13.859375 L 30.265625 -27.4375 L 35.390625 -24.984375 L 17.71875 -5.4375 L 12.328125 5.875 L 6.96875 3.328125 Z M 12.359375 -7.984375 "/></g></g></g><g fill="#ffffff" fill-opacity="1"><g transform="translate(226.502961, 612.864159)"><g><path d="M 23.328125 -5.53125 L 21.390625 -0.90625 C 20.210938 1.914062 18.613281 3.796875 16.59375 4.734375 C 14.582031 5.679688 12.234375 5.59375 9.546875 4.46875 C 6.859375 3.34375 5.140625 1.734375 4.390625 -0.359375 C 3.648438 -2.453125 3.867188 -4.910156 5.046875 -7.734375 L 12.625 -25.875 C 13.800781 -28.6875 15.394531 -30.5625 17.40625 -31.5 C 19.414062 -32.4375 21.765625 -32.34375 24.453125 -31.21875 C 27.140625 -30.09375 28.859375 -28.484375 29.609375 -26.390625 C 30.359375 -24.304688 30.144531 -21.859375 28.96875 -19.046875 L 27.546875 -15.65625 L 22.359375 -17.8125 L 23.921875 -21.546875 C 24.453125 -22.804688 24.566406 -23.800781 24.265625 -24.53125 C 23.960938 -25.269531 23.378906 -25.816406 22.515625 -26.171875 C 21.648438 -26.535156 20.851562 -26.566406 20.125 -26.265625 C 19.394531 -25.960938 18.765625 -25.179688 18.234375 -23.921875 L 10.359375 -5.078125 C 9.835938 -3.816406 9.726562 -2.828125 10.03125 -2.109375 C 10.34375 -1.398438 10.929688 -0.863281 11.796875 -0.5 C 12.660156 -0.144531 13.453125 -0.109375 14.171875 -0.390625 C 14.898438 -0.671875 15.523438 -1.441406 16.046875 -2.703125 L 18.140625 -7.6875 Z M 23.328125 -5.53125 "/></g></g></g><g fill="#ffffff" fill-opacity="1"><g transform="translate(246.368034, 621.174121)"><g><path d="M 7.625 2.734375 L 2.03125 0.734375 L 14.78125 -34.84375 L 20.375 -32.84375 L 14.90625 -17.59375 L 21.25 -15.3125 L 26.71875 -30.5625 L 32.421875 -28.53125 L 19.671875 7.046875 L 13.96875 5.015625 L 19.4375 -10.234375 L 13.09375 -12.515625 Z M 7.625 2.734375 "/></g></g></g><g fill="#ffffff" fill-opacity="1"><g transform="translate(268.742601, 629.151432)"><g><path d="M 9.78125 -6.125 C 9.382812 -4.820312 9.375 -3.820312 9.75 -3.125 C 10.132812 -2.4375 10.773438 -1.957031 11.671875 -1.6875 C 12.566406 -1.414062 13.359375 -1.460938 14.046875 -1.828125 C 14.742188 -2.203125 15.289062 -3.039062 15.6875 -4.34375 L 21.5625 -23.90625 C 21.957031 -25.21875 21.96875 -26.21875 21.59375 -26.90625 C 21.21875 -27.601562 20.582031 -28.085938 19.6875 -28.359375 C 18.789062 -28.628906 17.992188 -28.578125 17.296875 -28.203125 C 16.597656 -27.835938 16.050781 -27 15.65625 -25.6875 Z M 9.859375 -27.03125 C 10.742188 -29.957031 12.160156 -31.984375 14.109375 -33.109375 C 16.066406 -34.234375 18.441406 -34.375 21.234375 -33.53125 C 24.023438 -32.695312 25.925781 -31.269531 26.9375 -29.25 C 27.957031 -27.238281 28.023438 -24.769531 27.140625 -21.84375 L 21.484375 -3.015625 C 20.609375 -0.0859375 19.191406 1.9375 17.234375 3.0625 C 15.273438 4.1875 12.898438 4.332031 10.109375 3.5 C 7.316406 2.65625 5.414062 1.226562 4.40625 -0.78125 C 3.394531 -2.800781 3.328125 -5.273438 4.203125 -8.203125 Z M 9.859375 -27.03125 "/></g></g></g><g fill="#ffffff" fill-opacity="1"><g transform="translate(289.831411, 635.439177)"><g><path d="M 11.265625 -36.140625 L 17.03125 -34.703125 L 9.171875 -3.28125 L 18.65625 -0.90625 L 17.34375 4.34375 L 2.09375 0.53125 Z M 11.265625 -36.140625 "/></g></g></g><g fill="#ffffff" fill-opacity="1"><g transform="translate(308.295336, 640.07991)"><g><path d="M 9.171875 -7.015625 C 8.898438 -5.679688 8.984375 -4.6875 9.421875 -4.03125 C 9.859375 -3.375 10.539062 -2.953125 11.46875 -2.765625 C 12.382812 -2.578125 13.171875 -2.703125 13.828125 -3.140625 C 14.484375 -3.578125 14.945312 -4.460938 15.21875 -5.796875 L 19.234375 -25.8125 C 19.503906 -27.15625 19.421875 -28.15625 18.984375 -28.8125 C 18.546875 -29.46875 17.867188 -29.890625 16.953125 -30.078125 C 16.023438 -30.265625 15.234375 -30.140625 14.578125 -29.703125 C 13.921875 -29.265625 13.457031 -28.375 13.1875 -27.03125 Z M 7.3125 -27.84375 C 7.90625 -30.832031 9.117188 -32.976562 10.953125 -34.28125 C 12.796875 -35.582031 15.148438 -35.945312 18.015625 -35.375 C 20.867188 -34.800781 22.890625 -33.554688 24.078125 -31.640625 C 25.273438 -29.722656 25.578125 -27.269531 24.984375 -24.28125 L 21.109375 -5.015625 C 20.503906 -2.003906 19.28125 0.144531 17.4375 1.4375 C 15.59375 2.738281 13.242188 3.101562 10.390625 2.53125 C 7.523438 1.957031 5.5 0.71875 4.3125 -1.1875 C 3.125 -3.101562 2.832031 -5.566406 3.4375 -8.578125 Z M 7.3125 -27.84375 "/></g></g></g><g fill="#ffffff" fill-opacity="1"><g transform="translate(329.915389, 644.407851)"><g><path d="M 14.0625 -19.1875 L 22.296875 -17.953125 L 20.515625 -6.109375 C 20.066406 -3.078125 18.976562 -0.863281 17.25 0.53125 C 15.53125 1.9375 13.234375 2.425781 10.359375 2 C 7.472656 1.5625 5.410156 0.421875 4.171875 -1.421875 C 2.941406 -3.265625 2.550781 -5.703125 3 -8.734375 L 5.90625 -28.171875 C 6.363281 -31.179688 7.453125 -33.390625 9.171875 -34.796875 C 10.890625 -36.203125 13.191406 -36.6875 16.078125 -36.25 C 18.953125 -35.820312 21.007812 -34.679688 22.25 -32.828125 C 23.488281 -30.984375 23.878906 -28.554688 23.421875 -25.546875 L 22.890625 -21.90625 L 17.328125 -22.75 L 17.921875 -26.75 C 18.117188 -28.101562 17.984375 -29.09375 17.515625 -29.71875 C 17.046875 -30.351562 16.347656 -30.742188 15.421875 -30.890625 C 14.492188 -31.023438 13.710938 -30.859375 13.078125 -30.390625 C 12.453125 -29.921875 12.039062 -29.007812 11.84375 -27.65625 L 8.8125 -7.46875 C 8.613281 -6.113281 8.75 -5.125 9.21875 -4.5 C 9.6875 -3.882812 10.382812 -3.507812 11.3125 -3.375 C 12.238281 -3.226562 13.015625 -3.382812 13.640625 -3.84375 C 14.273438 -4.300781 14.691406 -5.207031 14.890625 -6.5625 L 15.921875 -13.453125 L 13.25 -13.84375 Z M 14.0625 -19.1875 "/></g></g></g><g fill="#ffffff" fill-opacity="1"><g transform="translate(351.240245, 647.491443)"><g><path d="M 6.359375 -37.328125 L 12.265625 -36.65625 L 8.046875 0.90625 L 2.140625 0.234375 Z M 6.359375 -37.328125 "/></g></g></g><g fill="#ffffff" fill-opacity="1"><g transform="translate(361.902617, 648.76994)"><g><path d="M 3.59375 -28.546875 C 3.820312 -31.585938 4.722656 -33.867188 6.296875 -35.390625 C 7.878906 -36.921875 10.125 -37.578125 13.03125 -37.359375 C 15.9375 -37.128906 18.050781 -36.140625 19.375 -34.390625 C 20.707031 -32.648438 21.257812 -30.257812 21.03125 -27.21875 L 20.921875 -25.75 L 15.328125 -26.171875 L 15.46875 -28.015625 C 15.570312 -29.367188 15.382812 -30.34375 14.90625 -30.9375 C 14.425781 -31.539062 13.71875 -31.878906 12.78125 -31.953125 C 11.84375 -32.023438 11.09375 -31.800781 10.53125 -31.28125 C 9.976562 -30.757812 9.648438 -29.820312 9.546875 -28.46875 C 9.441406 -27.164062 9.640625 -26 10.140625 -24.96875 C 10.640625 -23.945312 11.285156 -22.960938 12.078125 -22.015625 C 12.867188 -21.066406 13.722656 -20.113281 14.640625 -19.15625 C 15.566406 -18.207031 16.421875 -17.175781 17.203125 -16.0625 C 17.984375 -14.957031 18.609375 -13.71875 19.078125 -12.34375 C 19.546875 -10.976562 19.710938 -9.398438 19.578125 -7.609375 C 19.347656 -4.554688 18.425781 -2.269531 16.8125 -0.75 C 15.195312 0.769531 12.9375 1.421875 10.03125 1.203125 C 7.125 0.984375 4.988281 0 3.625 -1.75 C 2.257812 -3.5 1.691406 -5.898438 1.921875 -8.953125 L 2.125 -11.53125 L 7.734375 -11.109375 L 7.5 -8.140625 C 7.394531 -6.785156 7.597656 -5.8125 8.109375 -5.21875 C 8.617188 -4.632812 9.34375 -4.3125 10.28125 -4.25 C 11.21875 -4.175781 11.984375 -4.390625 12.578125 -4.890625 C 13.179688 -5.390625 13.535156 -6.316406 13.640625 -7.671875 C 13.742188 -8.972656 13.539062 -10.132812 13.03125 -11.15625 C 12.53125 -12.1875 11.878906 -13.175781 11.078125 -14.125 C 10.285156 -15.070312 9.429688 -16.019531 8.515625 -16.96875 C 7.597656 -17.925781 6.742188 -18.957031 5.953125 -20.0625 C 5.171875 -21.175781 4.546875 -22.414062 4.078125 -23.78125 C 3.617188 -25.15625 3.457031 -26.742188 3.59375 -28.546875 Z M 3.59375 -28.546875 "/></g></g></g><g fill="#ffffff" fill-opacity="1"><g transform="translate(382.660433, 650.329515)"><g><path d="M 1.65625 -37.765625 L 20 -37.21875 L 19.84375 -31.828125 L 13.640625 -32.015625 L 12.6875 0.375 L 6.75 0.203125 L 7.703125 -32.1875 L 1.5 -32.375 Z M 1.65625 -37.765625 "/></g></g></g><g fill="#ffffff" fill-opacity="1"><g transform="translate(402.526195, 650.819288)"><g/></g></g><g fill="#ffffff" fill-opacity="1"><g transform="translate(411.380358, 650.909324)"><g><path d="M 1.75 -12.125 C 1.675781 -14.0625 1.925781 -15.71875 2.5 -17.09375 C 3.070312 -18.46875 4.082031 -19.507812 5.53125 -20.21875 C 2.757812 -21.257812 1.289062 -23.796875 1.125 -27.828125 L 1.109375 -28.53125 C 0.984375 -31.582031 1.617188 -33.925781 3.015625 -35.5625 C 4.410156 -37.207031 6.59375 -38.085938 9.5625 -38.203125 L 16.375 -38.46875 L 16.59375 -33.078125 L 9.890625 -32.8125 C 8.972656 -32.78125 8.253906 -32.476562 7.734375 -31.90625 C 7.210938 -31.34375 6.976562 -30.382812 7.03125 -29.03125 L 7.125 -26.703125 C 7.175781 -25.191406 7.523438 -24.160156 8.171875 -23.609375 C 8.828125 -23.054688 9.710938 -22.800781 10.828125 -22.84375 L 13.421875 -22.953125 L 13.25 -27.171875 L 19.1875 -27.40625 L 19.359375 -23.1875 L 20.921875 -23.25 L 21.125 -17.859375 L 19.5625 -17.796875 L 20.046875 -5.390625 C 20.085938 -4.453125 20.15625 -3.628906 20.25 -2.921875 C 20.351562 -2.222656 20.5625 -1.519531 20.875 -0.8125 L 14.828125 -0.578125 C 14.679688 -0.972656 14.5625 -1.359375 14.46875 -1.734375 C 14.382812 -2.109375 14.289062 -2.707031 14.1875 -3.53125 C 13.226562 -1.21875 11.4375 -0.0078125 8.8125 0.09375 C 6.625 0.175781 4.953125 -0.5 3.796875 -1.9375 C 2.640625 -3.375 2.003906 -5.492188 1.890625 -8.296875 Z M 7.8125 -9 C 7.863281 -7.632812 8.179688 -6.6875 8.765625 -6.15625 C 9.347656 -5.625 10.101562 -5.375 11.03125 -5.40625 C 11.925781 -5.445312 12.632812 -5.726562 13.15625 -6.25 C 13.675781 -6.78125 13.945312 -7.640625 13.96875 -8.828125 L 13.625 -17.5625 L 11.359375 -17.46875 C 9.992188 -17.414062 9.019531 -17.015625 8.4375 -16.265625 C 7.863281 -15.515625 7.609375 -14.257812 7.671875 -12.5 Z M 7.8125 -9 "/></g></g></g><g fill="#ffffff" fill-opacity="1"><g transform="translate(434.1898, 649.880319)"><g/></g></g><g fill="#ffffff" fill-opacity="1"><g transform="translate(442.978008, 649.300851)"><g><path d="M -3.53125 -37.640625 L 14.71875 -39.609375 L 15.3125 -34.25 L 9.125 -33.578125 L 12.609375 -1.359375 L 6.703125 -0.734375 L 3.21875 -32.953125 L -2.9375 -32.28125 Z M -3.53125 -37.640625 "/></g></g></g><g fill="#ffffff" fill-opacity="1"><g transform="translate(462.94788, 647.149421)"><g><path d="M 14.40625 -2.265625 C 14.289062 -2.503906 14.179688 -2.722656 14.078125 -2.921875 C 13.972656 -3.128906 13.867188 -3.382812 13.765625 -3.6875 C 13.660156 -4 13.5625 -4.40625 13.46875 -4.90625 C 13.375 -5.40625 13.269531 -6.023438 13.15625 -6.765625 L 12.234375 -12.640625 C 11.953125 -14.390625 11.453125 -15.570312 10.734375 -16.1875 C 10.015625 -16.800781 8.984375 -17 7.640625 -16.78125 L 5.609375 -16.46875 L 8 -1.265625 L 2.125 -0.328125 L -3.75 -37.671875 L 5.109375 -39.078125 C 8.171875 -39.554688 10.492188 -39.191406 12.078125 -37.984375 C 13.671875 -36.773438 14.691406 -34.726562 15.140625 -31.84375 L 15.609375 -28.921875 C 16.210938 -25.066406 15.328125 -22.34375 12.953125 -20.75 C 14.554688 -20.363281 15.738281 -19.53125 16.5 -18.25 C 17.269531 -16.976562 17.804688 -15.363281 18.109375 -13.40625 L 19.015625 -7.640625 C 19.160156 -6.722656 19.320312 -5.921875 19.5 -5.234375 C 19.6875 -4.546875 19.976562 -3.867188 20.375 -3.203125 Z M 2.953125 -33.28125 L 4.765625 -21.8125 L 7.0625 -22.171875 C 8.164062 -22.335938 8.984375 -22.75 9.515625 -23.40625 C 10.046875 -24.070312 10.191406 -25.15625 9.953125 -26.65625 L 9.375 -30.34375 C 9.164062 -31.6875 8.769531 -32.625 8.1875 -33.15625 C 7.613281 -33.695312 6.8125 -33.882812 5.78125 -33.71875 Z M 2.953125 -33.28125 "/></g></g></g><g fill="#ffffff" fill-opacity="1"><g transform="translate(485.065843, 643.650931)"><g><path d="M 20.9375 -4.40625 L 15.0625 -3.171875 L 12.640625 -9.671875 L 5.515625 -8.171875 L 5.921875 -1.25 L 0.578125 -0.125 L -1.28125 -38.359375 L 7.234375 -40.140625 Z M 5.1875 -13.34375 L 10.78125 -14.53125 L 4.046875 -32.640625 Z M 5.1875 -13.34375 "/></g></g></g><g fill="#ffffff" fill-opacity="1"><g transform="translate(507.233748, 638.957851)"><g><path d="M -2.109375 -38.546875 L 5.359375 -10.359375 C 5.703125 -9.035156 6.210938 -8.179688 6.890625 -7.796875 C 7.578125 -7.410156 8.375 -7.335938 9.28125 -7.578125 C 10.1875 -7.828125 10.835938 -8.285156 11.234375 -8.953125 C 11.628906 -9.617188 11.65625 -10.613281 11.3125 -11.9375 L 3.84375 -40.125 L 9.28125 -41.5625 L 16.640625 -13.734375 C 17.429688 -10.773438 17.3125 -8.3125 16.28125 -6.34375 C 15.257812 -4.382812 13.335938 -3.03125 10.515625 -2.28125 C 7.691406 -1.53125 5.347656 -1.753906 3.484375 -2.953125 C 1.628906 -4.160156 0.304688 -6.242188 -0.484375 -9.203125 L -7.84375 -37.03125 Z M -2.109375 -38.546875 "/></g></g></g><g fill="#ffffff" fill-opacity="1"><g transform="translate(528.80868, 633.345282)"><g><path d="M 10.5625 -15.03125 L 6.03125 -41.78125 L 13.859375 -44.359375 L 25.6875 -8.453125 L 20.359375 -6.703125 L 11.875 -32.453125 L 16.453125 -5.421875 L 11.125 -3.671875 L -1.421875 -27.671875 L 6.9375 -2.28125 L 2 -0.65625 L -9.828125 -36.5625 L -1.96875 -39.15625 Z M 10.5625 -15.03125 "/></g></g></g><g fill="#ffffff" fill-opacity="1"><g transform="translate(557.275439, 623.831143)"><g><path d="M 19.875 -7.90625 L 14.296875 -5.6875 L 10.8125 -11.671875 L 4.046875 -8.984375 L 5.625 -2.234375 L 0.546875 -0.21875 L -7.78125 -37.578125 L 0.3125 -40.796875 Z M 2.859375 -14.03125 L 8.171875 -16.140625 L -1.546875 -32.859375 Z M 2.859375 -14.03125 "/></g></g></g><g fill="#ffffff" fill-opacity="1"><g transform="translate(578.089065, 615.420216)"><g/></g></g><g fill="#ffffff" fill-opacity="1"><g transform="translate(586.185516, 611.953405)"><g><path d="M -15.828125 -34.328125 L 0.71875 -42.265625 L 3.046875 -37.40625 L -2.5625 -34.71875 L 11.4375 -5.484375 L 6.09375 -2.921875 L -7.90625 -32.15625 L -13.5 -29.46875 Z M -15.828125 -34.328125 "/></g></g></g><g fill="#ffffff" fill-opacity="1"><g transform="translate(604.33375, 603.296249)"><g><path d="M 7.109375 -3.859375 L 1.890625 -1.03125 L -16.109375 -34.265625 L -10.890625 -37.09375 L -3.171875 -22.84375 L 2.765625 -26.0625 L -4.953125 -40.3125 L 0.375 -43.1875 L 18.375 -9.953125 L 13.046875 -7.078125 L 5.328125 -21.328125 L -0.609375 -18.109375 Z M 7.109375 -3.859375 "/></g></g></g><g fill="#ffffff" fill-opacity="1"><g transform="translate(625.171044, 591.94271)"><g><path d="M -4.46875 -22.890625 L 2.5 -27.140625 L 5.3125 -22.515625 L -1.65625 -18.265625 L 4.09375 -8.828125 L 12.875 -14.171875 L 15.6875 -9.546875 L 1.84375 -1.125 L -17.8125 -33.40625 L -3.96875 -41.828125 L -1.171875 -37.21875 L -9.953125 -31.875 Z M -4.46875 -22.890625 "/></g></g></g><g fill="#ffffff" fill-opacity="1"><g transform="translate(642.705452, 581.276318)"><g><path d="M 12.0625 -8.1875 C 11.863281 -8.351562 11.671875 -8.503906 11.484375 -8.640625 C 11.304688 -8.785156 11.101562 -8.972656 10.875 -9.203125 C 10.65625 -9.441406 10.394531 -9.765625 10.09375 -10.171875 C 9.800781 -10.578125 9.441406 -11.09375 9.015625 -11.71875 L 5.6875 -16.625 C 4.695312 -18.09375 3.742188 -18.953125 2.828125 -19.203125 C 1.910156 -19.453125 0.890625 -19.195312 -0.234375 -18.4375 L -1.9375 -17.28125 L 6.703125 -4.546875 L 1.78125 -1.203125 L -19.421875 -32.484375 L -12 -37.53125 C -9.4375 -39.257812 -7.175781 -39.914062 -5.21875 -39.5 C -3.269531 -39.09375 -1.476562 -37.679688 0.15625 -35.265625 L 1.8125 -32.8125 C 4 -29.582031 4.363281 -26.738281 2.90625 -24.28125 C 4.507812 -24.632812 5.929688 -24.390625 7.171875 -23.546875 C 8.410156 -22.710938 9.585938 -21.476562 10.703125 -19.84375 L 13.96875 -15.015625 C 14.5 -14.242188 14.988281 -13.582031 15.4375 -13.03125 C 15.882812 -12.488281 16.429688 -12.003906 17.078125 -11.578125 Z M -11.484375 -31.375 L -4.96875 -21.765625 L -3.046875 -23.0625 C -2.117188 -23.6875 -1.554688 -24.410156 -1.359375 -25.234375 C -1.160156 -26.066406 -1.484375 -27.109375 -2.328125 -28.359375 L -4.421875 -31.453125 C -5.191406 -32.578125 -5.945312 -33.257812 -6.6875 -33.5 C -7.4375 -33.738281 -8.242188 -33.566406 -9.109375 -32.984375 Z M -11.484375 -31.375 "/></g></g></g><g fill="#ffffff" fill-opacity="1"><g transform="translate(661.233275, 568.699965)"><g><path d="M 17.0625 -12.890625 L 12.28125 -9.28125 L 7.3125 -14.125 L 1.5 -9.734375 L 4.828125 -3.640625 L 0.46875 -0.359375 L -17.484375 -34.15625 L -10.53125 -39.40625 Z M -0.96875 -14.28125 L 3.59375 -17.734375 L -10.21875 -31.265625 Z M -0.96875 -14.28125 "/></g></g></g><g fill="#ffffff" fill-opacity="1"><g transform="translate(679.274863, 555.019947)"><g><path d="M -15.890625 -35.984375 C -13.597656 -37.898438 -11.382812 -38.71875 -9.25 -38.4375 C -7.113281 -38.164062 -5.066406 -36.859375 -3.109375 -34.515625 L 0.046875 -30.75 C 2.015625 -28.394531 2.945312 -26.140625 2.84375 -23.984375 C 2.738281 -21.835938 1.539062 -19.804688 -0.75 -17.890625 L -2.90625 -16.078125 L 6.203125 -5.1875 L 1.65625 -1.390625 L -22.59375 -30.375 Z M -14.59375 -30.046875 L -6.375 -20.234375 L -4.21875 -22.046875 C -3.5 -22.648438 -3.101562 -23.300781 -3.03125 -24 C -2.96875 -24.707031 -3.378906 -25.585938 -4.265625 -26.640625 L -7.90625 -31 C -8.78125 -32.039062 -9.570312 -32.59375 -10.28125 -32.65625 C -11 -32.726562 -11.71875 -32.460938 -12.4375 -31.859375 Z M -14.59375 -30.046875 "/></g></g></g><g fill="#ffffff" fill-opacity="1"><g transform="translate(695.190077, 541.576437)"><g><path d="M -23.671875 -29.53125 L -19.265625 -33.5 L 6.015625 -5.40625 L 1.609375 -1.4375 Z M -23.671875 -29.53125 "/></g></g></g><g fill="#ffffff" fill-opacity="1"><g transform="translate(703.227034, 534.454816)"><g><path d="M -18.953125 -21.640625 C -21.078125 -23.835938 -22.1875 -26.03125 -22.28125 -28.21875 C -22.375 -30.40625 -21.375 -32.515625 -19.28125 -34.546875 C -17.175781 -36.566406 -15.03125 -37.492188 -12.84375 -37.328125 C -10.65625 -37.171875 -8.5 -35.992188 -6.375 -33.796875 L -5.359375 -32.75 L -9.40625 -28.84375 L -10.6875 -30.15625 C -11.632812 -31.144531 -12.488281 -31.65625 -13.25 -31.6875 C -14.007812 -31.726562 -14.722656 -31.425781 -15.390625 -30.78125 C -16.066406 -30.125 -16.398438 -29.414062 -16.390625 -28.65625 C -16.378906 -27.894531 -15.898438 -27.019531 -14.953125 -26.03125 C -14.046875 -25.101562 -13.039062 -24.484375 -11.9375 -24.171875 C -10.832031 -23.859375 -9.664062 -23.679688 -8.4375 -23.640625 C -7.207031 -23.597656 -5.925781 -23.609375 -4.59375 -23.671875 C -3.269531 -23.734375 -1.9375 -23.6875 -0.59375 -23.53125 C 0.75 -23.375 2.09375 -23.015625 3.4375 -22.453125 C 4.78125 -21.898438 6.070312 -20.984375 7.3125 -19.703125 C 9.445312 -17.492188 10.546875 -15.28125 10.609375 -13.0625 C 10.671875 -10.851562 9.648438 -8.734375 7.546875 -6.703125 C 5.453125 -4.671875 3.300781 -3.722656 1.09375 -3.859375 C -1.113281 -4.003906 -3.285156 -5.179688 -5.421875 -7.390625 L -7.203125 -9.234375 L -3.15625 -13.140625 L -1.09375 -11.015625 C -0.144531 -10.035156 0.710938 -9.539062 1.484375 -9.53125 C 2.265625 -9.53125 2.988281 -9.859375 3.65625 -10.515625 C 4.332031 -11.171875 4.679688 -11.882812 4.703125 -12.65625 C 4.734375 -13.4375 4.273438 -14.316406 3.328125 -15.296875 C 2.421875 -16.234375 1.414062 -16.851562 0.3125 -17.15625 C -0.789062 -17.46875 -1.957031 -17.640625 -3.1875 -17.671875 C -4.425781 -17.703125 -5.707031 -17.691406 -7.03125 -17.640625 C -8.363281 -17.585938 -9.703125 -17.632812 -11.046875 -17.78125 C -12.390625 -17.9375 -13.726562 -18.296875 -15.0625 -18.859375 C -16.40625 -19.421875 -17.703125 -20.347656 -18.953125 -21.640625 Z M -18.953125 -21.640625 "/></g></g></g><g fill="#ffffff" fill-opacity="1"><g transform="translate(718.176717, 519.968209)"><g><path d="M -27.125 -26.3125 L -14.53125 -39.6875 L -10.609375 -35.984375 L -14.875 -31.453125 L 8.703125 -9.234375 L 4.625 -4.90625 L -18.953125 -27.125 L -23.203125 -22.609375 Z M -27.125 -26.3125 "/></g></g></g><g fill="#ffffff" fill-opacity="1"><g transform="translate(176.254018, 291.07875)"><g><path d="M 51.375 -35.078125 L 37.21875 -25.40625 L -1.453125 -39.875 L 17.578125 -12 L 5.828125 -3.984375 L -37.4375 -67.359375 L -25.6875 -75.375 L -7.015625 -48.015625 L -6.046875 -88.78125 L 8.109375 -98.453125 L 5.515625 -51.046875 Z M 51.375 -35.078125 "/></g></g></g><g fill="#ffffff" fill-opacity="1"><g transform="translate(225.576286, 258.374946)"><g><path d="M 17.140625 -9.125 L 4.953125 -2.640625 L -22.0625 -53.4375 L -9.875 -59.921875 Z M -13.6875 -67.296875 L -25.875 -60.8125 L -32.359375 -73 L -20.171875 -79.484375 Z M -13.6875 -67.296875 "/></g></g></g><g fill="#ffffff" fill-opacity="1"><g transform="translate(244.480501, 248.012501)"><g><path d="M 10.578125 -54.5625 C 3.128906 -51.03125 1.195312 -45.210938 4.78125 -37.109375 L 17.75 -7.875 L 5.125 -2.265625 L -18.1875 -54.859375 L -6.59375 -60 L -4.328125 -54.875 C -3.753906 -58.007812 -2.863281 -60.390625 -1.65625 -62.015625 C -0.445312 -63.648438 1.515625 -65.070312 4.234375 -66.28125 L 5.1875 -66.703125 Z M 10.578125 -54.5625 "/></g></g></g><g fill="#ffffff" fill-opacity="1"><g transform="translate(268.984751, 235.539871)"><g><path d="M 61.15625 -18.375 L 49.015625 -14.71875 L 46.859375 -21.890625 C 45.128906 -18.097656 43.050781 -15.117188 40.625 -12.953125 C 38.207031 -10.796875 35.039062 -9.128906 31.125 -7.953125 C 25.75 -6.335938 20.601562 -6.125 15.6875 -7.3125 C 10.769531 -8.507812 6.46875 -10.921875 2.78125 -14.546875 C -0.90625 -18.171875 -3.578125 -22.738281 -5.234375 -28.25 C -6.921875 -33.882812 -7.207031 -39.234375 -6.09375 -44.296875 C -4.976562 -49.367188 -2.695312 -53.796875 0.75 -57.578125 C 4.207031 -61.367188 8.65625 -64.082031 14.09375 -65.71875 C 18.0625 -66.90625 21.691406 -67.253906 24.984375 -66.765625 C 28.285156 -66.273438 31.515625 -64.835938 34.671875 -62.453125 L 32.46875 -69.8125 L 44.609375 -73.46875 Z M 40.484375 -41.75 C 39.472656 -45.132812 37.882812 -47.894531 35.71875 -50.03125 C 33.550781 -52.164062 31.039062 -53.597656 28.1875 -54.328125 C 25.332031 -55.054688 22.3125 -54.941406 19.125 -53.984375 C 16.007812 -53.046875 13.441406 -51.476562 11.421875 -49.28125 C 9.398438 -47.09375 8.097656 -44.503906 7.515625 -41.515625 C 6.941406 -38.523438 7.164062 -35.34375 8.1875 -31.96875 C 9.632812 -27.125 12.316406 -23.660156 16.234375 -21.578125 C 20.148438 -19.492188 24.53125 -19.175781 29.375 -20.625 C 32.75 -21.644531 35.40625 -23.242188 37.34375 -25.421875 C 39.289062 -27.597656 40.53125 -30.101562 41.0625 -32.9375 C 41.59375 -35.769531 41.398438 -38.707031 40.484375 -41.75 Z M 40.484375 -41.75 "/></g></g></g><g fill="#ffffff" fill-opacity="1"><g transform="translate(329.42004, 218.268037)"><g/></g></g><g fill="#ffffff" fill-opacity="1"><g transform="translate(354.726569, 213.761979)"><g><path d="M 21.171875 -2.125 L 7.03125 -0.703125 L -0.609375 -77.046875 L 13.53125 -78.46875 Z M 21.171875 -2.125 "/></g></g></g><g fill="#ffffff" fill-opacity="1"><g transform="translate(378.59307, 210.31573)"><g><path d="M 57.859375 -57.09375 L 34.265625 0.265625 L 23.265625 0.171875 L 0.546875 -57.53125 L 15.90625 -57.40625 L 28.921875 -19.203125 L 42.28125 -57.203125 Z M 57.859375 -57.09375 "/></g></g></g><g fill="#ffffff" fill-opacity="1"><g transform="translate(431.899026, 211.328446)"><g><path d="M 19.296875 2.140625 L 5.578125 0.609375 L 14 -75.65625 L 27.71875 -74.125 Z M 19.296875 2.140625 "/></g></g></g><g fill="#ffffff" fill-opacity="1"><g transform="translate(453.804224, 213.659886)"><g><path d="M 19.140625 3.3125 L 5.53125 0.953125 L 15.34375 -55.734375 L 28.953125 -53.375 Z M 30.46875 -61.546875 L 16.875 -63.90625 L 19.234375 -77.5 L 32.828125 -75.140625 Z M 30.46875 -61.546875 "/></g></g></g><g fill="#ffffff" fill-opacity="1"><g transform="translate(473.492541, 215.584639)"><g><path d="M 68.4375 -9.109375 C 68.144531 -8.109375 67.859375 -7.253906 67.578125 -6.546875 C 67.296875 -5.835938 66.921875 -5.046875 66.453125 -4.171875 L 23.6875 -16.671875 C 23.507812 -13.117188 24.5 -9.960938 26.65625 -7.203125 C 28.8125 -4.441406 31.847656 -2.488281 35.765625 -1.34375 C 38.492188 -0.539062 40.910156 -0.285156 43.015625 -0.578125 C 45.117188 -0.867188 47.289062 -1.765625 49.53125 -3.265625 L 64 0.953125 C 61.675781 4.390625 58.753906 7.015625 55.234375 8.828125 C 51.710938 10.640625 47.972656 11.707031 44.015625 12.03125 C 40.066406 12.363281 36.234375 11.988281 32.515625 10.90625 C 28.328125 9.675781 24.632812 7.800781 21.4375 5.28125 C 18.25 2.757812 15.675781 -0.207031 13.71875 -3.625 C 11.757812 -7.039062 10.519531 -10.695312 10 -14.59375 C 9.476562 -18.5 9.804688 -22.484375 10.984375 -26.546875 C 12.171875 -30.585938 14.023438 -34.148438 16.546875 -37.234375 C 19.078125 -40.328125 22.054688 -42.8125 25.484375 -44.6875 C 28.921875 -46.570312 32.617188 -47.75 36.578125 -48.21875 C 40.535156 -48.6875 44.539062 -48.328125 48.59375 -47.140625 C 54.113281 -45.523438 58.644531 -42.8125 62.1875 -39 C 65.726562 -35.195312 68.070312 -30.691406 69.21875 -25.484375 C 70.363281 -20.273438 70.101562 -14.816406 68.4375 -9.109375 Z M 57.296875 -19.5 C 57.460938 -23.28125 56.523438 -26.492188 54.484375 -29.140625 C 52.441406 -31.785156 49.363281 -33.707031 45.25 -34.90625 C 41.320312 -36.050781 37.769531 -36.066406 34.59375 -34.953125 C 31.414062 -33.835938 28.785156 -31.664062 26.703125 -28.4375 Z M 57.296875 -19.5 "/></g></g></g><g fill="#ffffff" fill-opacity="1"><g transform="translate(530.50468, 231.996856)"><g><path d="M 76.390625 -27.765625 L 31.03125 14.53125 L 21.078125 9.859375 L 24.484375 -52.0625 L 38.40625 -45.546875 L 34.28125 -5.40625 L 62.28125 -34.375 Z M 76.390625 -27.765625 "/></g></g></g><g fill="#ffffff" fill-opacity="1"><g transform="translate(577.073424, 252.722975)"><g><path d="M 52.921875 35.734375 L 42.421875 28.640625 L 46.609375 22.4375 C 42.566406 23.488281 38.941406 23.757812 35.734375 23.25 C 32.523438 22.75 29.226562 21.351562 25.84375 19.0625 C 21.195312 15.925781 17.78125 12.078125 15.59375 7.515625 C 13.414062 2.953125 12.5625 -1.90625 13.03125 -7.0625 C 13.5 -12.21875 15.34375 -17.175781 18.5625 -21.9375 C 21.851562 -26.8125 25.816406 -30.414062 30.453125 -32.75 C 35.085938 -35.09375 39.960938 -36.125 45.078125 -35.84375 C 50.191406 -35.5625 55.101562 -33.832031 59.8125 -30.65625 C 63.25 -28.34375 65.816406 -25.753906 67.515625 -22.890625 C 69.222656 -20.023438 70.15625 -16.617188 70.3125 -12.671875 L 74.609375 -19.046875 L 85.109375 -11.953125 Z M 57.9375 4.9375 C 59.914062 2.007812 61.046875 -0.960938 61.328125 -3.984375 C 61.617188 -7.015625 61.144531 -9.867188 59.90625 -12.546875 C 58.664062 -15.222656 56.671875 -17.488281 53.921875 -19.34375 C 51.222656 -21.175781 48.382812 -22.175781 45.40625 -22.34375 C 42.425781 -22.519531 39.59375 -21.882812 36.90625 -20.4375 C 34.21875 -18.988281 31.890625 -16.800781 29.921875 -13.875 C 27.085938 -9.6875 26.101562 -5.421875 26.96875 -1.078125 C 27.84375 3.265625 30.375 6.851562 34.5625 9.6875 C 37.488281 11.664062 40.410156 12.71875 43.328125 12.84375 C 46.242188 12.96875 48.960938 12.335938 51.484375 10.953125 C 54.003906 9.566406 56.15625 7.5625 57.9375 4.9375 Z M 57.9375 4.9375 "/></g></g></g></svg>