<svg xmlns="http://www.w3.org/2000/svg" xmlns:xlink="http://www.w3.org/1999/xlink" width="1080" zoomAndPan="magnify" viewBox="0 0 810 809.999993" height="1080" preserveAspectRatio="xMidYMid meet" version="1.0"><defs><g/><clipPath id="4fa74ae570"><path d="M 0 74.769531 L 810 74.769531 L 810 735.230469 L 0 735.230469 Z M 0 74.769531 " clip-rule="nonzero"/></clipPath><clipPath id="6799728af4"><path d="M 38.25 74.769531 L 771.75 74.769531 C 781.894531 74.769531 791.625 78.800781 798.796875 85.972656 C 805.96875 93.148438 810 102.875 810 113.019531 L 810 696.980469 C 810 707.125 805.96875 716.851562 798.796875 724.027344 C 791.625 731.199219 781.894531 735.230469 771.75 735.230469 L 38.25 735.230469 C 28.105469 735.230469 18.375 731.199219 11.203125 724.027344 C 4.03125 716.851562 0 707.125 0 696.980469 L 0 113.019531 C 0 102.875 4.03125 93.148438 11.203125 85.972656 C 18.375 78.800781 28.105469 74.769531 38.25 74.769531 Z M 38.25 74.769531 " clip-rule="nonzero"/></clipPath><clipPath id="12286b57b8"><path d="M 0 126.730469 L 810 126.730469 L 810 683.269531 L 0 683.269531 Z M 0 126.730469 " clip-rule="nonzero"/></clipPath><clipPath id="16cd9ae8a3"><path d="M 405 126.730469 C 181.324219 126.730469 0 251.316406 0 405 C 0 558.683594 181.324219 683.269531 405 683.269531 C 628.675781 683.269531 810 558.683594 810 405 C 810 251.316406 628.675781 126.730469 405 126.730469 Z M 405 126.730469 " clip-rule="nonzero"/></clipPath><clipPath id="86ca749cbc"><path d="M 271.0625 240.109375 L 538.792969 240.109375 L 538.792969 552.109375 L 271.0625 552.109375 Z M 271.0625 240.109375 " clip-rule="nonzero"/></clipPath><clipPath id="60e762e217"><path d="M 80 363 L 132 363 L 132 414 L 80 414 Z M 80 363 " clip-rule="nonzero"/></clipPath><clipPath id="0415c40d36"><path d="M 80.148438 372.941406 L 125.589844 359.996094 L 138.539062 405.4375 L 93.097656 418.382812 Z M 80.148438 372.941406 " clip-rule="nonzero"/></clipPath><clipPath id="75b8b5e7a3"><path d="M 80.148438 372.941406 L 125.589844 359.996094 L 138.539062 405.4375 L 93.097656 418.382812 Z M 80.148438 372.941406 " clip-rule="nonzero"/></clipPath><clipPath id="d972b855c1"><path d="M 679 384 L 732 384 L 732 436 L 679 436 Z M 679 384 " clip-rule="nonzero"/></clipPath><clipPath id="d19cbb6b0c"><path d="M 679.738281 394.070312 L 726.6875 380.929688 L 739.824219 427.878906 L 692.878906 441.015625 Z M 679.738281 394.070312 " clip-rule="nonzero"/></clipPath><clipPath id="10cd7b7e71"><path d="M 679.738281 394.070312 L 726.6875 380.929688 L 739.824219 427.878906 L 692.878906 441.015625 Z M 679.738281 394.070312 " clip-rule="nonzero"/></clipPath><clipPath id="89aa859851"><path d="M 138.84375 213.351562 L 671.34375 213.351562 L 671.34375 570.351562 L 138.84375 570.351562 Z M 138.84375 213.351562 " clip-rule="nonzero"/></clipPath></defs><g clip-path="url(#4fa74ae570)"><g clip-path="url(#6799728af4)"><path fill="#0866ff" d="M 0 74.769531 L 810.09375 74.769531 L 810.09375 735.230469 L 0 735.230469 Z M 0 74.769531 " fill-opacity="1" fill-rule="nonzero"/></g></g><g clip-path="url(#12286b57b8)"><g clip-path="url(#16cd9ae8a3)"><path fill="#0866ff" d="M 0 126.730469 L 810.898438 126.730469 L 810.898438 683.269531 L 0 683.269531 Z M 0 126.730469 " fill-opacity="1" fill-rule="nonzero"/></g></g><g clip-path="url(#86ca749cbc)"><path fill="#ffffff" d="M 518.097656 365.09375 C 512.839844 357.304688 508.929688 348.765625 506.144531 339.777344 C 499.941406 319.765625 498.8125 300.746094 486.050781 283.304688 C 474.964844 268.160156 459.460938 256.449219 442.285156 249.378906 C 422.273438 241.136719 401.113281 239.15625 378.625 240.488281 C 315.300781 244.234375 281.945312 280.507812 271.0625 298.691406 C 271.0625 298.691406 292.875 266.398438 348.996094 259.207031 C 418.992188 250.230469 482.632812 300.933594 472.589844 368.773438 C 469.386719 390.417969 458.746094 408.015625 440.648438 419.902344 C 419.570312 433.742188 395.039062 440.292969 375.140625 456.351562 C 361.710938 467.195312 350.445312 481.226562 344.664062 497.640625 C 342.246094 504.503906 340.796875 511.871094 341.726562 519.109375 C 342.726562 526.871094 346.476562 534.167969 351.835938 539.804688 C 362.617188 551.136719 380.121094 555.273438 394.671875 549.929688 C 401.808594 547.308594 408.613281 541.921875 410.109375 534.367188 C 411.222656 528.753906 409.246094 523.011719 409.078125 517.285156 C 408.839844 509.195312 412.304688 501.300781 417.535156 495.21875 C 422.765625 489.132812 429.648438 484.714844 436.867188 481.320312 C 450.820312 474.757812 466.394531 471.757812 481.769531 472.675781 C 492.261719 473.300781 505.785156 476.054688 513.828125 467.21875 C 520.496094 459.898438 515.890625 452.402344 515.078125 444.84375 C 514.539062 439.839844 516.039062 435.078125 521.929688 432.679688 C 523.257812 432.136719 524.050781 431.886719 524.316406 429.972656 C 524.535156 428.398438 523.285156 426.089844 521.875 425.222656 C 523.78125 423.839844 525.539062 424.492188 527.183594 422.84375 C 528.03125 421.996094 528.214844 420.714844 527.679688 419.667969 C 526.761719 417.871094 525.609375 416.058594 524.382812 414.253906 C 522.757812 411.871094 524.007812 408.621094 526.867188 407.808594 C 535.269531 405.425781 539.421875 402.265625 538.890625 397.320312 C 538.285156 391.644531 524.09375 373.984375 518.097656 365.09375 " fill-opacity="1" fill-rule="nonzero"/></g><path fill="#ffffff" d="M 327.921875 406.347656 C 329.960938 410.503906 328.242188 415.527344 324.082031 417.566406 C 319.921875 419.605469 314.898438 417.886719 312.859375 413.726562 C 310.820312 409.566406 312.539062 404.542969 316.699219 402.503906 C 320.859375 400.46875 325.882812 402.183594 327.921875 406.347656 " fill-opacity="1" fill-rule="nonzero"/><path fill="#ffffff" d="M 399.769531 323.988281 C 397.957031 320.289062 399.488281 315.820312 403.183594 314.007812 C 406.882812 312.199219 411.351562 313.726562 413.160156 317.425781 C 414.972656 321.121094 413.445312 325.589844 409.75 327.402344 C 406.050781 329.214844 401.582031 327.6875 399.769531 323.988281 " fill-opacity="1" fill-rule="nonzero"/><path fill="#ffffff" d="M 344.8125 312.808594 C 341.113281 314.621094 336.644531 313.09375 334.832031 309.394531 C 333.019531 305.695312 334.550781 301.230469 338.246094 299.417969 C 341.945312 297.605469 346.414062 299.132812 348.226562 302.832031 C 350.039062 306.527344 348.507812 310.996094 344.8125 312.808594 " fill-opacity="1" fill-rule="nonzero"/><path fill="#ffffff" d="M 377.1875 335.054688 C 372.570312 337.320312 366.988281 335.410156 364.722656 330.789062 C 362.460938 326.167969 364.371094 320.589844 368.988281 318.324219 C 373.609375 316.058594 379.191406 317.96875 381.453125 322.589844 C 383.71875 327.210938 381.808594 332.789062 377.1875 335.054688 " fill-opacity="1" fill-rule="nonzero"/><path fill="#ffffff" d="M 297.929688 433.992188 C 303.867188 431.085938 311.007812 433.429688 314.09375 439.21875 L 359.824219 418.09375 C 358.488281 414.710938 358.773438 411.03125 360.371094 407.988281 L 300.902344 372.230469 C 299.976562 373.554688 298.714844 374.667969 297.164062 375.429688 C 292.261719 377.832031 286.339844 375.804688 283.933594 370.902344 C 281.53125 366 283.558594 360.078125 288.460938 357.671875 C 293.363281 355.273438 299.285156 357.300781 301.6875 362.203125 C 303.113281 365.101562 302.980469 368.359375 301.621094 371.03125 L 361.089844 406.789062 C 362.070312 405.355469 363.363281 404.117188 364.9375 403.1875 L 343.355469 361.394531 C 338.167969 363.660156 332.070312 361.457031 329.554688 356.328125 C 326.972656 351.050781 329.152344 344.679688 334.425781 342.09375 C 339.699219 339.511719 346.074219 341.691406 348.660156 346.964844 C 351.105469 351.960938 349.277344 357.9375 344.597656 360.753906 L 366.183594 402.546875 C 368.609375 401.460938 371.214844 401.242188 373.644531 401.757812 L 383.59375 365.332031 C 380.113281 364.191406 377.078125 361.707031 375.339844 358.160156 C 373.578125 354.566406 373.496094 350.585938 374.78125 347.105469 L 303.433594 316.621094 C 302.316406 318.863281 300.484375 320.773438 298.058594 321.960938 C 292.195312 324.835938 285.109375 322.410156 282.234375 316.546875 C 279.359375 310.679688 281.785156 303.59375 287.648438 300.71875 C 293.515625 297.84375 300.597656 300.269531 303.472656 306.136719 C 304.941406 309.125 305.023438 312.429688 303.984375 315.335938 L 375.328125 345.816406 C 376.652344 343.101562 378.851562 340.785156 381.777344 339.351562 C 383.996094 338.265625 386.363281 337.820312 388.664062 337.9375 L 392.554688 299.09375 C 388.085938 298.417969 384.011719 295.636719 381.871094 291.273438 C 378.40625 284.207031 381.328125 275.667969 388.398438 272.203125 C 395.464844 268.738281 404.003906 271.660156 407.464844 278.730469 C 410.929688 285.796875 408.007812 294.335938 400.941406 297.796875 C 398.6875 298.902344 396.285156 299.355469 393.945312 299.234375 L 390.054688 338.078125 C 394.460938 338.746094 398.476562 341.488281 400.585938 345.789062 C 401.167969 346.980469 401.5625 348.210938 401.789062 349.453125 L 433.085938 345.339844 C 432.625 339.675781 435.601562 334.042969 441.015625 331.386719 C 448.082031 327.921875 456.617188 330.84375 460.078125 337.910156 C 463.539062 344.976562 460.621094 353.511719 453.554688 356.972656 C 446.488281 360.4375 437.957031 357.515625 434.492188 350.449219 C 433.902344 349.242188 433.496094 347.988281 433.269531 346.726562 L 401.972656 350.839844 C 402.425781 356.429688 399.488281 361.980469 394.148438 364.597656 C 391.175781 366.054688 387.941406 366.363281 384.941406 365.699219 L 374.996094 402.125 C 377.964844 403.121094 380.546875 405.257812 382.035156 408.292969 C 384.988281 414.320312 382.496094 421.597656 376.472656 424.550781 C 371.941406 426.769531 366.707031 425.914062 363.132812 422.792969 L 347.757812 438.472656 C 348.144531 438.929688 348.480469 439.441406 348.757812 440.003906 C 350.570312 443.699219 349.039062 448.167969 345.34375 449.980469 C 341.644531 451.792969 337.175781 450.261719 335.363281 446.566406 C 333.550781 442.867188 335.082031 438.398438 338.777344 436.585938 C 341.472656 435.269531 344.574219 435.722656 346.757812 437.492188 L 362.132812 421.8125 C 361.472656 421.085938 360.890625 420.265625 360.410156 419.359375 L 314.679688 440.488281 C 317 446.359375 314.457031 453.121094 308.6875 455.949219 C 302.628906 458.921875 295.304688 456.414062 292.332031 450.351562 C 289.363281 444.289062 291.867188 436.964844 297.929688 433.992188 " fill-opacity="1" fill-rule="nonzero"/><path fill="#ffffff" d="M 341.050781 375.511719 C 342.527344 378.523438 341.285156 382.164062 338.269531 383.640625 C 335.257812 385.117188 331.617188 383.871094 330.140625 380.859375 C 328.667969 377.847656 329.910156 374.207031 332.925781 372.730469 C 335.9375 371.253906 339.578125 372.5 341.050781 375.511719 " fill-opacity="1" fill-rule="nonzero"/><path fill="#ffffff" d="M 404.609375 381.375 C 405.21875 385.449219 402.414062 389.246094 398.339844 389.859375 C 394.265625 390.46875 390.46875 387.664062 389.855469 383.589844 C 389.246094 379.515625 392.054688 375.714844 396.128906 375.105469 C 400.199219 374.492188 404 377.300781 404.609375 381.375 " fill-opacity="1" fill-rule="nonzero"/><path fill="#ffffff" d="M 440.457031 388.605469 C 441.421875 395.03125 436.992188 401.027344 430.5625 401.988281 C 424.136719 402.953125 418.140625 398.523438 417.175781 392.097656 C 416.210938 385.667969 420.640625 379.675781 427.070312 378.710938 C 433.5 377.746094 439.492188 382.175781 440.457031 388.605469 " fill-opacity="1" fill-rule="nonzero"/><g clip-path="url(#60e762e217)"><g clip-path="url(#0415c40d36)"><g clip-path="url(#75b8b5e7a3)"><path fill="#ffffff" d="M 123.371094 373.289062 C 122.152344 373.589844 121.113281 374.226562 120.324219 375.074219 C 119.867188 375.5625 119.0625 375.375 118.878906 374.738281 L 115.765625 363.742188 C 115.640625 363.289062 115.171875 363.027344 114.722656 363.15625 L 81.019531 372.699219 C 80.570312 372.828125 80.308594 373.292969 80.4375 373.746094 L 89.976562 407.4375 C 90.105469 407.886719 90.574219 408.148438 91.023438 408.019531 L 101.953125 404.925781 C 102.570312 404.75 103.160156 405.304688 103.007812 405.929688 C 102.765625 406.9375 102.769531 408.015625 103.070312 409.082031 C 104.003906 412.382812 107.4375 414.300781 110.738281 413.367188 C 114.039062 412.429688 115.957031 409 115.019531 405.699219 C 114.71875 404.632812 114.15625 403.710938 113.421875 402.980469 C 112.960938 402.527344 113.171875 401.746094 113.792969 401.570312 L 124.722656 398.476562 C 125.171875 398.351562 125.433594 397.882812 125.308594 397.429688 L 122.171875 386.363281 C 121.992188 385.730469 122.574219 385.140625 123.210938 385.316406 C 124.273438 385.609375 125.425781 385.625 126.566406 385.300781 C 129.917969 384.347656 131.839844 380.816406 130.796875 377.472656 C 129.824219 374.347656 126.542969 372.5 123.371094 373.289062 " fill-opacity="1" fill-rule="nonzero"/></g></g></g><g clip-path="url(#d972b855c1)"><g clip-path="url(#d19cbb6b0c)"><g clip-path="url(#10cd7b7e71)"><path fill="#ffffff" d="M 687.851562 404.785156 C 686.589844 405.136719 685.527344 405.847656 684.734375 406.769531 C 684.285156 407.296875 683.429688 407.105469 683.242188 406.4375 L 680.007812 394.957031 C 679.878906 394.496094 680.148438 394.015625 680.609375 393.882812 L 715.207031 384.144531 C 715.667969 384.011719 716.148438 384.28125 716.28125 384.746094 L 719.433594 395.949219 C 719.613281 396.585938 720.410156 396.792969 720.882812 396.328125 C 721.691406 395.53125 722.726562 394.941406 723.925781 394.664062 C 727.171875 393.917969 730.480469 395.832031 731.449219 399.011719 C 732.5 402.445312 730.507812 406.050781 727.066406 407.015625 C 725.996094 407.316406 724.914062 407.324219 723.902344 407.085938 C 723.261719 406.9375 722.695312 407.535156 722.875 408.167969 L 726.007812 419.300781 C 726.140625 419.761719 725.871094 420.242188 725.40625 420.375 L 714.1875 423.53125 C 713.550781 423.710938 713.332031 424.511719 713.800781 424.976562 C 714.554688 425.726562 715.132812 426.671875 715.441406 427.765625 C 716.394531 431.148438 714.417969 434.667969 711.03125 435.621094 C 707.644531 436.574219 704.125 434.605469 703.171875 431.21875 C 702.863281 430.125 702.859375 429.015625 703.113281 427.984375 C 703.269531 427.34375 702.667969 426.777344 702.03125 426.953125 L 690.8125 430.113281 C 690.347656 430.246094 689.867188 429.976562 689.738281 429.511719 L 686.503906 418.03125 C 686.316406 417.363281 686.949219 416.753906 687.605469 416.96875 C 688.765625 417.34375 690.042969 417.394531 691.300781 417.039062 C 694.6875 416.085938 696.664062 412.566406 695.710938 409.183594 C 694.757812 405.800781 691.238281 403.828125 687.851562 404.785156 " fill-opacity="1" fill-rule="nonzero"/></g></g></g><path stroke-linecap="butt" transform="matrix(0.75, 0, 0, 0.75, -156.45409, 283.081587)" fill="none" stroke-linejoin="miter" d="M 0.00128697 146.292266 L 236.313799 146.292266 C 265.03255 146.292266 288.313801 123.011015 288.313801 94.292263 L 288.313801 18.677676 C 288.313801 14.917259 289.808593 11.313092 292.470052 8.651634 C 295.126302 5.995384 298.735677 4.500592 302.496094 4.500592 C 306.256511 4.500592 309.860678 5.995384 312.522136 8.651634 C 315.178386 11.313092 316.673178 14.917259 316.673178 18.677676 L 316.673178 65.662053 C 316.673178 69.495387 318.19922 73.177679 320.907553 75.886012 C 323.621095 78.599554 327.303387 80.125596 331.13672 80.125596 C 334.975262 80.125596 338.652346 81.646429 341.365887 84.359971 C 344.074221 87.073513 345.600263 90.750596 345.600263 94.589138 L 345.600263 146.292266 " stroke="#ffffff" stroke-width="9" stroke-opacity="1" stroke-miterlimit="4"/><path stroke-linecap="butt" transform="matrix(0.75, 0, 0, 0.75, 688.561385, 341.602853)" fill="none" stroke-linejoin="miter" d="M 28.131697 58.789949 L 28.131697 16.315988 C 28.131697 13.180571 26.886905 10.175363 24.673363 7.961821 C 22.454613 5.743071 19.449404 4.498279 16.313988 4.498279 L 13.173363 4.498279 C 8.381696 4.498279 4.501487 8.383696 4.501487 13.175363 C 4.501487 17.961822 8.381696 21.847238 13.173363 21.847238 L 75.965032 21.847238 C 94.235867 21.847238 109.048367 36.659739 109.048367 54.930573 C 109.048367 73.206616 123.860868 88.019117 142.136911 88.019117 L 373.730672 88.019117 " stroke="#ffffff" stroke-width="9" stroke-opacity="1" stroke-miterlimit="4"/><g clip-path="url(#89aa859851)"><path fill="#ffffff" d="M 405 564.1875 C 261.527344 564.1875 144.808594 486.804688 144.808594 391.703125 C 144.808594 296.59375 261.527344 219.21875 405 219.21875 C 548.46875 219.21875 665.1875 296.59375 665.1875 391.703125 C 665.1875 486.804688 548.46875 564.1875 405 564.1875 Z M 405 213.367188 C 258.308594 213.367188 138.960938 293.367188 138.960938 391.703125 C 138.960938 490.039062 258.308594 570.035156 405 570.035156 C 551.691406 570.035156 671.035156 490.039062 671.035156 391.703125 C 671.035156 293.367188 551.691406 213.367188 405 213.367188 " fill-opacity="1" fill-rule="nonzero"/></g><g fill="#ffffff" fill-opacity="1"><g transform="translate(44.226563, 639.522948)"><g><path d="M 53.359375 0 L 41.125 0 L 16.40625 -42.953125 L 16.40625 0 L 5.4375 0 L 5.4375 -59.125 L 17.921875 -59.125 L 42.40625 -16.078125 L 42.40625 -59.125 L 53.359375 -59.125 Z M 53.359375 0 "/></g></g></g><g fill="#ffffff" fill-opacity="1"><g transform="translate(103.420816, 639.522948)"><g><path d="M 48.640625 -21.515625 C 48.640625 -20.710938 48.613281 -20.019531 48.5625 -19.4375 C 48.507812 -18.851562 48.398438 -18.1875 48.234375 -17.4375 L 13.921875 -17.4375 C 14.554688 -14.769531 15.96875 -12.648438 18.15625 -11.078125 C 20.34375 -9.503906 23.007812 -8.71875 26.15625 -8.71875 C 28.34375 -8.71875 30.179688 -9.050781 31.671875 -9.71875 C 33.171875 -10.382812 34.585938 -11.519531 35.921875 -13.125 L 47.515625 -13.125 C 46.554688 -10.082031 44.96875 -7.503906 42.75 -5.390625 C 40.539062 -3.285156 38.007812 -1.6875 35.15625 -0.59375 C 32.300781 0.5 29.382812 1.046875 26.40625 1.046875 C 23.039062 1.046875 19.90625 0.457031 17 -0.71875 C 14.09375 -1.894531 11.546875 -3.535156 9.359375 -5.640625 C 7.171875 -7.742188 5.460938 -10.179688 4.234375 -12.953125 C 3.015625 -15.734375 2.40625 -18.75 2.40625 -22 C 2.40625 -25.25 3.003906 -28.285156 4.203125 -31.109375 C 5.398438 -33.941406 7.066406 -36.425781 9.203125 -38.5625 C 11.335938 -40.695312 13.816406 -42.363281 16.640625 -43.5625 C 19.460938 -44.757812 22.503906 -45.359375 25.765625 -45.359375 C 30.191406 -45.359375 34.125 -44.332031 37.5625 -42.28125 C 41 -40.226562 43.703125 -37.398438 45.671875 -33.796875 C 47.648438 -30.203125 48.640625 -26.109375 48.640625 -21.515625 Z M 38.15625 -26.796875 C 37.46875 -29.628906 36.082031 -31.800781 34 -33.3125 C 31.914062 -34.832031 29.222656 -35.59375 25.921875 -35.59375 C 22.773438 -35.59375 20.144531 -34.832031 18.03125 -33.3125 C 15.925781 -31.800781 14.445312 -29.628906 13.59375 -26.796875 Z M 38.15625 -26.796875 "/></g></g></g><g fill="#ffffff" fill-opacity="1"><g transform="translate(154.615843, 639.522948)"><g><path d="M 43.765625 0 L 33.921875 0 L 33.921875 -4.234375 C 31.941406 -2.265625 29.992188 -0.890625 28.078125 -0.109375 C 26.160156 0.660156 23.867188 1.046875 21.203125 1.046875 C 17.785156 1.046875 14.8125 0.328125 12.28125 -1.109375 C 9.75 -2.554688 7.785156 -4.863281 6.390625 -8.03125 C 5.003906 -11.207031 4.3125 -15.382812 4.3125 -20.5625 L 4.3125 -44.3125 L 14.953125 -44.3125 L 14.953125 -22.640625 C 14.953125 -18.742188 15.300781 -15.796875 16 -13.796875 C 16.695312 -11.796875 17.671875 -10.445312 18.921875 -9.75 C 20.171875 -9.0625 21.648438 -8.71875 23.359375 -8.71875 C 27.035156 -8.71875 29.726562 -10.078125 31.4375 -12.796875 C 32.019531 -13.804688 32.445312 -15.097656 32.71875 -16.671875 C 32.988281 -18.253906 33.125 -20.507812 33.125 -23.4375 L 33.125 -44.3125 L 43.765625 -44.3125 Z M 43.765625 0 "/></g></g></g><g fill="#ffffff" fill-opacity="1"><g transform="translate(202.611184, 639.522948)"><g><path d="M 24.484375 -35.125 C 18.128906 -34.957031 14.953125 -31.460938 14.953125 -24.640625 L 14.953125 0 L 4.3125 0 L 4.3125 -44.3125 L 14.078125 -44.3125 L 14.078125 -40 C 15.460938 -42.03125 16.832031 -43.429688 18.1875 -44.203125 C 19.550781 -44.972656 21.382812 -45.359375 23.6875 -45.359375 L 24.484375 -45.359375 Z M 24.484375 -35.125 "/></g></g></g><g fill="#ffffff" fill-opacity="1"><g transform="translate(228.208697, 639.522948)"><g><path d="M 49.515625 -21.84375 C 49.515625 -18.75 48.898438 -15.8125 47.671875 -13.03125 C 46.453125 -10.257812 44.75 -7.820312 42.5625 -5.71875 C 40.375 -3.613281 37.851562 -1.957031 35 -0.75 C 32.144531 0.445312 29.117188 1.046875 25.921875 1.046875 C 22.671875 1.046875 19.628906 0.445312 16.796875 -0.75 C 13.972656 -1.957031 11.476562 -3.625 9.3125 -5.75 C 7.15625 -7.882812 5.460938 -10.351562 4.234375 -13.15625 C 3.015625 -15.957031 2.40625 -18.957031 2.40625 -22.15625 C 2.40625 -25.351562 3.015625 -28.351562 4.234375 -31.15625 C 5.460938 -33.957031 7.15625 -36.425781 9.3125 -38.5625 C 11.476562 -40.695312 13.972656 -42.363281 16.796875 -43.5625 C 19.628906 -44.757812 22.644531 -45.359375 25.84375 -45.359375 C 29.195312 -45.359375 32.300781 -44.757812 35.15625 -43.5625 C 38.007812 -42.363281 40.515625 -40.695312 42.671875 -38.5625 C 44.835938 -36.425781 46.519531 -33.929688 47.71875 -31.078125 C 48.914062 -28.222656 49.515625 -25.144531 49.515625 -21.84375 Z M 38.796875 -22.15625 C 38.796875 -24.613281 38.222656 -26.851562 37.078125 -28.875 C 35.929688 -30.90625 34.382812 -32.53125 32.4375 -33.75 C 30.488281 -34.976562 28.316406 -35.59375 25.921875 -35.59375 C 23.628906 -35.59375 21.507812 -34.992188 19.5625 -33.796875 C 17.613281 -32.597656 16.050781 -31 14.875 -29 C 13.707031 -27 13.125 -24.769531 13.125 -22.3125 C 13.125 -19.8125 13.695312 -17.519531 14.84375 -15.4375 C 15.988281 -13.351562 17.535156 -11.710938 19.484375 -10.515625 C 21.429688 -9.316406 23.601562 -8.71875 26 -8.71875 C 28.34375 -8.71875 30.488281 -9.316406 32.4375 -10.515625 C 34.382812 -11.710938 35.929688 -13.335938 37.078125 -15.390625 C 38.222656 -17.453125 38.796875 -19.707031 38.796875 -22.15625 Z M 38.796875 -22.15625 "/></g></g></g><g fill="#ffffff" fill-opacity="1"><g transform="translate(279.403737, 639.522948)"><g><path d="M 50.71875 -22.3125 C 50.71875 -17.832031 49.753906 -13.832031 47.828125 -10.3125 C 45.910156 -6.800781 43.285156 -4.03125 39.953125 -2 C 36.617188 0.03125 32.820312 1.046875 28.5625 1.046875 C 23.332031 1.046875 18.796875 -0.6875 14.953125 -4.15625 L 14.953125 14.796875 L 4.3125 14.796875 L 4.3125 -44.3125 L 14.078125 -44.3125 L 14.078125 -39.125 C 17.648438 -43.28125 22.503906 -45.359375 28.640625 -45.359375 C 32.910156 -45.359375 36.710938 -44.367188 40.046875 -42.390625 C 43.378906 -40.421875 45.988281 -37.703125 47.875 -34.234375 C 49.769531 -30.773438 50.71875 -26.800781 50.71875 -22.3125 Z M 40 -22.078125 C 40 -24.640625 39.4375 -26.929688 38.3125 -28.953125 C 37.195312 -30.984375 35.675781 -32.597656 33.75 -33.796875 C 31.832031 -34.992188 29.675781 -35.59375 27.28125 -35.59375 C 24.820312 -35.59375 22.617188 -35.003906 20.671875 -33.828125 C 18.734375 -32.660156 17.1875 -31.078125 16.03125 -29.078125 C 14.882812 -27.078125 14.3125 -24.796875 14.3125 -22.234375 C 14.3125 -19.679688 14.882812 -17.375 16.03125 -15.3125 C 17.1875 -13.257812 18.75 -11.644531 20.71875 -10.46875 C 22.695312 -9.300781 24.9375 -8.71875 27.4375 -8.71875 C 29.78125 -8.71875 31.898438 -9.300781 33.796875 -10.46875 C 35.691406 -11.644531 37.195312 -13.242188 38.3125 -15.265625 C 39.4375 -17.296875 40 -19.566406 40 -22.078125 Z M 40 -22.078125 "/></g></g></g><g fill="#ffffff" fill-opacity="1"><g transform="translate(332.198625, 639.522948)"><g><path d="M 33.59375 -14.078125 C 33.59375 -11.253906 32.882812 -8.691406 31.46875 -6.390625 C 30.0625 -4.097656 28.171875 -2.285156 25.796875 -0.953125 C 23.421875 0.378906 20.742188 1.046875 17.765625 1.046875 C 13.390625 1.046875 9.734375 -0.175781 6.796875 -2.625 C 3.867188 -5.082031 2.109375 -8.898438 1.515625 -14.078125 L 12.234375 -14.078125 C 12.773438 -12.210938 13.507812 -10.851562 14.4375 -10 C 15.375 -9.144531 16.613281 -8.71875 18.15625 -8.71875 C 19.539062 -8.71875 20.6875 -9.128906 21.59375 -9.953125 C 22.5 -10.785156 22.953125 -11.816406 22.953125 -13.046875 C 22.953125 -13.890625 22.816406 -14.578125 22.546875 -15.109375 C 22.285156 -15.648438 21.632812 -16.1875 20.59375 -16.71875 C 19.5625 -17.25 17.84375 -17.914062 15.4375 -18.71875 C 11.0625 -20.207031 7.914062 -21.953125 6 -23.953125 C 4.082031 -25.953125 3.125 -28.582031 3.125 -31.84375 C 3.125 -34.40625 3.773438 -36.695312 5.078125 -38.71875 C 6.390625 -40.75 8.164062 -42.363281 10.40625 -43.5625 C 12.644531 -44.757812 15.125 -45.359375 17.84375 -45.359375 C 20.34375 -45.359375 22.671875 -44.820312 24.828125 -43.75 C 26.992188 -42.6875 28.769531 -41.164062 30.15625 -39.1875 C 31.539062 -37.21875 32.289062 -34.847656 32.40625 -32.078125 L 22 -32.078125 C 21.519531 -34.421875 20.132812 -35.59375 17.84375 -35.59375 C 16.664062 -35.59375 15.691406 -35.234375 14.921875 -34.515625 C 14.148438 -33.796875 13.765625 -32.90625 13.765625 -31.84375 C 13.765625 -31.09375 13.882812 -30.503906 14.125 -30.078125 C 14.363281 -29.648438 15.015625 -29.234375 16.078125 -28.828125 C 17.148438 -28.429688 18.882812 -27.835938 21.28125 -27.046875 C 25.914062 -25.597656 29.125 -23.898438 30.90625 -21.953125 C 32.695312 -20.015625 33.59375 -17.390625 33.59375 -14.078125 Z M 33.59375 -14.078125 "/></g></g></g><g fill="#ffffff" fill-opacity="1"><g transform="translate(367.395202, 639.522948)"><g><path d="M 45.4375 -44.3125 L 19.84375 14.796875 L 8.40625 14.796875 L 16.71875 -4.15625 L 0.484375 -44.3125 L 12.640625 -44.3125 L 22.484375 -15.59375 L 33.203125 -44.3125 Z M 45.4375 -44.3125 "/></g></g></g><g fill="#ffffff" fill-opacity="1"><g transform="translate(413.790693, 639.522948)"><g><path d="M 48.078125 -14.5625 C 46.265625 -9.601562 43.4375 -5.757812 39.59375 -3.03125 C 35.757812 -0.3125 31.253906 1.046875 26.078125 1.046875 C 22.828125 1.046875 19.757812 0.445312 16.875 -0.75 C 14 -1.957031 11.476562 -3.613281 9.3125 -5.71875 C 7.15625 -7.820312 5.460938 -10.285156 4.234375 -13.109375 C 3.015625 -15.941406 2.40625 -18.957031 2.40625 -22.15625 C 2.40625 -25.414062 3.003906 -28.457031 4.203125 -31.28125 C 5.398438 -34.101562 7.050781 -36.566406 9.15625 -38.671875 C 11.257812 -40.785156 13.738281 -42.425781 16.59375 -43.59375 C 19.445312 -44.769531 22.503906 -45.359375 25.765625 -45.359375 C 30.828125 -45.359375 35.382812 -43.984375 39.4375 -41.234375 C 43.488281 -38.492188 46.367188 -34.585938 48.078125 -29.515625 L 36.078125 -29.515625 C 33.941406 -33.566406 30.503906 -35.59375 25.765625 -35.59375 C 23.304688 -35.59375 21.128906 -35.019531 19.234375 -33.875 C 17.347656 -32.726562 15.859375 -31.15625 14.765625 -29.15625 C 13.671875 -27.15625 13.125 -24.847656 13.125 -22.234375 C 13.125 -19.679688 13.679688 -17.375 14.796875 -15.3125 C 15.921875 -13.257812 17.453125 -11.644531 19.390625 -10.46875 C 21.335938 -9.300781 23.539062 -8.71875 26 -8.71875 C 28.1875 -8.71875 30.078125 -9.179688 31.671875 -10.109375 C 33.273438 -11.046875 34.742188 -12.53125 36.078125 -14.5625 Z M 48.078125 -14.5625 "/></g></g></g><g fill="#ffffff" fill-opacity="1"><g transform="translate(464.985698, 639.522948)"><g><path d="M 43.59375 0 L 32.953125 0 L 32.953125 -22.640625 C 32.953125 -27.273438 32.300781 -30.59375 31 -32.59375 C 29.695312 -34.59375 27.46875 -35.59375 24.3125 -35.59375 C 21.28125 -35.59375 18.960938 -34.632812 17.359375 -32.71875 C 15.753906 -30.800781 14.953125 -27.390625 14.953125 -22.484375 L 14.953125 0 L 4.3125 0 L 4.3125 -59.125 L 14.953125 -59.125 L 14.953125 -41.28125 C 18.046875 -44.050781 21.804688 -45.4375 26.234375 -45.4375 C 31.566406 -45.4375 35.789062 -43.863281 38.90625 -40.71875 C 42.03125 -37.570312 43.59375 -32.347656 43.59375 -25.046875 Z M 43.59375 0 "/></g></g></g><g fill="#ffffff" fill-opacity="1"><g transform="translate(512.981026, 639.522948)"><g><path d="M 49.515625 -21.84375 C 49.515625 -18.75 48.898438 -15.8125 47.671875 -13.03125 C 46.453125 -10.257812 44.75 -7.820312 42.5625 -5.71875 C 40.375 -3.613281 37.851562 -1.957031 35 -0.75 C 32.144531 0.445312 29.117188 1.046875 25.921875 1.046875 C 22.671875 1.046875 19.628906 0.445312 16.796875 -0.75 C 13.972656 -1.957031 11.476562 -3.625 9.3125 -5.75 C 7.15625 -7.882812 5.460938 -10.351562 4.234375 -13.15625 C 3.015625 -15.957031 2.40625 -18.957031 2.40625 -22.15625 C 2.40625 -25.351562 3.015625 -28.351562 4.234375 -31.15625 C 5.460938 -33.957031 7.15625 -36.425781 9.3125 -38.5625 C 11.476562 -40.695312 13.972656 -42.363281 16.796875 -43.5625 C 19.628906 -44.757812 22.644531 -45.359375 25.84375 -45.359375 C 29.195312 -45.359375 32.300781 -44.757812 35.15625 -43.5625 C 38.007812 -42.363281 40.515625 -40.695312 42.671875 -38.5625 C 44.835938 -36.425781 46.519531 -33.929688 47.71875 -31.078125 C 48.914062 -28.222656 49.515625 -25.144531 49.515625 -21.84375 Z M 38.796875 -22.15625 C 38.796875 -24.613281 38.222656 -26.851562 37.078125 -28.875 C 35.929688 -30.90625 34.382812 -32.53125 32.4375 -33.75 C 30.488281 -34.976562 28.316406 -35.59375 25.921875 -35.59375 C 23.628906 -35.59375 21.507812 -34.992188 19.5625 -33.796875 C 17.613281 -32.597656 16.050781 -31 14.875 -29 C 13.707031 -27 13.125 -24.769531 13.125 -22.3125 C 13.125 -19.8125 13.695312 -17.519531 14.84375 -15.4375 C 15.988281 -13.351562 17.535156 -11.710938 19.484375 -10.515625 C 21.429688 -9.316406 23.601562 -8.71875 26 -8.71875 C 28.34375 -8.71875 30.488281 -9.316406 32.4375 -10.515625 C 34.382812 -11.710938 35.929688 -13.335938 37.078125 -15.390625 C 38.222656 -17.453125 38.796875 -19.707031 38.796875 -22.15625 Z M 38.796875 -22.15625 "/></g></g></g><g fill="#ffffff" fill-opacity="1"><g transform="translate(564.176031, 639.522948)"><g><path d="M 14.953125 0 L 4.3125 0 L 4.3125 -59.125 L 14.953125 -59.125 Z M 14.953125 0 "/></g></g></g><g fill="#ffffff" fill-opacity="1"><g transform="translate(583.37418, 639.522948)"><g><path d="M 49.515625 -21.84375 C 49.515625 -18.75 48.898438 -15.8125 47.671875 -13.03125 C 46.453125 -10.257812 44.75 -7.820312 42.5625 -5.71875 C 40.375 -3.613281 37.851562 -1.957031 35 -0.75 C 32.144531 0.445312 29.117188 1.046875 25.921875 1.046875 C 22.671875 1.046875 19.628906 0.445312 16.796875 -0.75 C 13.972656 -1.957031 11.476562 -3.625 9.3125 -5.75 C 7.15625 -7.882812 5.460938 -10.351562 4.234375 -13.15625 C 3.015625 -15.957031 2.40625 -18.957031 2.40625 -22.15625 C 2.40625 -25.351562 3.015625 -28.351562 4.234375 -31.15625 C 5.460938 -33.957031 7.15625 -36.425781 9.3125 -38.5625 C 11.476562 -40.695312 13.972656 -42.363281 16.796875 -43.5625 C 19.628906 -44.757812 22.644531 -45.359375 25.84375 -45.359375 C 29.195312 -45.359375 32.300781 -44.757812 35.15625 -43.5625 C 38.007812 -42.363281 40.515625 -40.695312 42.671875 -38.5625 C 44.835938 -36.425781 46.519531 -33.929688 47.71875 -31.078125 C 48.914062 -28.222656 49.515625 -25.144531 49.515625 -21.84375 Z M 38.796875 -22.15625 C 38.796875 -24.613281 38.222656 -26.851562 37.078125 -28.875 C 35.929688 -30.90625 34.382812 -32.53125 32.4375 -33.75 C 30.488281 -34.976562 28.316406 -35.59375 25.921875 -35.59375 C 23.628906 -35.59375 21.507812 -34.992188 19.5625 -33.796875 C 17.613281 -32.597656 16.050781 -31 14.875 -29 C 13.707031 -27 13.125 -24.769531 13.125 -22.3125 C 13.125 -19.8125 13.695312 -17.519531 14.84375 -15.4375 C 15.988281 -13.351562 17.535156 -11.710938 19.484375 -10.515625 C 21.429688 -9.316406 23.601562 -8.71875 26 -8.71875 C 28.34375 -8.71875 30.488281 -9.316406 32.4375 -10.515625 C 34.382812 -11.710938 35.929688 -13.335938 37.078125 -15.390625 C 38.222656 -17.453125 38.796875 -19.707031 38.796875 -22.15625 Z M 38.796875 -22.15625 "/></g></g></g><g fill="#ffffff" fill-opacity="1"><g transform="translate(634.569185, 639.522948)"><g><path d="M 48.875 -8.40625 C 48.875 -2.050781 47.914062 3.03125 46 6.84375 C 44.082031 10.65625 41.398438 13.414062 37.953125 15.125 C 34.515625 16.832031 30.503906 17.6875 25.921875 17.6875 C 20.484375 17.6875 15.773438 16.441406 11.796875 13.953125 C 7.828125 11.472656 4.9375 8.019531 3.125 3.59375 L 15.203125 3.59375 C 16.742188 5.300781 18.367188 6.515625 20.078125 7.234375 C 21.785156 7.953125 23.863281 8.3125 26.3125 8.3125 C 34.207031 8.3125 38.34375 3.59375 38.71875 -5.84375 C 36.632812 -3.382812 34.472656 -1.617188 32.234375 -0.546875 C 29.992188 0.515625 27.300781 1.046875 24.15625 1.046875 C 19.945312 1.046875 16.203125 0.03125 12.921875 -2 C 9.640625 -4.03125 7.066406 -6.816406 5.203125 -10.359375 C 3.335938 -13.910156 2.40625 -17.953125 2.40625 -22.484375 C 2.40625 -26.859375 3.347656 -30.765625 5.234375 -34.203125 C 7.128906 -37.640625 9.726562 -40.359375 13.03125 -42.359375 C 16.34375 -44.359375 20.078125 -45.359375 24.234375 -45.359375 C 30.640625 -45.359375 35.46875 -43.144531 38.71875 -38.71875 L 38.71875 -44.3125 L 48.875 -44.3125 Z M 38.234375 -22 C 38.234375 -26.050781 37.046875 -29.328125 34.671875 -31.828125 C 32.304688 -34.335938 29.226562 -35.59375 25.4375 -35.59375 C 21.707031 -35.59375 18.722656 -34.351562 16.484375 -31.875 C 14.242188 -29.394531 13.125 -26.101562 13.125 -22 C 13.125 -17.945312 14.253906 -14.71875 16.515625 -12.3125 C 18.785156 -9.914062 21.8125 -8.71875 25.59375 -8.71875 C 29.382812 -8.71875 32.4375 -9.929688 34.75 -12.359375 C 37.070312 -14.785156 38.234375 -18 38.234375 -22 Z M 38.234375 -22 "/></g></g></g><g fill="#ffffff" fill-opacity="1"><g transform="translate(687.364073, 639.522948)"><g><path d="M 14.953125 0 L 4.3125 0 L 4.3125 -44.3125 L 14.953125 -44.3125 Z M 15.046875 -50.71875 L 4.40625 -50.71875 L 4.40625 -61.359375 L 15.046875 -61.359375 Z M 15.046875 -50.71875 "/></g></g></g><g fill="#ffffff" fill-opacity="1"><g transform="translate(706.562223, 639.522948)"><g><path d="M 33.59375 -14.078125 C 33.59375 -11.253906 32.882812 -8.691406 31.46875 -6.390625 C 30.0625 -4.097656 28.171875 -2.285156 25.796875 -0.953125 C 23.421875 0.378906 20.742188 1.046875 17.765625 1.046875 C 13.390625 1.046875 9.734375 -0.175781 6.796875 -2.625 C 3.867188 -5.082031 2.109375 -8.898438 1.515625 -14.078125 L 12.234375 -14.078125 C 12.773438 -12.210938 13.507812 -10.851562 14.4375 -10 C 15.375 -9.144531 16.613281 -8.71875 18.15625 -8.71875 C 19.539062 -8.71875 20.6875 -9.128906 21.59375 -9.953125 C 22.5 -10.785156 22.953125 -11.816406 22.953125 -13.046875 C 22.953125 -13.890625 22.816406 -14.578125 22.546875 -15.109375 C 22.285156 -15.648438 21.632812 -16.1875 20.59375 -16.71875 C 19.5625 -17.25 17.84375 -17.914062 15.4375 -18.71875 C 11.0625 -20.207031 7.914062 -21.953125 6 -23.953125 C 4.082031 -25.953125 3.125 -28.582031 3.125 -31.84375 C 3.125 -34.40625 3.773438 -36.695312 5.078125 -38.71875 C 6.390625 -40.75 8.164062 -42.363281 10.40625 -43.5625 C 12.644531 -44.757812 15.125 -45.359375 17.84375 -45.359375 C 20.34375 -45.359375 22.671875 -44.820312 24.828125 -43.75 C 26.992188 -42.6875 28.769531 -41.164062 30.15625 -39.1875 C 31.539062 -37.21875 32.289062 -34.847656 32.40625 -32.078125 L 22 -32.078125 C 21.519531 -34.421875 20.132812 -35.59375 17.84375 -35.59375 C 16.664062 -35.59375 15.691406 -35.234375 14.921875 -34.515625 C 14.148438 -33.796875 13.765625 -32.90625 13.765625 -31.84375 C 13.765625 -31.09375 13.882812 -30.503906 14.125 -30.078125 C 14.363281 -29.648438 15.015625 -29.234375 16.078125 -28.828125 C 17.148438 -28.429688 18.882812 -27.835938 21.28125 -27.046875 C 25.914062 -25.597656 29.125 -23.898438 30.90625 -21.953125 C 32.695312 -20.015625 33.59375 -17.390625 33.59375 -14.078125 Z M 33.59375 -14.078125 "/></g></g></g><g fill="#ffffff" fill-opacity="1"><g transform="translate(741.7588, 639.522948)"><g><path d="M 22.953125 -34.640625 L 16.5625 -34.640625 L 16.5625 0 L 5.921875 0 L 5.921875 -34.640625 L 0.71875 -34.640625 L 0.71875 -44.3125 L 5.921875 -44.3125 L 5.921875 -59.125 L 16.5625 -59.125 L 16.5625 -44.3125 L 22.953125 -44.3125 Z M 22.953125 -34.640625 "/></g></g></g><g fill="#ffffff" fill-opacity="1"><g transform="translate(129.846076, 189.866034)"><g><path d="M 62.203125 0 L 45.0625 0 L 21.28125 -33.75 L 21.28125 0 L 7.0625 0 L 7.0625 -76.734375 L 21.28125 -76.734375 L 21.28125 -43.609375 L 45.0625 -76.734375 L 62.203125 -76.734375 L 33.328125 -39.046875 Z M 62.203125 0 "/></g></g></g><g fill="#ffffff" fill-opacity="1"><g transform="translate(194.219512, 189.866034)"><g><path d="M 19.421875 0 L 5.609375 0 L 5.609375 -57.53125 L 19.421875 -57.53125 Z M 19.515625 -65.84375 L 5.71875 -65.84375 L 5.71875 -79.640625 L 19.515625 -79.640625 Z M 19.515625 -65.84375 "/></g></g></g><g fill="#ffffff" fill-opacity="1"><g transform="translate(219.138265, 189.866034)"><g><path d="M 31.78125 -45.59375 C 23.539062 -45.382812 19.421875 -40.847656 19.421875 -31.984375 L 19.421875 0 L 5.609375 0 L 5.609375 -57.53125 L 18.28125 -57.53125 L 18.28125 -51.921875 C 20.070312 -54.554688 21.847656 -56.375 23.609375 -57.375 C 25.378906 -58.375 27.753906 -58.875 30.734375 -58.875 L 31.78125 -58.875 Z M 31.78125 -45.59375 "/></g></g></g><g fill="#ffffff" fill-opacity="1"><g transform="translate(252.363266, 189.866034)"><g><path d="M 63.859375 0 L 51.1875 0 L 51.1875 -7.484375 C 48.425781 -4.359375 45.570312 -2.101562 42.625 -0.71875 C 39.6875 0.65625 36.175781 1.34375 32.09375 1.34375 C 26.476562 1.34375 21.488281 0.0664062 17.125 -2.484375 C 12.769531 -5.046875 9.34375 -8.59375 6.84375 -13.125 C 4.351562 -17.664062 3.109375 -22.8125 3.109375 -28.5625 C 3.109375 -34.445312 4.375 -39.65625 6.90625 -44.1875 C 9.4375 -48.71875 12.898438 -52.296875 17.296875 -54.921875 C 21.691406 -57.554688 26.726562 -58.875 32.40625 -58.875 C 36.550781 -58.875 40.128906 -58.164062 43.140625 -56.75 C 46.160156 -55.332031 48.84375 -53.03125 51.1875 -49.84375 L 51.1875 -57.53125 L 63.859375 -57.53125 Z M 50.78125 -28.34375 C 50.78125 -31.875 50.050781 -34.972656 48.59375 -37.640625 C 47.144531 -40.304688 45.15625 -42.398438 42.625 -43.921875 C 40.101562 -45.441406 37.179688 -46.203125 33.859375 -46.203125 C 30.597656 -46.203125 27.6875 -45.441406 25.125 -43.921875 C 22.5625 -42.398438 20.570312 -40.289062 19.15625 -37.59375 C 17.738281 -34.894531 17.03125 -31.78125 17.03125 -28.25 C 17.03125 -23.195312 18.601562 -19.109375 21.75 -15.984375 C 24.90625 -12.867188 29.007812 -11.3125 34.0625 -11.3125 C 37.59375 -11.3125 40.601562 -12.070312 43.09375 -13.59375 C 45.582031 -15.125 47.484375 -17.171875 48.796875 -19.734375 C 50.117188 -22.296875 50.78125 -25.164062 50.78125 -28.34375 Z M 50.78125 -28.34375 "/></g></g></g><g fill="#ffffff" fill-opacity="1"><g transform="translate(320.889832, 189.866034)"><g/></g></g><g fill="#ffffff" fill-opacity="1"><g transform="translate(349.961703, 189.866034)"><g><path d="M 21.28125 0 L 7.0625 0 L 7.0625 -76.734375 L 21.28125 -76.734375 Z M 21.28125 0 "/></g></g></g><g fill="#ffffff" fill-opacity="1"><g transform="translate(379.033563, 189.866034)"><g><path d="M 57.421875 -57.53125 L 34.265625 0 L 23.265625 0 L 0.109375 -57.53125 L 15.46875 -57.53125 L 28.765625 -19.421875 L 41.84375 -57.53125 Z M 57.421875 -57.53125 "/></g></g></g><g fill="#ffffff" fill-opacity="1"><g transform="translate(437.177328, 189.866034)"><g><path d="M 19.421875 0 L 5.609375 0 L 5.609375 -76.734375 L 19.421875 -76.734375 Z M 19.421875 0 "/></g></g></g><g fill="#ffffff" fill-opacity="1"><g transform="translate(462.096082, 189.866034)"><g><path d="M 19.421875 0 L 5.609375 0 L 5.609375 -57.53125 L 19.421875 -57.53125 Z M 19.515625 -65.84375 L 5.71875 -65.84375 L 5.71875 -79.640625 L 19.515625 -79.640625 Z M 19.515625 -65.84375 "/></g></g></g><g fill="#ffffff" fill-opacity="1"><g transform="translate(487.014835, 189.866034)"><g><path d="M 63.140625 -27.9375 C 63.140625 -26.894531 63.101562 -25.992188 63.03125 -25.234375 C 62.957031 -24.472656 62.820312 -23.609375 62.625 -22.640625 L 18.0625 -22.640625 C 18.894531 -19.179688 20.726562 -16.425781 23.5625 -14.375 C 26.40625 -12.332031 29.867188 -11.3125 33.953125 -11.3125 C 36.796875 -11.3125 39.1875 -11.742188 41.125 -12.609375 C 43.0625 -13.484375 44.894531 -14.957031 46.625 -17.03125 L 61.6875 -17.03125 C 60.4375 -13.082031 58.375 -9.738281 55.5 -7 C 52.625 -4.269531 49.332031 -2.195312 45.625 -0.78125 C 41.925781 0.632812 38.140625 1.34375 34.265625 1.34375 C 29.898438 1.34375 25.832031 0.582031 22.0625 -0.9375 C 18.289062 -2.457031 14.984375 -4.582031 12.140625 -7.3125 C 9.304688 -10.050781 7.09375 -13.21875 5.5 -16.8125 C 3.90625 -20.414062 3.109375 -24.332031 3.109375 -28.5625 C 3.109375 -32.78125 3.882812 -36.722656 5.4375 -40.390625 C 7 -44.066406 9.164062 -47.285156 11.9375 -50.046875 C 14.707031 -52.816406 17.925781 -54.976562 21.59375 -56.53125 C 25.269531 -58.09375 29.21875 -58.875 33.4375 -58.875 C 39.1875 -58.875 44.289062 -57.539062 48.75 -54.875 C 53.21875 -52.21875 56.734375 -48.550781 59.296875 -43.875 C 61.859375 -39.195312 63.140625 -33.882812 63.140625 -27.9375 Z M 49.53125 -34.78125 C 48.632812 -38.457031 46.832031 -41.28125 44.125 -43.25 C 41.425781 -45.21875 37.929688 -46.203125 33.640625 -46.203125 C 29.554688 -46.203125 26.144531 -45.21875 23.40625 -43.25 C 20.675781 -41.28125 18.757812 -38.457031 17.65625 -34.78125 Z M 49.53125 -34.78125 "/></g></g></g><g fill="#ffffff" fill-opacity="1"><g transform="translate(553.464859, 189.866034)"><g><path d="M 57.421875 -57.53125 L 34.265625 0 L 23.265625 0 L 0.109375 -57.53125 L 15.46875 -57.53125 L 28.765625 -19.421875 L 41.84375 -57.53125 Z M 57.421875 -57.53125 "/></g></g></g><g fill="#ffffff" fill-opacity="1"><g transform="translate(611.608624, 189.866034)"><g><path d="M 63.859375 0 L 51.1875 0 L 51.1875 -7.484375 C 48.425781 -4.359375 45.570312 -2.101562 42.625 -0.71875 C 39.6875 0.65625 36.175781 1.34375 32.09375 1.34375 C 26.476562 1.34375 21.488281 0.0664062 17.125 -2.484375 C 12.769531 -5.046875 9.34375 -8.59375 6.84375 -13.125 C 4.351562 -17.664062 3.109375 -22.8125 3.109375 -28.5625 C 3.109375 -34.445312 4.375 -39.65625 6.90625 -44.1875 C 9.4375 -48.71875 12.898438 -52.296875 17.296875 -54.921875 C 21.691406 -57.554688 26.726562 -58.875 32.40625 -58.875 C 36.550781 -58.875 40.128906 -58.164062 43.140625 -56.75 C 46.160156 -55.332031 48.84375 -53.03125 51.1875 -49.84375 L 51.1875 -57.53125 L 63.859375 -57.53125 Z M 50.78125 -28.34375 C 50.78125 -31.875 50.050781 -34.972656 48.59375 -37.640625 C 47.144531 -40.304688 45.15625 -42.398438 42.625 -43.921875 C 40.101562 -45.441406 37.179688 -46.203125 33.859375 -46.203125 C 30.597656 -46.203125 27.6875 -45.441406 25.125 -43.921875 C 22.5625 -42.398438 20.570312 -40.289062 19.15625 -37.59375 C 17.738281 -34.894531 17.03125 -31.78125 17.03125 -28.25 C 17.03125 -23.195312 18.601562 -19.109375 21.75 -15.984375 C 24.90625 -12.867188 29.007812 -11.3125 34.0625 -11.3125 C 37.59375 -11.3125 40.601562 -12.070312 43.09375 -13.59375 C 45.582031 -15.125 47.484375 -17.171875 48.796875 -19.734375 C 50.117188 -22.296875 50.78125 -25.164062 50.78125 -28.34375 Z M 50.78125 -28.34375 "/></g></g></g><g fill="#ffffff" fill-opacity="1"><g transform="translate(44.777345, 716.54636)"><g><path d="M 52.453125 -5.765625 L 44.953125 1.03125 L 36.65625 -7.734375 C 35.019531 -5.523438 33.460938 -3.773438 31.984375 -2.484375 C 30.515625 -1.191406 28.976562 -0.285156 27.375 0.234375 C 25.769531 0.765625 23.910156 1.03125 21.796875 1.03125 C 18.273438 1.03125 15.066406 0.203125 12.171875 -1.453125 C 9.273438 -3.117188 6.984375 -5.359375 5.296875 -8.171875 C 3.609375 -10.992188 2.765625 -14.140625 2.765625 -17.609375 C 2.765625 -21.191406 3.632812 -24.285156 5.375 -26.890625 C 7.113281 -29.503906 9.878906 -31.941406 13.671875 -34.203125 C 11.773438 -36.367188 10.484375 -38.175781 9.796875 -39.625 C 9.109375 -41.070312 8.765625 -42.847656 8.765625 -44.953125 C 8.765625 -47.691406 9.410156 -50.140625 10.703125 -52.296875 C 11.992188 -54.453125 13.757812 -56.175781 16 -57.46875 C 18.238281 -58.757812 20.753906 -59.40625 23.546875 -59.40625 C 26.390625 -59.40625 28.941406 -58.769531 31.203125 -57.5 C 33.472656 -56.238281 35.265625 -54.53125 36.578125 -52.375 C 37.890625 -50.21875 38.546875 -47.769531 38.546875 -45.03125 C 38.546875 -42.925781 38.269531 -41.082031 37.71875 -39.5 C 37.164062 -37.914062 36.226562 -36.4375 34.90625 -35.0625 C 33.59375 -33.695312 31.753906 -32.253906 29.390625 -30.734375 L 34.6875 -24.8125 L 40.375 -34.203125 L 52.140625 -34.203125 L 42.03125 -16.90625 Z M 28.515625 -44.71875 C 28.515625 -46.132812 28.066406 -47.289062 27.171875 -48.1875 C 26.273438 -49.082031 25.117188 -49.53125 23.703125 -49.53125 C 22.328125 -49.53125 21.164062 -49.082031 20.21875 -48.1875 C 19.269531 -47.289062 18.796875 -46.160156 18.796875 -44.796875 C 18.796875 -43.742188 19.085938 -42.726562 19.671875 -41.75 C 20.253906 -40.78125 21.304688 -39.53125 22.828125 -38 C 25.046875 -39.207031 26.546875 -40.257812 27.328125 -41.15625 C 28.117188 -42.050781 28.515625 -43.238281 28.515625 -44.71875 Z M 29.390625 -15.640625 L 20.296875 -25.4375 C 17.878906 -24.332031 16.101562 -23.109375 14.96875 -21.765625 C 13.832031 -20.421875 13.265625 -18.828125 13.265625 -16.984375 C 13.265625 -14.828125 14.015625 -13.023438 15.515625 -11.578125 C 17.023438 -10.128906 18.910156 -9.40625 21.171875 -9.40625 C 22.910156 -9.40625 24.382812 -9.851562 25.59375 -10.75 C 26.800781 -11.644531 28.066406 -13.273438 29.390625 -15.640625 Z M 29.390625 -15.640625 "/></g></g></g><g fill="#ffffff" fill-opacity="1"><g transform="translate(98.494662, 716.54636)"><g/></g></g><g fill="#ffffff" fill-opacity="1"><g transform="translate(120.613561, 716.54636)"><g><path d="M 33.015625 -48.03125 L 22.203125 -48.03125 L 22.203125 0 L 11.375 0 L 11.375 -48.03125 L 0.546875 -48.03125 L 0.546875 -58.375 L 33.015625 -58.375 Z M 33.015625 -48.03125 "/></g></g></g><g fill="#ffffff" fill-opacity="1"><g transform="translate(153.791904, 716.54636)"><g><path d="M 24.171875 -34.6875 C 17.898438 -34.519531 14.765625 -31.066406 14.765625 -24.328125 L 14.765625 0 L 4.265625 0 L 4.265625 -43.765625 L 13.90625 -43.765625 L 13.90625 -39.5 C 15.269531 -41.5 16.625 -42.878906 17.96875 -43.640625 C 19.3125 -44.410156 21.117188 -44.796875 23.390625 -44.796875 L 24.171875 -44.796875 Z M 24.171875 -34.6875 "/></g></g></g><g fill="#ffffff" fill-opacity="1"><g transform="translate(179.070643, 716.54636)"><g><path d="M 48.578125 0 L 38.953125 0 L 38.953125 -5.6875 C 36.835938 -3.320312 34.660156 -1.609375 32.421875 -0.546875 C 30.191406 0.503906 27.519531 1.03125 24.40625 1.03125 C 20.144531 1.03125 16.351562 0.0546875 13.03125 -1.890625 C 9.71875 -3.835938 7.113281 -6.535156 5.21875 -9.984375 C 3.320312 -13.441406 2.375 -17.351562 2.375 -21.71875 C 2.375 -26.195312 3.332031 -30.160156 5.25 -33.609375 C 7.175781 -37.054688 9.8125 -39.78125 13.15625 -41.78125 C 16.5 -43.789062 20.328125 -44.796875 24.640625 -44.796875 C 27.804688 -44.796875 30.535156 -44.253906 32.828125 -43.171875 C 35.117188 -42.085938 37.160156 -40.335938 38.953125 -37.921875 L 38.953125 -43.765625 L 48.578125 -43.765625 Z M 38.625 -21.5625 C 38.625 -24.25 38.070312 -26.601562 36.96875 -28.625 C 35.863281 -30.65625 34.347656 -32.25 32.421875 -33.40625 C 30.503906 -34.570312 28.28125 -35.15625 25.75 -35.15625 C 23.28125 -35.15625 21.066406 -34.570312 19.109375 -33.40625 C 17.160156 -32.25 15.644531 -30.644531 14.5625 -28.59375 C 13.488281 -26.539062 12.953125 -24.171875 12.953125 -21.484375 C 12.953125 -17.640625 14.148438 -14.53125 16.546875 -12.15625 C 18.941406 -9.789062 22.0625 -8.609375 25.90625 -8.609375 C 28.59375 -8.609375 30.882812 -9.1875 32.78125 -10.34375 C 34.675781 -11.507812 36.125 -13.066406 37.125 -15.015625 C 38.125 -16.960938 38.625 -19.144531 38.625 -21.5625 Z M 38.625 -21.5625 "/></g></g></g><g fill="#ffffff" fill-opacity="1"><g transform="translate(231.208046, 716.54636)"><g><path d="M 43.21875 0 L 33.5 0 L 33.5 -4.1875 C 31.550781 -2.238281 29.628906 -0.878906 27.734375 -0.109375 C 25.835938 0.648438 23.570312 1.03125 20.9375 1.03125 C 17.5625 1.03125 14.625 0.320312 12.125 -1.09375 C 9.625 -2.519531 7.6875 -4.800781 6.3125 -7.9375 C 4.945312 -11.070312 4.265625 -15.191406 4.265625 -20.296875 L 4.265625 -43.765625 L 14.765625 -43.765625 L 14.765625 -22.359375 C 14.765625 -18.515625 15.109375 -15.601562 15.796875 -13.625 C 16.484375 -11.65625 17.445312 -10.328125 18.6875 -9.640625 C 19.925781 -8.953125 21.382812 -8.609375 23.0625 -8.609375 C 26.695312 -8.609375 29.359375 -9.953125 31.046875 -12.640625 C 31.628906 -13.640625 32.050781 -14.914062 32.3125 -16.46875 C 32.570312 -18.019531 32.703125 -20.242188 32.703125 -23.140625 L 32.703125 -43.765625 L 43.21875 -43.765625 Z M 43.21875 0 "/></g></g></g><g fill="#ffffff" fill-opacity="1"><g transform="translate(278.605672, 716.54636)"><g><path d="M 69.921875 0 L 59.40625 0 L 59.40625 -24.015625 C 59.40625 -26.960938 59.0625 -29.238281 58.375 -30.84375 C 57.695312 -32.457031 56.738281 -33.578125 55.5 -34.203125 C 54.257812 -34.835938 52.820312 -35.15625 51.1875 -35.15625 C 48.289062 -35.15625 46.09375 -34.191406 44.59375 -32.265625 C 43.09375 -30.347656 42.34375 -26.78125 42.34375 -21.5625 L 42.34375 0 L 31.84375 0 L 31.84375 -24.015625 C 31.84375 -28.335938 31.113281 -31.273438 29.65625 -32.828125 C 28.207031 -34.378906 26.09375 -35.15625 23.3125 -35.15625 C 20.25 -35.15625 18.054688 -34.179688 16.734375 -32.234375 C 15.421875 -30.285156 14.765625 -26.726562 14.765625 -21.5625 L 14.765625 0 L 4.265625 0 L 4.265625 -43.765625 L 13.90625 -43.765625 L 13.90625 -39.65625 C 15.425781 -41.5 17.054688 -42.816406 18.796875 -43.609375 C 20.535156 -44.398438 22.695312 -44.796875 25.28125 -44.796875 C 28.28125 -44.796875 30.804688 -44.253906 32.859375 -43.171875 C 34.910156 -42.085938 36.675781 -40.363281 38.15625 -38 C 39.945312 -40.363281 41.972656 -42.085938 44.234375 -43.171875 C 46.503906 -44.253906 49.164062 -44.796875 52.21875 -44.796875 C 58.007812 -44.796875 62.40625 -43.1875 65.40625 -39.96875 C 68.414062 -36.757812 69.921875 -31.863281 69.921875 -25.28125 Z M 69.921875 0 "/></g></g></g><g fill="#ffffff" fill-opacity="1"><g transform="translate(352.861963, 716.54636)"><g><path d="M 48.578125 0 L 38.953125 0 L 38.953125 -5.6875 C 36.835938 -3.320312 34.660156 -1.609375 32.421875 -0.546875 C 30.191406 0.503906 27.519531 1.03125 24.40625 1.03125 C 20.144531 1.03125 16.351562 0.0546875 13.03125 -1.890625 C 9.71875 -3.835938 7.113281 -6.535156 5.21875 -9.984375 C 3.320312 -13.441406 2.375 -17.351562 2.375 -21.71875 C 2.375 -26.195312 3.332031 -30.160156 5.25 -33.609375 C 7.175781 -37.054688 9.8125 -39.78125 13.15625 -41.78125 C 16.5 -43.789062 20.328125 -44.796875 24.640625 -44.796875 C 27.804688 -44.796875 30.535156 -44.253906 32.828125 -43.171875 C 35.117188 -42.085938 37.160156 -40.335938 38.953125 -37.921875 L 38.953125 -43.765625 L 48.578125 -43.765625 Z M 38.625 -21.5625 C 38.625 -24.25 38.070312 -26.601562 36.96875 -28.625 C 35.863281 -30.65625 34.347656 -32.25 32.421875 -33.40625 C 30.503906 -34.570312 28.28125 -35.15625 25.75 -35.15625 C 23.28125 -35.15625 21.066406 -34.570312 19.109375 -33.40625 C 17.160156 -32.25 15.644531 -30.644531 14.5625 -28.59375 C 13.488281 -26.539062 12.953125 -24.171875 12.953125 -21.484375 C 12.953125 -17.640625 14.148438 -14.53125 16.546875 -12.15625 C 18.941406 -9.789062 22.0625 -8.609375 25.90625 -8.609375 C 28.59375 -8.609375 30.882812 -9.1875 32.78125 -10.34375 C 34.675781 -11.507812 36.125 -13.066406 37.125 -15.015625 C 38.125 -16.960938 38.625 -19.144531 38.625 -21.5625 Z M 38.625 -21.5625 "/></g></g></g><g fill="#ffffff" fill-opacity="1"><g transform="translate(427.118254, 716.54636)"><g><path d="M 33.015625 -48.03125 L 22.203125 -48.03125 L 22.203125 0 L 11.375 0 L 11.375 -48.03125 L 0.546875 -48.03125 L 0.546875 -58.375 L 33.015625 -58.375 Z M 33.015625 -48.03125 "/></g></g></g><g fill="#ffffff" fill-opacity="1"><g transform="translate(460.296597, 716.54636)"><g><path d="M 43.0625 0 L 32.546875 0 L 32.546875 -22.359375 C 32.546875 -26.941406 31.898438 -30.21875 30.609375 -32.1875 C 29.316406 -34.164062 27.117188 -35.15625 24.015625 -35.15625 C 21.015625 -35.15625 18.722656 -34.207031 17.140625 -32.3125 C 15.554688 -30.414062 14.765625 -27.046875 14.765625 -22.203125 L 14.765625 0 L 4.265625 0 L 4.265625 -58.375 L 14.765625 -58.375 L 14.765625 -40.765625 C 17.828125 -43.503906 21.539062 -44.875 25.90625 -44.875 C 31.175781 -44.875 35.351562 -43.316406 38.4375 -40.203125 C 41.519531 -37.097656 43.0625 -31.941406 43.0625 -24.734375 Z M 43.0625 0 "/></g></g></g><g fill="#ffffff" fill-opacity="1"><g transform="translate(507.694223, 716.54636)"><g><path d="M 48.03125 -21.25 C 48.03125 -20.457031 48.003906 -19.769531 47.953125 -19.1875 C 47.898438 -18.613281 47.796875 -17.957031 47.640625 -17.21875 L 13.75 -17.21875 C 14.375 -14.582031 15.765625 -12.488281 17.921875 -10.9375 C 20.085938 -9.382812 22.722656 -8.609375 25.828125 -8.609375 C 27.992188 -8.609375 29.8125 -8.9375 31.28125 -9.59375 C 32.757812 -10.257812 34.15625 -11.378906 35.46875 -12.953125 L 46.921875 -12.953125 C 45.972656 -9.953125 44.40625 -7.410156 42.21875 -5.328125 C 40.039062 -3.253906 37.539062 -1.675781 34.71875 -0.59375 C 31.90625 0.488281 29.019531 1.03125 26.0625 1.03125 C 22.75 1.03125 19.65625 0.453125 16.78125 -0.703125 C 13.914062 -1.867188 11.398438 -3.488281 9.234375 -5.5625 C 7.078125 -7.644531 5.394531 -10.054688 4.1875 -12.796875 C 2.976562 -15.535156 2.375 -18.507812 2.375 -21.71875 C 2.375 -24.9375 2.960938 -27.941406 4.140625 -30.734375 C 5.328125 -33.523438 6.972656 -35.972656 9.078125 -38.078125 C 11.191406 -40.179688 13.644531 -41.828125 16.4375 -43.015625 C 19.226562 -44.203125 22.226562 -44.796875 25.4375 -44.796875 C 29.8125 -44.796875 33.695312 -43.78125 37.09375 -41.75 C 40.488281 -39.71875 43.160156 -36.925781 45.109375 -33.375 C 47.054688 -29.820312 48.03125 -25.78125 48.03125 -21.25 Z M 37.6875 -26.46875 C 37 -29.257812 35.628906 -31.40625 33.578125 -32.90625 C 31.523438 -34.40625 28.863281 -35.15625 25.59375 -35.15625 C 22.488281 -35.15625 19.894531 -34.40625 17.8125 -32.90625 C 15.726562 -31.40625 14.269531 -29.257812 13.4375 -26.46875 Z M 37.6875 -26.46875 "/></g></g></g><g fill="#ffffff" fill-opacity="1"><g transform="translate(558.2517, 716.54636)"><g><path d="M 24.171875 -34.6875 C 17.898438 -34.519531 14.765625 -31.066406 14.765625 -24.328125 L 14.765625 0 L 4.265625 0 L 4.265625 -43.765625 L 13.90625 -43.765625 L 13.90625 -39.5 C 15.269531 -41.5 16.625 -42.878906 17.96875 -43.640625 C 19.3125 -44.410156 21.117188 -44.796875 23.390625 -44.796875 L 24.171875 -44.796875 Z M 24.171875 -34.6875 "/></g></g></g><g fill="#ffffff" fill-opacity="1"><g transform="translate(583.530462, 716.54636)"><g><path d="M 48.578125 0 L 38.953125 0 L 38.953125 -5.6875 C 36.835938 -3.320312 34.660156 -1.609375 32.421875 -0.546875 C 30.191406 0.503906 27.519531 1.03125 24.40625 1.03125 C 20.144531 1.03125 16.351562 0.0546875 13.03125 -1.890625 C 9.71875 -3.835938 7.113281 -6.535156 5.21875 -9.984375 C 3.320312 -13.441406 2.375 -17.351562 2.375 -21.71875 C 2.375 -26.195312 3.332031 -30.160156 5.25 -33.609375 C 7.175781 -37.054688 9.8125 -39.78125 13.15625 -41.78125 C 16.5 -43.789062 20.328125 -44.796875 24.640625 -44.796875 C 27.804688 -44.796875 30.535156 -44.253906 32.828125 -43.171875 C 35.117188 -42.085938 37.160156 -40.335938 38.953125 -37.921875 L 38.953125 -43.765625 L 48.578125 -43.765625 Z M 38.625 -21.5625 C 38.625 -24.25 38.070312 -26.601562 36.96875 -28.625 C 35.863281 -30.65625 34.347656 -32.25 32.421875 -33.40625 C 30.503906 -34.570312 28.28125 -35.15625 25.75 -35.15625 C 23.28125 -35.15625 21.066406 -34.570312 19.109375 -33.40625 C 17.160156 -32.25 15.644531 -30.644531 14.5625 -28.59375 C 13.488281 -26.539062 12.953125 -24.171875 12.953125 -21.484375 C 12.953125 -17.640625 14.148438 -14.53125 16.546875 -12.15625 C 18.941406 -9.789062 22.0625 -8.609375 25.90625 -8.609375 C 28.59375 -8.609375 30.882812 -9.1875 32.78125 -10.34375 C 34.675781 -11.507812 36.125 -13.066406 37.125 -15.015625 C 38.125 -16.960938 38.625 -19.144531 38.625 -21.5625 Z M 38.625 -21.5625 "/></g></g></g><g fill="#ffffff" fill-opacity="1"><g transform="translate(635.667865, 716.54636)"><g><path d="M 50.09375 -22.046875 C 50.09375 -17.617188 49.140625 -13.664062 47.234375 -10.1875 C 45.335938 -6.71875 42.742188 -3.976562 39.453125 -1.96875 C 36.160156 0.03125 32.410156 1.03125 28.203125 1.03125 C 23.046875 1.03125 18.566406 -0.679688 14.765625 -4.109375 L 14.765625 14.609375 L 4.265625 14.609375 L 4.265625 -43.765625 L 13.90625 -43.765625 L 13.90625 -38.625 C 17.4375 -42.738281 22.226562 -44.796875 28.28125 -44.796875 C 32.5 -44.796875 36.253906 -43.820312 39.546875 -41.875 C 42.835938 -39.925781 45.414062 -37.238281 47.28125 -33.8125 C 49.15625 -30.382812 50.09375 -26.460938 50.09375 -22.046875 Z M 39.5 -21.796875 C 39.5 -24.328125 38.945312 -26.59375 37.84375 -28.59375 C 36.738281 -30.59375 35.238281 -32.1875 33.34375 -33.375 C 31.445312 -34.5625 29.3125 -35.15625 26.9375 -35.15625 C 24.519531 -35.15625 22.347656 -34.570312 20.421875 -33.40625 C 18.492188 -32.25 16.960938 -30.679688 15.828125 -28.703125 C 14.703125 -26.734375 14.140625 -24.488281 14.140625 -21.96875 C 14.140625 -19.4375 14.703125 -17.15625 15.828125 -15.125 C 16.960938 -13.101562 18.503906 -11.507812 20.453125 -10.34375 C 22.410156 -9.1875 24.625 -8.609375 27.09375 -8.609375 C 29.414062 -8.609375 31.507812 -9.1875 33.375 -10.34375 C 35.25 -11.507812 36.738281 -13.09375 37.84375 -15.09375 C 38.945312 -17.09375 39.5 -19.328125 39.5 -21.796875 Z M 39.5 -21.796875 "/></g></g></g><g fill="#ffffff" fill-opacity="1"><g transform="translate(687.805268, 716.54636)"><g><path d="M 14.765625 0 L 4.265625 0 L 4.265625 -43.765625 L 14.765625 -43.765625 Z M 14.859375 -50.09375 L 4.34375 -50.09375 L 4.34375 -60.59375 L 14.859375 -60.59375 Z M 14.859375 -50.09375 "/></g></g></g><g fill="#ffffff" fill-opacity="1"><g transform="translate(706.764328, 716.54636)"><g><path d="M 33.1875 -13.90625 C 33.1875 -11.113281 32.488281 -8.582031 31.09375 -6.3125 C 29.695312 -4.050781 27.828125 -2.257812 25.484375 -0.9375 C 23.140625 0.375 20.488281 1.03125 17.53125 1.03125 C 13.21875 1.03125 9.613281 -0.175781 6.71875 -2.59375 C 3.820312 -5.019531 2.082031 -8.789062 1.5 -13.90625 L 12.09375 -13.90625 C 12.613281 -12.0625 13.332031 -10.71875 14.25 -9.875 C 15.175781 -9.03125 16.40625 -8.609375 17.9375 -8.609375 C 19.300781 -8.609375 20.429688 -9.015625 21.328125 -9.828125 C 22.222656 -10.648438 22.671875 -11.664062 22.671875 -12.875 C 22.671875 -13.71875 22.539062 -14.398438 22.28125 -14.921875 C 22.019531 -15.453125 21.375 -15.976562 20.34375 -16.5 C 19.3125 -17.03125 17.613281 -17.691406 15.25 -18.484375 C 10.925781 -19.960938 7.816406 -21.6875 5.921875 -23.65625 C 4.023438 -25.632812 3.078125 -28.226562 3.078125 -31.4375 C 3.078125 -33.96875 3.722656 -36.234375 5.015625 -38.234375 C 6.304688 -40.234375 8.054688 -41.828125 10.265625 -43.015625 C 12.484375 -44.203125 14.929688 -44.796875 17.609375 -44.796875 C 20.085938 -44.796875 22.394531 -44.269531 24.53125 -43.21875 C 26.664062 -42.164062 28.414062 -40.660156 29.78125 -38.703125 C 31.15625 -36.753906 31.894531 -34.410156 32 -31.671875 L 21.71875 -31.671875 C 21.25 -33.992188 19.878906 -35.15625 17.609375 -35.15625 C 16.453125 -35.15625 15.492188 -34.796875 14.734375 -34.078125 C 13.972656 -33.367188 13.59375 -32.488281 13.59375 -31.4375 C 13.59375 -30.707031 13.707031 -30.128906 13.9375 -29.703125 C 14.175781 -29.285156 14.820312 -28.878906 15.875 -28.484375 C 16.925781 -28.085938 18.640625 -27.492188 21.015625 -26.703125 C 25.597656 -25.273438 28.769531 -23.597656 30.53125 -21.671875 C 32.300781 -19.753906 33.1875 -17.164062 33.1875 -13.90625 Z M 33.1875 -13.90625 "/></g></g></g><g fill="#ffffff" fill-opacity="1"><g transform="translate(741.522596, 716.54636)"><g><path d="M 22.671875 -34.203125 L 16.359375 -34.203125 L 16.359375 0 L 5.84375 0 L 5.84375 -34.203125 L 0.71875 -34.203125 L 0.71875 -43.765625 L 5.84375 -43.765625 L 5.84375 -58.375 L 16.359375 -58.375 L 16.359375 -43.765625 L 22.671875 -43.765625 Z M 22.671875 -34.203125 "/></g></g></g></svg>