<svg xmlns="http://www.w3.org/2000/svg" xmlns:xlink="http://www.w3.org/1999/xlink" width="1080" zoomAndPan="magnify" viewBox="0 0 810 809.999993" height="1080" preserveAspectRatio="xMidYMid meet" version="1.0"><defs><clipPath id="75b1a1c41a"><path d="M 405 0 C 181.324219 0 0 181.324219 0 405 C 0 628.675781 181.324219 810 405 810 C 628.675781 810 810 628.675781 810 405 C 810 181.324219 628.675781 0 405 0 Z M 405 0 " clip-rule="nonzero"/></clipPath><clipPath id="a8575d0b6f"><path d="M 541 382 L 688.425781 382 L 688.425781 555 L 541 555 Z M 541 382 " clip-rule="nonzero"/></clipPath><clipPath id="084ae0334d"><path d="M 123 186.390625 L 688 186.390625 L 688 528 L 123 528 Z M 123 186.390625 " clip-rule="nonzero"/></clipPath><clipPath id="293a3daa13"><path d="M 122 478 L 688.425781 478 L 688.425781 623.640625 L 122 623.640625 Z M 122 478 " clip-rule="nonzero"/></clipPath><clipPath id="10d9bf8c89"><path d="M 121.425781 382 L 269 382 L 269 555 L 121.425781 555 Z M 121.425781 382 " clip-rule="nonzero"/></clipPath></defs><g clip-path="url(#75b1a1c41a)"><rect x="-81" width="972" fill="#ffffff" y="-80.999999" height="971.999992" fill-opacity="1"/></g><g clip-path="url(#a8575d0b6f)"><path fill="#333333" d="M 688.078125 554.214844 L 688.078125 382.277344 L 541.933594 468.246094 Z M 688.078125 554.214844 " fill-opacity="1" fill-rule="nonzero"/></g><g clip-path="url(#084ae0334d)"><path fill="#333333" d="M 629.128906 311.046875 L 404.996094 186.390625 L 180.863281 311.046875 C 175.949219 313.5 172.265625 315.957031 167.964844 317.800781 C 145.859375 329.46875 125.597656 339.90625 123.140625 361.398438 L 290.164062 460.261719 L 404.996094 527.808594 L 519.824219 460.261719 L 687.464844 361.398438 C 685.007812 340.519531 664.132812 329.46875 642.640625 317.800781 C 638.339844 315.957031 634.042969 314.117188 629.128906 311.046875 Z M 490.351562 428.332031 C 484.824219 433.859375 478.070312 438.769531 470.085938 443.070312 C 462.105469 446.753906 453.507812 449.824219 444.296875 452.28125 C 434.472656 454.121094 424.644531 455.351562 412.980469 455.351562 C 396.398438 455.351562 381.046875 452.894531 367.539062 448.597656 C 354.027344 444.296875 342.359375 437.542969 333.148438 429.558594 C 323.9375 420.964844 317.183594 411.136719 312.273438 399.46875 C 307.359375 387.804688 304.902344 374.90625 304.902344 361.398438 C 304.902344 346.660156 307.359375 333.152344 312.273438 320.257812 C 317.183594 307.359375 323.9375 296.308594 333.148438 287.097656 C 342.359375 277.886719 353.414062 270.515625 366.921875 264.992188 C 380.433594 259.464844 394.558594 257.007812 410.523438 257.007812 C 423.417969 257.007812 435.699219 258.851562 446.136719 262.535156 C 457.191406 266.21875 466.402344 271.746094 474.386719 279.113281 C 482.367188 286.484375 487.894531 294.464844 492.191406 304.289062 C 496.492188 314.117188 498.332031 324.554688 498.332031 336.835938 C 498.332031 346.046875 496.492188 355.257812 493.421875 363.855469 C 490.351562 372.453125 485.4375 380.433594 479.296875 387.804688 C 473.15625 394.558594 465.789062 400.085938 457.804688 404.382812 C 449.207031 408.683594 440.613281 410.523438 430.785156 410.523438 C 425.261719 410.523438 420.960938 409.296875 417.890625 407.453125 C 414.820312 405.613281 412.980469 402.542969 411.75 398.242188 C 405.609375 404.382812 398.855469 408.066406 390.871094 409.296875 C 382.890625 411.136719 375.519531 409.910156 368.152344 407.453125 C 361.398438 404.996094 355.871094 400.085938 351.570312 392.714844 C 347.273438 385.347656 344.816406 376.75 344.816406 366.3125 C 344.816406 355.257812 347.273438 344.820312 351.570312 334.378906 C 356.484375 323.941406 362.625 315.34375 371.222656 308.589844 C 379.820312 301.835938 389.644531 298.765625 400.082031 298.765625 C 412.363281 298.765625 421.574219 303.675781 427.101562 312.886719 L 429.558594 301.21875 L 456.578125 301.21875 L 441.226562 374.90625 C 439.996094 379.820312 439.996094 382.890625 439.996094 384.117188 C 439.996094 385.960938 440.613281 387.1875 441.226562 387.804688 C 441.839844 388.417969 443.066406 389.03125 444.296875 389.03125 C 447.980469 389.03125 452.894531 386.574219 458.417969 381.664062 C 464.558594 376.75 469.472656 369.996094 473.769531 362.011719 C 478.070312 353.414062 480.527344 344.820312 480.527344 334.378906 C 480.527344 326.398438 478.683594 318.414062 475.613281 311.046875 C 472.542969 303.675781 468.246094 297.535156 462.105469 292.007812 C 455.964844 286.484375 449.207031 282.183594 439.996094 279.726562 C 431.402344 276.65625 421.574219 275.429688 410.523438 275.429688 C 399.46875 275.429688 389.03125 276.65625 379.820312 279.726562 C 370.609375 282.796875 362.011719 287.097656 355.257812 292.007812 C 347.886719 297.535156 342.359375 304.289062 337.449219 312.273438 C 333.148438 319.027344 330.078125 327.011719 327.625 335.609375 C 325.167969 344.203125 324.554688 352.800781 324.554688 361.398438 C 324.554688 373.066406 327.007812 384.117188 331.921875 393.945312 C 336.835938 403.769531 343.589844 411.75 352.1875 418.507812 C 361.398438 425.261719 371.835938 429.558594 384.730469 432.628906 C 397.628906 435.699219 411.75 435.699219 427.714844 434.472656 C 440.613281 433.246094 451.050781 430.175781 460.261719 425.875 C 468.859375 421.578125 476.839844 415.4375 482.980469 408.066406 L 505.089844 408.066406 C 500.789062 416.050781 496.492188 422.804688 490.351562 428.332031 Z M 490.351562 428.332031 " fill-opacity="1" fill-rule="nonzero"/></g><path fill="#333333" d="M 416.664062 324.554688 C 414.820312 322.097656 412.980469 320.871094 410.523438 319.640625 C 408.066406 318.414062 405.609375 317.800781 402.539062 317.800781 C 396.398438 317.800781 390.871094 320.257812 385.960938 325.167969 C 381.046875 330.082031 377.363281 336.222656 374.90625 343.589844 C 372.449219 350.960938 371.222656 358.941406 371.222656 366.925781 C 371.222656 374.90625 373.0625 381.664062 376.132812 385.960938 C 379.820312 390.257812 384.117188 392.714844 389.644531 392.714844 C 396.398438 392.714844 401.925781 390.257812 406.839844 384.734375 C 411.75 379.820312 415.433594 373.066406 417.890625 365.082031 C 420.347656 357.101562 421.574219 349.730469 421.574219 342.363281 C 421.574219 338.679688 420.960938 335.609375 420.347656 332.539062 C 419.734375 329.46875 418.503906 326.398438 416.664062 324.554688 Z M 416.664062 324.554688 " fill-opacity="1" fill-rule="nonzero"/><g clip-path="url(#293a3daa13)"><path fill="#333333" d="M 409.910156 545.617188 C 407.453125 547.460938 403.769531 547.460938 400.699219 545.617188 L 285.867188 478.070312 L 122.527344 574.480469 C 123.753906 587.375 129.28125 599.042969 138.492188 607.640625 C 148.316406 617.464844 161.824219 623.605469 176.5625 623.605469 L 634.042969 623.605469 C 648.78125 623.605469 662.289062 617.464844 672.113281 607.640625 C 680.710938 599.042969 686.851562 587.375 688.078125 574.480469 L 524.125 478.070312 Z M 409.910156 545.617188 " fill-opacity="1" fill-rule="nonzero"/></g><g clip-path="url(#10d9bf8c89)"><path fill="#333333" d="M 121.910156 382.277344 L 121.910156 554.214844 L 268.058594 468.246094 Z M 121.910156 382.277344 " fill-opacity="1" fill-rule="nonzero"/></g></svg>