<svg xmlns="http://www.w3.org/2000/svg" xmlns:xlink="http://www.w3.org/1999/xlink" width="1080" zoomAndPan="magnify" viewBox="0 0 810 809.999993" height="1080" preserveAspectRatio="xMidYMid meet" version="1.0"><defs><clipPath id="4266e31246"><path d="M 405 0 C 181.324219 0 0 181.324219 0 405 C 0 628.675781 181.324219 810 405 810 C 628.675781 810 810 628.675781 810 405 C 810 181.324219 628.675781 0 405 0 Z M 405 0 " clip-rule="nonzero"/></clipPath><clipPath id="abb19ecd3e"><path d="M 245.441406 146 L 564.191406 146 L 564.191406 810 L 245.441406 810 Z M 245.441406 146 " clip-rule="nonzero"/></clipPath></defs><g clip-path="url(#4266e31246)"><rect x="-81" width="972" fill="#ffffff" y="-80.999999" height="971.999992" fill-opacity="1"/></g><g clip-path="url(#abb19ecd3e)"><path fill="#333333" d="M 490.9375 257.136719 L 564.554688 257.136719 L 564.554688 146.140625 L 470.546875 146.140625 L 470.546875 146.566406 C 346.953125 151.097656 321.46875 220.328125 319.34375 293.523438 L 319.0625 293.523438 L 319.0625 370.539062 L 245.441406 370.539062 L 245.441406 481.679688 L 319.0625 481.679688 L 319.0625 819.480469 L 451.152344 819.480469 L 451.152344 481.679688 L 545.867188 481.679688 L 564.554688 370.539062 L 451.152344 370.539062 L 451.152344 301.59375 C 451.152344 277.101562 467.574219 257.136719 490.9375 257.136719 Z M 490.9375 257.136719 " fill-opacity="1" fill-rule="nonzero"/></g></svg>