<svg width="150" height="150" viewBox="0 0 150 150" fill="none" xmlns="http://www.w3.org/2000/svg">
<g clip-path="url(#clip0_7162_825)">
<circle cx="75" cy="75" r="75" fill="#0866FF"/>
<path d="M130.058 104.226L114.301 90.9216C114.812 89.9689 115.135 88.9164 115.228 87.8053C115.408 85.6648 114.746 83.5837 113.367 81.9539C112.356 80.7524 111.042 79.893 109.567 79.4496C111.756 76.5235 111.731 72.364 109.28 69.4532C108.216 68.1894 106.815 67.3047 105.243 66.8844C106.994 64.0162 106.816 60.2243 104.531 57.5087C103.265 56.0113 101.523 55.0449 99.5877 54.7584C100.474 52.1731 100.025 49.1964 98.1395 46.9604C96.7636 45.3256 94.8221 44.3266 92.6801 44.1443C90.5259 43.9569 88.4549 44.6224 86.8193 46.0005L86.5213 46.2522L77.4899 42.0385C72.764 39.5848 68.6256 41.5141 66.624 44.5081C65.9585 45.5035 65.5505 46.5777 65.3371 47.6614L63.3688 45.999C59.9797 43.146 54.9031 43.5815 52.0479 46.9604C50.1628 49.1964 49.7143 52.1731 50.6026 54.7584C48.6668 55.0449 46.9285 56.0092 45.659 57.5109C44.281 59.1465 43.6212 61.2254 43.8014 63.3659C43.9091 64.6355 44.3027 65.8319 44.945 66.8844C43.4216 67.2946 42.0009 68.1561 40.9078 69.451C38.4556 72.3619 38.4324 76.5213 40.6228 79.4481C39.1891 79.8836 37.8595 80.7191 36.8236 81.9481C34.6427 84.5306 34.3909 88.0997 35.8963 90.9195L20.1324 104.224C19.3135 104.913 19.2108 106.134 19.9002 106.951C20.2828 107.404 20.829 107.638 21.3824 107.638C21.8236 107.638 22.2649 107.489 22.6288 107.183L38.4476 93.834L44.7924 99.1841C46.2493 100.413 48.0592 101.071 49.9501 101.071C50.1801 101.071 50.4131 101.059 50.6453 101.04C52.7836 100.858 54.7229 99.8597 56.0952 98.2278C57.4776 96.5958 58.1395 94.5197 57.9594 92.3771C57.8646 91.2428 57.5275 90.1758 57.003 89.2087C58.6017 88.8217 60.102 87.9601 61.2399 86.611C62.8074 84.7512 63.3478 82.3857 62.9854 80.1541C62.9876 80.1541 62.9897 80.1541 62.9912 80.1541C65.2481 80.1541 67.4718 79.2173 68.9952 77.4197C70.4181 75.9889 71.1531 74.0423 71.0626 71.9401C71.0583 71.8707 71.0352 71.8049 71.0315 71.7369C71.3491 71.7752 71.6623 71.828 71.9857 71.828C72.2157 71.828 72.4501 71.8179 72.6823 71.7969C74.8249 71.6146 76.7622 70.6142 78.0245 69.1045C79.4546 67.6823 80.1939 65.7408 80.1071 63.6365C80.0275 61.7246 79.2535 59.9263 77.9955 58.5135L89.3121 48.9584C90.1577 48.248 91.2305 47.8972 92.3488 48.0021C93.4621 48.0947 94.4661 48.6119 95.1765 49.4553C96.6536 51.2074 96.4287 53.8412 94.6774 55.3198L93.214 56.5589C93.2118 56.5604 93.2118 56.5604 93.2118 56.5604C92.3973 57.2498 92.2946 58.4708 92.9876 59.2875C93.6748 60.1028 94.8958 60.2033 95.7125 59.5139L95.7227 59.5045C96.5625 58.8021 97.6403 58.4694 98.7363 58.554C99.851 58.6473 100.859 59.1616 101.57 60.0058C103.048 61.7615 102.823 64.3917 101.07 65.8703L97.9659 68.4969C97.9659 68.4969 97.9637 68.499 97.9615 68.499C97.147 69.1899 97.0443 70.4109 97.7351 71.2262C98.4245 72.0429 99.6455 72.1449 100.462 71.454H100.464C101.308 70.7379 102.413 70.4073 103.493 70.4927C104.604 70.5874 105.607 71.1017 106.317 71.9459C107.794 73.6994 107.569 76.3318 105.82 77.8104L102.054 80.9882L102.052 80.9903C101.235 81.6797 101.13 82.9008 101.819 83.7175C102.508 84.5342 103.728 84.6405 104.546 83.9497L104.552 83.9461C105.396 83.2357 106.461 82.9044 107.579 82.9898C108.69 83.0845 109.693 83.5996 110.405 84.4474C111.119 85.293 111.46 86.3694 111.367 87.4783C111.272 88.5887 110.757 89.5957 109.913 90.3075L92.3221 105.157C85.1432 111.217 79.2224 110.576 70.3291 108.807C69.7483 108.685 69.1544 108.846 68.7008 109.227L42.2143 131.586C41.3976 132.273 41.2949 133.494 41.9857 134.313C42.3669 134.766 42.9131 135 43.4643 135C43.9055 135 44.3468 134.851 44.7128 134.544L70.4897 112.783C74.1631 113.491 77.5253 113.984 80.7726 113.864L105.493 134.549C105.859 134.853 106.298 135 106.735 135C107.289 135 107.839 134.764 108.222 134.307C108.907 133.487 108.801 132.267 107.98 131.582L85.8847 113.092C88.8166 112.262 91.7433 110.713 94.8184 108.118L111.75 93.8303L127.561 107.181C127.925 107.489 128.368 107.638 128.809 107.638C129.361 107.638 129.907 107.406 130.29 106.953C130.977 106.136 130.875 104.915 130.058 104.226ZM70.0463 51.6327C68.5815 50.3965 68.8484 48.1475 69.8452 46.6588C70.3364 45.9231 72.2143 43.6647 75.7827 45.5093L83.2653 49.0003L75.0962 55.8985L70.0637 51.6522L70.0499 51.6407C70.0485 51.6385 70.0499 51.6349 70.0463 51.6327ZM53.1416 95.727C52.4313 96.5727 51.4287 97.0877 50.3197 97.181C49.1992 97.2816 48.1308 96.9329 47.2888 96.2226L40.2763 90.3118C38.525 88.8253 38.3022 86.1951 39.783 84.4452C41.25 82.7033 43.8498 82.4733 45.6047 83.9244L52.6541 89.8684C53.4975 90.5787 54.0126 91.5835 54.1059 92.6961C54.1985 93.8094 53.8556 94.8836 53.1416 95.727ZM58.2841 84.1125C56.8056 85.8638 54.1775 86.0887 52.424 84.6138L48.1482 81.0077C48.1424 81.0041 48.1402 80.9961 48.1344 80.9903L48.133 80.9882L44.3685 77.8125C42.6165 76.3296 42.3922 73.6994 43.8672 71.9481C44.5812 71.1017 45.5874 70.5874 46.6985 70.4919C47.8118 70.4015 48.8874 70.7401 49.7316 71.454L49.7331 71.4562C49.7374 71.4598 49.7446 71.4598 49.749 71.4642L57.7828 78.2516C59.5363 79.7302 59.7591 82.3626 58.2841 84.1125ZM66.1502 74.7989C64.6672 76.5502 62.0392 76.7752 60.2836 75.2945L52.2049 68.4715C52.2027 68.4694 52.1991 68.4694 52.1969 68.4679L49.1139 65.8667C48.2704 65.1563 47.7554 64.1515 47.6606 63.039C47.5658 61.9278 47.908 60.8478 48.6183 60.0058C49.3309 59.1616 50.3357 58.6473 51.446 58.554C52.5376 58.452 53.6234 58.7963 54.4654 59.4987L54.4828 59.5139L65.6489 68.936C66.5705 69.7143 67.1492 70.8985 67.2012 72.1029C67.2418 73.1127 66.909 74.0307 66.1502 74.7989ZM75.1852 66.4837C74.4748 67.3279 73.4722 67.8429 72.3611 67.9377C71.2442 68.0397 70.1743 67.6917 69.3338 66.9835C69.239 66.904 69.1544 66.9018 69.0748 66.9467C68.784 66.6081 68.4881 66.2689 68.146 65.9788L56.9777 56.5546C56.9705 56.5474 56.9625 56.543 56.9546 56.5358L55.5085 55.3183C53.7572 53.8376 53.533 51.2052 55.0072 49.4553C56.488 47.7062 59.1204 47.4791 60.8724 48.954L63.5178 51.19C63.52 51.19 63.52 51.1914 63.5214 51.1936L67.7257 54.7432L69.0263 55.8406H69.0285L74.6955 60.6272C75.6163 61.4034 76.1936 62.5876 76.2457 63.7956C76.2862 64.8004 75.9498 65.7097 75.1852 66.4837Z" fill="white"/>
<path d="M82.8458 29.0516C83.9156 29.0516 84.7808 28.1865 84.7808 27.1159V16.9358C84.7808 15.8652 83.9156 15 82.8458 15C81.7752 15 80.91 15.8652 80.91 16.9358V27.1159C80.91 28.1865 81.7752 29.0516 82.8458 29.0516Z" fill="white"/>
<path d="M108.489 34.6159C109.085 34.6159 109.672 34.341 110.053 33.8267L116.074 25.62C116.705 24.7584 116.519 23.5475 115.658 22.9145C114.791 22.2794 113.583 22.4711 112.952 23.3305L106.931 31.5365C106.3 32.398 106.486 33.6097 107.347 34.2427C107.692 34.4944 108.092 34.6159 108.489 34.6159Z" fill="white"/>
<path d="M55.6402 33.8267C56.0178 34.3432 56.6066 34.6159 57.2027 34.6159C57.5991 34.6159 57.9999 34.4943 58.3464 34.2404C59.2079 33.6096 59.3931 32.398 58.7601 31.5364L52.7351 23.3304C52.1043 22.471 50.8948 22.283 50.0311 22.9159C49.1703 23.5474 48.9844 24.7584 49.6173 25.6199L55.6402 33.8267Z" fill="white"/>
<path d="M71.0981 111.57C70.897 111.57 70.7972 111.445 70.7972 111.194C70.7972 110.942 70.897 110.815 71.0981 110.815C71.2985 110.815 71.399 110.942 71.399 111.194C71.399 111.445 71.2985 111.57 71.0981 111.57Z" fill="white"/>
</g>
<defs>
<clipPath id="clip0_7162_825">
<rect width="150" height="150" fill="white"/>
</clipPath>
</defs>
</svg>
