<svg width="150" height="150" viewBox="0 0 150 150" fill="none" xmlns="http://www.w3.org/2000/svg">
<g clip-path="url(#clip0_7162_810)">
<circle cx="75" cy="75" r="75" fill="#0866FF"/>
<path d="M98.2971 51.7021C95.2713 48.6762 91.7477 46.3006 87.8241 44.6412C83.7608 42.9225 79.4452 42.0508 74.9978 42.0508C70.5498 42.0508 66.2348 42.9225 62.1716 44.6412C58.248 46.3006 54.7237 48.6762 51.6985 51.7021C48.6726 54.7273 46.297 58.2516 44.6376 62.1752C42.9188 66.2384 42.0471 70.5534 42.0471 75.0007C42.0471 79.4488 42.9188 83.7637 44.6376 87.827C46.297 91.7506 48.6726 95.2749 51.6985 98.3001C54.7237 101.326 58.248 103.702 62.1716 105.361C66.2348 107.08 70.5498 107.951 74.9978 107.951C79.4452 107.951 83.7601 107.08 87.8241 105.361C91.7477 103.702 95.2713 101.326 98.2971 98.3001C101.322 95.2749 103.699 91.7506 105.358 87.827C107.077 83.7637 107.948 79.4488 107.948 75.0007C107.948 70.5534 107.077 66.2384 105.358 62.1745C103.698 58.2516 101.322 54.7273 98.2971 51.7021ZM102.725 86.7137C101.209 90.2966 99.0393 93.5149 96.2753 96.2789C93.5113 99.043 90.293 101.213 86.7101 102.729C83.0013 104.297 79.0603 105.093 74.9978 105.093C70.9346 105.093 66.9936 104.297 63.2849 102.729C59.702 101.213 56.4836 99.043 53.7196 96.2789C50.9556 93.5149 48.7854 90.2966 47.27 86.7137C45.7017 83.0049 44.9059 79.0639 44.9059 75.0007C44.9059 70.9382 45.7017 66.9972 47.27 63.2885C48.7854 59.7056 50.9556 56.4873 53.7196 53.7232C56.4836 50.9592 59.702 48.7891 63.2849 47.2736C66.9936 45.7053 70.9346 44.9096 74.9978 44.9096C79.0603 44.9096 83.0013 45.7053 86.7101 47.2736C90.293 48.7891 93.5113 50.9592 96.2753 53.7232C99.0393 56.4865 101.209 59.7056 102.725 63.2885C104.293 66.9972 105.089 70.9382 105.089 75.0007C105.089 79.0639 104.293 83.0049 102.725 86.7137Z" fill="white"/>
<mask id="mask0_7162_810" style="mask-type:luminance" maskUnits="userSpaceOnUse" x="19" y="18" width="112" height="114">
<path d="M19.2592 18.4266H130.741V131.621H19.2592V18.4266Z" fill="white"/>
</mask>
<g mask="url(#mask0_7162_810)">
<path d="M129.965 85.3535L120.801 79.0753V70.9271L129.965 64.6489C130.524 64.2663 130.765 63.5602 130.556 62.9157L127.049 52.1229C126.839 51.4784 126.23 51.0472 125.553 51.0668L114.449 51.3742L109.659 44.7828L113.383 34.3169C113.61 33.6782 113.39 32.9656 112.841 32.5678L103.661 25.8975C103.113 25.4989 102.367 25.509 101.829 25.9228L93.0273 32.698L85.2778 30.1806L82.139 19.5252C81.9473 18.8749 81.3505 18.4286 80.6727 18.4286H69.3243C68.6465 18.4286 68.049 18.8749 67.8581 19.5252L64.7186 30.1806L56.9697 32.6987L48.1669 25.9235C47.6302 25.5098 46.8844 25.4996 46.3361 25.8975L37.1542 32.567C36.6059 32.9656 36.3852 33.6782 36.6124 34.3162L40.3363 44.782L35.5469 51.3742L24.4437 51.0668C23.7666 51.0479 23.1568 51.4776 22.947 52.1222L19.4401 62.915C19.2303 63.5595 19.4712 64.2655 20.0304 64.6489L29.1941 70.9271V79.0746L20.0304 85.3528C19.4712 85.7362 19.231 86.4415 19.4401 87.0867L22.947 97.8788C23.1568 98.5241 23.7659 98.953 24.4437 98.935L35.5469 98.6275L40.3363 105.22L36.6124 115.686C36.3852 116.324 36.6059 117.036 37.1542 117.435L46.3346 124.105C46.8837 124.503 47.6287 124.493 48.1662 124.079L56.9683 117.304L64.7179 119.822L67.8566 130.477C68.0483 131.128 68.6451 131.574 69.3229 131.574H80.6713C81.3491 131.574 81.9466 131.128 82.1376 130.477L85.277 119.822L93.0259 117.304L101.829 124.079C102.366 124.493 103.111 124.503 103.66 124.105L112.84 117.435C113.388 117.036 113.61 116.324 113.382 115.686L109.659 105.22L114.447 98.6275L125.551 98.935C126.23 98.9538 126.838 98.5241 127.047 97.8788L130.554 87.0867C130.765 86.4422 130.524 85.7362 129.965 85.3535ZM124.494 95.8468L113.728 95.5495C113.224 95.5343 112.744 95.7709 112.449 96.1789L106.711 104.075C106.416 104.483 106.339 105.011 106.508 105.486L110.119 115.633L102.789 120.96L94.2527 114.391C93.8534 114.083 93.3275 113.992 92.8479 114.148L83.5662 117.163C83.0866 117.32 82.7148 117.702 82.5723 118.186L79.5283 128.518H70.4673L67.4233 118.186C67.2808 117.702 66.909 117.32 66.4294 117.163L57.1477 114.148C56.6681 113.991 56.1422 114.083 55.7429 114.391L47.207 120.96L39.877 115.633L43.4874 105.486C43.6567 105.011 43.58 104.483 43.2834 104.075L37.547 96.1789C37.2504 95.7709 36.7715 95.5365 36.2681 95.5495L25.5013 95.8468L22.7011 87.2299L31.5871 81.1427C32.003 80.857 32.2519 80.3853 32.2519 79.8811V70.1213C32.2519 69.6171 32.003 69.1455 31.5871 68.8597L22.7011 62.7725L25.5013 54.1556L36.2681 54.4529C36.7723 54.4674 37.2511 54.2315 37.547 53.8236L43.2834 45.9279C43.58 45.5199 43.6559 44.9918 43.4874 44.5166L39.877 34.369L47.207 29.0427L55.7429 35.6125C56.1422 35.9199 56.6681 36.0103 57.1477 35.8548L66.4294 32.839C66.909 32.6828 67.2808 32.3008 67.4233 31.8169L70.4673 21.4849H79.5283L82.5723 31.8169C82.7148 32.3001 83.0866 32.6828 83.5662 32.839L92.8479 35.8548C93.3275 36.0103 93.8534 35.9199 94.2527 35.6125L102.789 29.0427L110.119 34.369L106.508 44.5166C106.339 44.9918 106.416 45.5192 106.711 45.9279L112.449 53.8236C112.745 54.2308 113.224 54.4674 113.728 54.4529L124.494 54.1556L127.294 62.7725L118.409 68.8597C117.993 69.1455 117.744 69.6171 117.744 70.1213V79.8811C117.744 80.3853 117.993 80.857 118.409 81.142L127.294 87.2292L124.494 95.8468Z" fill="white"/>
</g>
<path d="M96.7028 72.3988C97.364 71.6429 97.717 70.6829 97.7018 69.6702C97.6845 68.6025 97.241 67.5963 96.4518 66.8389C95.6756 66.0924 94.6629 65.6815 93.6024 65.6815H87.2634L88.993 62.6578C89.8994 61.0736 90.3783 59.2673 90.379 57.4342C90.379 56.0858 89.8626 54.817 88.9258 53.8607C87.981 52.8972 86.7231 52.3677 85.3834 52.3677H83.9055C82.6389 52.3677 81.6081 53.3985 81.6081 54.6651C81.6081 56.7325 80.7653 58.7327 79.2954 60.1527L71.0004 68.1648C70.3544 68.7891 69.6615 69.0105 68.3521 69.0105H67.1788C65.9577 69.0105 64.9653 70.0037 64.9653 71.224V87.5507C64.9653 88.7718 65.9585 89.7642 67.1788 89.7642H93.6024C94.6636 89.7642 95.6756 89.3534 96.4525 88.6068C97.2417 87.8487 97.6852 86.8432 97.7018 85.7755C97.7177 84.7621 97.3647 83.8029 96.7036 83.0469C97.3257 82.3351 97.7025 81.4034 97.7025 80.3856C97.7025 79.3678 97.3249 78.4354 96.7021 77.7229C97.3249 77.0103 97.7025 76.0786 97.7025 75.0601C97.7018 74.0423 97.3249 73.1106 96.7028 72.3988ZM93.6487 79.1125C94.3511 79.1125 94.9219 79.6832 94.9219 80.3856C94.9219 81.0873 94.3511 81.6588 93.6487 81.6588C92.8812 81.6588 92.2591 82.2809 92.2591 83.0484C92.2591 83.8159 92.8812 84.438 93.6487 84.438C93.993 84.438 94.315 84.5733 94.5566 84.8185C94.7974 85.063 94.9277 85.3878 94.9219 85.7321C94.9117 86.3991 94.2954 86.9843 93.6024 86.9843H67.7445V71.7897H68.3521C69.7844 71.7897 71.4482 71.5966 72.9319 70.1635L81.2268 62.1514C83.1214 60.322 84.2535 57.7916 84.3764 55.1469H85.3834C85.97 55.1469 86.5234 55.3813 86.9408 55.8073C87.3654 56.2399 87.5991 56.8179 87.5991 57.4335C87.5991 58.7833 87.2468 60.1122 86.5799 61.2775L83.6603 66.381C83.4143 66.8114 83.4158 67.3395 83.6646 67.7684C83.9128 68.1974 84.3714 68.4614 84.8669 68.4614H93.6024C94.2947 68.4614 94.9117 69.0459 94.9219 69.7136C94.9277 70.0579 94.7974 70.3827 94.5558 70.6272C94.3142 70.8717 93.9923 71.007 93.6487 71.007C92.8812 71.007 92.2591 71.6291 92.2591 72.3966C92.2591 73.1648 92.8812 73.7869 93.6487 73.7869C94.3504 73.7869 94.9219 74.3577 94.9219 75.0601C94.9219 75.7618 94.3504 76.3332 93.6487 76.3332C92.8812 76.3332 92.2591 76.9554 92.2591 77.7229C92.2591 78.4904 92.8812 79.1125 93.6487 79.1125Z" fill="white"/>
<path d="M61.496 67.0125H54.524C53.2936 67.0125 52.2931 68.0129 52.2931 69.2434V90.1953C52.2931 91.4258 53.2936 92.4262 54.524 92.4262H61.496C62.7264 92.4262 63.7269 91.4258 63.7269 90.1953V69.2434C63.7276 68.0129 62.7264 67.0125 61.496 67.0125ZM60.9476 89.647H55.0731V69.7924H60.9476V89.647Z" fill="white"/>
<path d="M59.6022 85.9925C59.6448 86.0966 59.6774 86.2044 59.6998 86.3151C59.7215 86.4258 59.7331 86.5379 59.7331 86.6507C59.7331 86.7636 59.7215 86.8757 59.6998 86.9864C59.6774 87.0978 59.6448 87.2056 59.6022 87.3097C59.5587 87.4139 59.5052 87.513 59.443 87.607C59.3801 87.7011 59.3085 87.7879 59.2289 87.8682C59.1486 87.9477 59.0618 88.0194 58.9677 88.0823C58.8737 88.1452 58.7746 88.198 58.6704 88.2414C58.5655 88.2848 58.4578 88.3174 58.3471 88.3391C58.2364 88.3615 58.1243 88.3724 58.0114 88.3724C57.8986 88.3724 57.7865 88.3615 57.6758 88.3391C57.5644 88.3174 57.4573 88.2848 57.3524 88.2414C57.2483 88.198 57.1492 88.1452 57.0551 88.0823C56.9611 88.0194 56.8743 87.9477 56.794 87.8682C56.7144 87.7879 56.6428 87.7011 56.5799 87.607C56.5169 87.513 56.4641 87.4139 56.4207 87.3097C56.378 87.2056 56.3448 87.0978 56.3231 86.9871C56.3006 86.8757 56.2898 86.7636 56.2898 86.6507C56.2898 86.5379 56.3006 86.4258 56.3231 86.3151C56.3448 86.2044 56.378 86.0966 56.4207 85.9925C56.4641 85.8876 56.5169 85.7885 56.5799 85.6944C56.6428 85.6004 56.7144 85.5136 56.794 85.434C56.8743 85.3537 56.9611 85.2821 57.0551 85.2199C57.1492 85.157 57.2483 85.1034 57.3524 85.0607C57.4573 85.0173 57.5644 84.9848 57.6758 84.9624C57.7865 84.9407 57.8986 84.9298 58.0114 84.9298C58.1243 84.9298 58.2364 84.9407 58.3471 84.9624C58.4578 84.9848 58.5655 85.0173 58.6704 85.0607C58.7746 85.1034 58.8737 85.157 58.9677 85.2199C59.0618 85.2821 59.1486 85.3537 59.2289 85.434C59.3085 85.5136 59.3801 85.6004 59.443 85.6944C59.5052 85.7885 59.5587 85.8876 59.6022 85.9925Z" fill="white"/>
<mask id="mask1_7162_810" style="mask-type:luminance" maskUnits="userSpaceOnUse" x="43" y="43" width="64" height="64">
<path d="M43.1945 43.1945H106.806V106.806H43.1945V43.1945Z" fill="white"/>
</mask>
<g mask="url(#mask1_7162_810)">
<path d="M74.9993 43.1945C57.4515 43.1945 43.1945 57.4515 43.1945 74.9993C43.1945 92.547 57.4515 106.803 74.9993 106.803C92.547 106.803 106.803 92.547 106.803 74.9993C106.803 57.4515 92.547 43.1945 74.9993 43.1945ZM74.9993 44.5776C91.8186 44.5776 105.421 58.18 105.421 74.9993C105.421 91.8186 91.8186 105.421 74.9993 105.421C58.18 105.421 44.5776 91.8186 44.5776 74.9993C44.5776 58.18 58.18 44.5776 74.9993 44.5776Z" fill="white"/>
</g>
</g>
<defs>
<clipPath id="clip0_7162_810">
<rect width="150" height="150" fill="white"/>
</clipPath>
</defs>
</svg>
