<svg xmlns="http://www.w3.org/2000/svg" xmlns:xlink="http://www.w3.org/1999/xlink" width="1080" zoomAndPan="magnify" viewBox="0 0 810 809.999993" height="1080" preserveAspectRatio="xMidYMid meet" version="1.0"><defs><clipPath id="193fe7fa10"><path d="M 405 0 C 181.324219 0 0 181.324219 0 405 C 0 628.675781 181.324219 810 405 810 C 628.675781 810 810 628.675781 810 405 C 810 181.324219 628.675781 0 405 0 Z M 405 0 " clip-rule="nonzero"/></clipPath><clipPath id="7fd07bfaab"><path d="M 43.886719 116.1875 L 777.386719 116.1875 L 777.386719 723.6875 L 43.886719 723.6875 Z M 43.886719 116.1875 " clip-rule="nonzero"/></clipPath></defs><g clip-path="url(#193fe7fa10)"><rect x="-81" width="972" fill="#ffffff" y="-80.999999" height="971.999992" fill-opacity="1"/></g><path fill="#333333" d="M 629.675781 231.027344 L 540.511719 650.34375 C 536.101562 671.089844 511.382812 680.359375 494.167969 668 L 281.859375 509.984375 L 516.238281 298.117188 C 516.238281 298.117188 532.128906 285.316406 527.714844 281.34375 C 522.859375 276.488281 505.644531 287.082031 496.375 293.261719 C 487.546875 299.441406 209.472656 475.113281 209.472656 475.113281 L 69.109375 430.972656 C 53.222656 426.117188 53.222656 404.492188 76.171875 394.78125 L 594.363281 195.273438 C 616.433594 184.238281 634.527344 209.839844 629.675781 231.027344 Z M 629.675781 231.027344 " fill-opacity="1" fill-rule="nonzero"/><g clip-path="url(#7fd07bfaab)"><path fill="#333333" d="M 416.484375 957.109375 C 127.816406 957.109375 -107.445312 722.289062 -107.445312 433.179688 C -107.445312 144.511719 127.816406 -90.746094 416.484375 -90.746094 C 705.59375 -90.746094 940.410156 144.511719 940.410156 433.179688 C 940.410156 722.289062 705.59375 957.109375 416.484375 957.109375 Z M 416.484375 -62.054688 C 143.265625 -62.054688 -78.753906 159.960938 -78.753906 433.179688 C -78.753906 706.402344 143.265625 928.417969 416.484375 928.417969 C 689.703125 928.417969 911.722656 706.402344 911.722656 433.179688 C 911.722656 159.960938 689.703125 -62.054688 416.484375 -62.054688 Z M 416.484375 -62.054688 " fill-opacity="1" fill-rule="nonzero"/></g></svg>