<svg xmlns="http://www.w3.org/2000/svg" xmlns:xlink="http://www.w3.org/1999/xlink" width="1080" zoomAndPan="magnify" viewBox="0 0 810 809.999993" height="1080" preserveAspectRatio="xMidYMid meet" version="1.0"><defs><clipPath id="cb85ae6d0d"><path d="M 405 0 C 181.324219 0 0 181.324219 0 405 C 0 628.675781 181.324219 810 405 810 C 628.675781 810 810 628.675781 810 405 C 810 181.324219 628.675781 0 405 0 Z M 405 0 " clip-rule="nonzero"/></clipPath><clipPath id="cece6c65e7"><path d="M 140.589844 231.480469 L 669.339844 231.480469 L 669.339844 578.730469 L 140.589844 578.730469 Z M 140.589844 231.480469 " clip-rule="nonzero"/></clipPath></defs><g clip-path="url(#cb85ae6d0d)"><rect x="-81" width="972" fill="#ffffff" y="-80.999999" height="971.999992" fill-opacity="1"/></g><g clip-path="url(#cece6c65e7)"><path fill="#333333" d="M 588.546875 231.480469 L 221.441406 231.480469 C 176.953125 231.480469 140.8125 267.621094 140.8125 312.109375 L 140.8125 497.878906 C 140.8125 542.367188 176.953125 578.507812 221.441406 578.507812 L 588.546875 578.507812 C 633.035156 578.507812 669.175781 542.367188 669.175781 497.878906 L 669.175781 312.109375 C 669.175781 267.621094 633.035156 231.480469 588.546875 231.480469 Z M 350.679688 499.148438 L 350.679688 310.945312 L 513.625 405.101562 L 350.679688 499.253906 Z M 350.679688 499.148438 " fill-opacity="1" fill-rule="nonzero"/></g></svg>